SplineFontDB: 3.0
FontName: CoveredByYourGrace
FullName: Covered By Your Grace
FamilyName: Covered By Your Grace
Weight: Book
Copyright: Copyright (c) 2011 by Kimberly Geswein. All rights reserved.
Version: 1.000
ItalicAngle: 0
UnderlinePosition: 0
UnderlineWidth: 0
Ascent: 819
Descent: 205
sfntRevision: 0x00010000
LayerCount: 2
Layer: 0 1 "Back"  1
Layer: 1 1 "Fore"  0
NeedsXUIDChange: 1
XUID: [1021 288 713564382 5017780]
FSType: 0
OS2Version: 3
OS2_WeightWidthSlopeOnly: 0
OS2_UseTypoMetrics: 1
CreationTime: 1297179780
ModificationTime: 1307312568
PfmFamily: 17
TTFWeight: 400
TTFWidth: 5
LineGap: 0
VLineGap: 0
Panose: 2 0 0 0 0 0 0 0 0 0
OS2TypoAscent: 202
OS2TypoAOffset: 1
OS2TypoDescent: -179
OS2TypoDOffset: 1
OS2TypoLinegap: 0
OS2WinAscent: 0
OS2WinAOffset: 1
OS2WinDescent: 0
OS2WinDOffset: 1
HheadAscent: 0
HheadAOffset: 1
HheadDescent: 0
HheadDOffset: 1
OS2SubXSize: 717
OS2SubYSize: 666
OS2SubXOff: 0
OS2SubYOff: 143
OS2SupXSize: 717
OS2SupYSize: 666
OS2SupXOff: 0
OS2SupYOff: 488
OS2StrikeYSize: 51
OS2StrikeYPos: 256
OS2Vendor: '    '
OS2CodePages: 00000093.00000000
OS2UnicodeRanges: a000002f.5000004a.00000000.00000000
DEI: 91125
TtTable: prep
PUSHW_1
 511
SCANCTRL
PUSHB_1
 4
SCANTYPE
EndTTInstrs
ShortTable: maxp 16
  1
  0
  350
  166
  4
  186
  4
  2
  0
  1
  1
  0
  64
  0
  3
  1
EndShort
LangName: 1033 "" "" "Regular" "KimberlyGeswein: Covered By Your Grace: 2011" "" "Version 1.000" "" "Covered By Your Grace is a trademark of Kimberly Geswein." "Kimberly Geswein" "Kimberly Geswein" "Copyright (c) 2011 by Kimberly Geswein. All rights reserved." "http://kimberlygeswein.com" "http://kimberlygeswein.com" "Copyright (c) 2010, Kimberly Geswein (kimberlygeswein.com)+AA0ACgAN-This Font Software is licensed under the SIL Open Font License, Version 1.1.  This license is available with a FAQ at:  http://scripts.sil.org/OFL" " http://scripts.sil.org/OFL" "" "" "" "Covered By Your Grace" 
GaspTable: 1 65535 15
Encoding: UnicodeBmp
UnicodeInterp: none

StartChar: exclam
Encoding: 33 33 4
Width: 121
Flags: HW
LayerCount: 2
Fore
SplineSet
56 68 m 2,0,1
 96 68 96 68 96 35 c 0,2,3
 96 22.7692307692 96 22.7692307692 82.3821144896 11.2464045681 c 0,4,5
 68.7642289792 -0.276421632961 68.7642289792 -0.276421632961 62.2361231019 -0.276421632961 c 0,6,7
 55.7080172246 -0.276421632961 55.7080172246 -0.276421632961 48.8540086123 0.86178918352 c 0,8,9
 42 2 42 2 30 12 c 128,-1,10
 18 22 18 22 18 35.5714285714 c 128,-1,11
 18 49.1428571429 18 49.1428571429 40 68 c 1,12,-1
 56 68 l 2,0,1
99 485 m 1,13,-1
 95 367 l 1,14,15
 93 349 93 349 85 335 c 128,-1,16
 77 321 77 321 55.5 321 c 128,-1,17
 34 321 34 321 26 333 c 128,-1,18
 18 345 18 345 18 368.625 c 128,-1,19
 18 392.25 18 392.25 23 406 c 1,20,-1
 23 748 l 2,21,22
 23 756.727272727 23 756.727272727 48.5 766 c 0,23,24
 54 768 54 768 56 768 c 0,25,26
 73 768 73 768 81.5 756 c 128,-1,27
 90 744 90 744 95 731 c 1,28,-1
 94 665.5 l 1,29,-1
 95 600 l 1,30,-1
 99 485 l 1,13,-1
EndSplineSet
EndChar

StartChar: quotedbl
Encoding: 34 34 5
Width: 253
Flags: HW
LayerCount: 2
Fore
SplineSet
200 406 m 2,0,1
 160.428571429 406 160.428571429 406 160.428571429 491.275510204 c 0,2,3
 160.428571429 494.142857143 160.428571429 494.142857143 160.714285714 505.571428571 c 128,-1,4
 161 517 161 517 160 526.5 c 128,-1,5
 159 536 159 536 157.5 557 c 128,-1,6
 156 578 156 578 154 601.5 c 128,-1,7
 152 625 152 625 150 646 c 128,-1,8
 148 667 148 667 145.5 679.5 c 128,-1,9
 143 692 143 692 153.5 699 c 128,-1,10
 164 706 164 706 179 706 c 0,11,12
 207.4 706 207.4 706 215 668 c 1,13,14
 216 656 216 656 217.5 628 c 128,-1,15
 219 600 219 600 221 568.5 c 128,-1,16
 223 537 223 537 225 508.5 c 128,-1,17
 227 480 227 480 227 469 c 2,18,-1
 227 446 l 2,19,20
 227 427 227 427 223.678571429 420.357142857 c 128,-1,21
 220.357142857 413.714285714 220.357142857 413.714285714 203 406 c 1,22,-1
 200 406 l 2,0,1
63 687 m 2,23,24
 63 689 63 689 85 689 c 128,-1,25
 107 689 107 689 113 673 c 128,-1,26
 119 657 119 657 119 600.666666667 c 128,-1,27
 119 544.333333333 119 544.333333333 105 430 c 1,28,29
 104 412 104 412 86 412 c 0,30,31
 53.2857142857 412 53.2857142857 412 45 470 c 0,32,33
 43 484 43 484 43 493 c 2,34,-1
 43 506 l 1,35,-1
 55 662 l 1,36,-1
 63 687 l 2,23,24
EndSplineSet
EndChar

StartChar: numbersign
Encoding: 35 35 6
Width: 441
Flags: HW
LayerCount: 2
Fore
SplineSet
338 600 m 1,0,1
 350 600 350 600 350 581.5 c 0,2,3
 350 570.263157895 350 570.263157895 326.804347826 554.392448513 c 128,-1,4
 303.608695652 538.52173913 303.608695652 538.52173913 291 536 c 1,5,6
 286 532 286 532 286.5 524.5 c 128,-1,7
 287 517 287 517 287 514 c 2,8,-1
 287 505 l 2,9,10
 287 474 287 474 291 474 c 2,11,-1
 295 474 l 1,12,13
 299 476 299 476 309.5 481 c 0,14,15
 335.099697885 493.190332326 335.099697885 493.190332326 366.459758853 510.595166163 c 128,-1,16
 397.81981982 528 397.81981982 528 408.90990991 528 c 128,-1,17
 420 528 420 528 421.5 525.5 c 128,-1,18
 423 523 423 523 423 516 c 1,19,-1
 422 512 l 1,20,-1
 422 508 l 1,21,22
 412 493 412 493 403 482 c 128,-1,23
 394 471 394 471 392.5 469 c 128,-1,24
 391 467 391 467 388 464 c 128,-1,25
 385 461 385 461 385 460 c 2,26,-1
 295 401 l 2,27,28
 291 398 291 398 291 396.5 c 2,29,-1
 291 389 l 2,30,31
 291 353 291 353 297.5 318 c 128,-1,32
 304 283 304 283 304 247 c 2,33,-1
 304 216 l 1,34,35
 302 205 302 205 293.5 203.5 c 128,-1,36
 285 202 285 202 275 202 c 128,-1,37
 265 202 265 202 258 204.5 c 128,-1,38
 251 207 251 207 246 220 c 1,39,40
 233.090909091 291 233.090909091 291 224 351 c 1,41,-1
 220 351 l 2,42,43
 212 351 212 351 203 345.5 c 128,-1,44
 194 340 194 340 194 332 c 0,45,46
 194 307 194 307 198.5 281 c 128,-1,47
 203 255 203 255 203 229 c 0,48,49
 203 190 203 190 172 190 c 0,50,51
 161 190 161 190 159 192.5 c 128,-1,52
 157 195 157 195 148 198 c 1,53,54
 147 202 147 202 146 211.5 c 128,-1,55
 145 221 145 221 143.5 231 c 128,-1,56
 142 241 142 241 140.5 250 c 128,-1,57
 139 259 139 259 139 262.5 c 2,58,-1
 139 284 l 2,59,60
 139 298 139 298 131 300 c 1,61,62
 103 286 103 286 76.875 286 c 128,-1,63
 50.75 286 50.75 286 42 300 c 1,64,65
 41.724137931 303.172413793 41.724137931 303.172413793 41.724137931 313.74137931 c 128,-1,66
 41.724137931 324.310344828 41.724137931 324.310344828 53.3620689655 333.155172414 c 128,-1,67
 65 342 65 342 80.5 347 c 128,-1,68
 96 352 96 352 109.5 358 c 128,-1,69
 123 364 123 364 123 384.5 c 128,-1,70
 123 405 123 405 119 439 c 1,71,-1
 118 439 l 2,72,73
 117 439 117 439 112 439.5 c 0,74,75
 103.4 440.36 103.4 440.36 84.7454545455 426.68 c 128,-1,76
 66.0909090909 413 66.0909090909 413 52 413 c 128,-1,77
 38 413 38 413 25 422 c 128,-1,78
 12 431 12 431 12 442 c 128,-1,79
 12 453 12 453 20 460.5 c 128,-1,80
 28 468 28 468 30 469 c 2,81,-1
 106 512 l 1,82,-1
 115 520 l 1,83,84
 116 532 116 532 117 542 c 128,-1,85
 118 552 118 552 118 562 c 128,-1,86
 118 572 118 572 119 578 c 1,87,-1
 119 651 l 1,88,89
 122 662 122 662 130.5 664.5 c 128,-1,90
 139 667 139 667 150 667 c 128,-1,91
 161 667 161 667 166.5 661 c 128,-1,92
 172 655 172 655 177 647 c 1,93,-1
 181 574 l 1,94,95
 180 569 180 569 180 565 c 256,96,97
 180 554.666666667 180 554.666666667 185 553 c 1,98,-1
 198.5 557.5 l 2,99,100
 209 561 209 561 211 562 c 1,101,102
 215 562 215 562 215 566 c 0,103,104
 220.899952182 597.859741784 220.899952182 597.859741784 220.899952182 630.580420796 c 128,-1,105
 220.899952182 663.301099809 220.899952182 663.301099809 220 684 c 1,106,107
 226.181818182 701 226.181818182 701 250 701 c 0,108,109
 288.402380952 701 288.402380952 701 288.402380952 636.813163265 c 0,110,111
 288.402380952 630.242857143 288.402380952 630.242857143 287.701190476 617.621428571 c 128,-1,112
 287 605 287 605 287 593 c 1,113,-1
 338 600 l 1,0,1
181 482 m 1,114,-1
 181 450 l 2,115,116
 181 408.449462366 181 408.449462366 187.433631634 408.449462366 c 0,117,118
 188.174193548 408.449462366 188.174193548 408.449462366 189 409 c 2,119,-1
 220 427 l 1,120,-1
 220 494 l 2,121,122
 220 499 220 499 213 499 c 1,123,-1
 196 490 l 2,124,125
 184 484 184 484 181 482 c 1,114,-1
EndSplineSet
EndChar

StartChar: dollar
Encoding: 36 36 7
Width: 342
Flags: HW
LayerCount: 2
Fore
SplineSet
141 271 m 1,0,-1
 141.75 318.375 l 2,1,2
 141.75 379.75 141.75 379.75 133 406 c 1,3,4
 126.115192661 404.748216848 126.115192661 404.748216848 112.48871512 404.748216848 c 128,-1,5
 98.8622375785 404.748216848 98.8622375785 404.748216848 69.9311187893 414.874108424 c 128,-1,6
 41 425 41 425 25.5 436 c 128,-1,7
 10 447 10 447 10 462 c 0,8,9
 10 516.409090909 10 516.409090909 72 592.5 c 0,10,11
 83 606 83 606 95 620.5 c 128,-1,12
 107 635 107 635 117.5 648.5 c 128,-1,13
 128 662 128 662 133 667 c 1,14,-1
 137 722 l 1,15,-1
 137 735 l 1,16,17
 138 743 138 743 140.5 762.5 c 128,-1,18
 143 782 143 782 145.5 804.5 c 128,-1,19
 148 827 148 827 150.5 846.5 c 128,-1,20
 153 866 153 866 155 876.5 c 128,-1,21
 157 887 157 887 165 901.5 c 128,-1,22
 173 916 173 916 191.25 916 c 128,-1,23
 209.5 916 209.5 916 222 891 c 1,24,-1
 222 867 l 2,25,26
 222 832 222 832 216 797 c 128,-1,27
 210 762 210 762 210 727 c 1,28,29
 226 727 226 727 239.5 733 c 128,-1,30
 253 739 253 739 269.5 739 c 128,-1,31
 286 739 286 739 296.5 730 c 128,-1,32
 307 721 307 721 307 707.5 c 128,-1,33
 307 694 307 694 304 689.5 c 128,-1,34
 301 685 301 685 295.5 683.5 c 128,-1,35
 290 682 290 682 283 682 c 128,-1,36
 276 682 276 682 269.5 680.5 c 0,37,38
 251.258064516 676.290322581 251.258064516 676.290322581 228.129032258 663.073732719 c 128,-1,39
 205 649.857142857 205 649.857142857 205 637 c 2,40,-1
 205 473 l 1,41,-1
 209 469 l 1,42,43
 271.75 469 271.75 469 305.5 444 c 0,44,45
 324 430.296296296 324 430.296296296 324 405.5 c 2,46,-1
 324 392 l 2,47,48
 324 339.162162162 324 339.162162162 251.5 274.5 c 0,49,50
 233 258 233 258 218 245 c 1,51,-1
 218 215 l 1,52,-1
 248 30 l 1,53,54
 248 15.6 248 15.6 227 3 c 0,55,56
 222 0 222 0 214.5 0 c 0,57,58
 191.571428571 0 191.571428571 0 179 22 c 1,59,60
 178 26 178 26 176 36 c 128,-1,61
 174 46 174 46 171 57 c 128,-1,62
 168 68 168 68 166 78 c 128,-1,63
 164 88 164 88 163 92 c 1,64,-1
 163 97 l 1,65,-1
 159.5 121.5 l 2,66,67
 157 139 157 139 154 158.5 c 128,-1,68
 151 178 151 178 148.5 195.5 c 128,-1,69
 146 213 146 213 145 219 c 1,70,71
 141.857142857 222.142857143 141.857142857 222.142857143 120.428571429 224.821428571 c 128,-1,72
 99 227.5 99 227.5 99 233 c 1,73,74
 83.8468838118 241.839317776 83.8468838118 241.839317776 83.8468838118 248.81052834 c 128,-1,75
 83.8468838118 255.781738903 83.8468838118 255.781738903 92.5777900114 263.841036934 c 128,-1,76
 101.308696211 271.900334964 101.308696211 271.900334964 117.102840767 271.900334964 c 128,-1,77
 132.896985324 271.900334964 132.896985324 271.900334964 141 271 c 1,0,-1
264 401 m 1,78,79
 228 401 228 401 218 406 c 1,80,-1
 215 406 l 2,81,82
 211 406 211 406 209 401 c 1,83,-1
 209 354 l 1,84,-1
 213 338 l 1,85,-1
 218 338 l 2,86,87
 219 338 219 338 230.5 349 c 128,-1,88
 242 360 242 360 247 366.5 c 128,-1,89
 252 373 252 373 258 380.5 c 128,-1,90
 264 388 264 388 264 397 c 2,91,-1
 264 401 l 1,78,79
121 473 m 1,92,-1
 128.867768595 472.454545455 l 2,93,94
 133 472.454545455 133 472.454545455 133 477 c 2,95,-1
 133 559 l 1,96,97
 123.25 559 123.25 559 105.125 530 c 128,-1,98
 87 501 87 501 87 485 c 0,99,100
 87 473 87 473 111 473 c 2,101,-1
 121 473 l 1,92,-1
EndSplineSet
EndChar

StartChar: percent
Encoding: 37 37 8
Width: 445
Flags: HW
LayerCount: 2
Fore
SplineSet
354 126 m 0,0,1
 292.294117647 126 292.294117647 126 272 241 c 1,2,-1
 264 241 l 2,3,4
 261.333333333 241 261.333333333 241 252.666666667 228 c 128,-1,5
 244 215 244 215 238.5 207.5 c 128,-1,6
 233 200 233 200 227 189 c 128,-1,7
 221 178 221 178 214.5 145.5 c 128,-1,8
 208 113 208 113 199.5 80.5 c 128,-1,9
 191 48 191 48 176.5 23.5 c 128,-1,10
 162 -1 162 -1 136 -1 c 0,11,12
 125 -1 125 -1 115 9 c 128,-1,13
 105 19 105 19 103 30 c 1,14,-1
 103 55 l 2,15,16
 103 65 103 65 106.5 80.5 c 128,-1,17
 110 96 110 96 108 105 c 1,18,-1
 175 384 l 1,19,20
 197 441 197 441 216 498.5 c 128,-1,21
 235 556 235 556 268 608 c 1,22,23
 290.5 626 290.5 626 313.25 626 c 128,-1,24
 336 626 336 626 336 610 c 0,25,26
 336 590 336 590 327 578 c 128,-1,27
 318 566 318 566 306.5 541 c 128,-1,28
 295 516 295 516 284 485.5 c 128,-1,29
 273 455 273 455 264 425 c 128,-1,30
 255 395 255 395 246 363.5 c 128,-1,31
 237 332 237 332 226 296 c 1,32,-1
 226 292 l 1,33,-1
 199 199 l 1,34,-1
 205 199 l 1,35,-1
 260 296 l 1,36,37
 260 316 260 316 271 323 c 128,-1,38
 282 330 282 330 294 330 c 2,39,-1
 311.5 330 l 2,40,41
 319.631578947 330 319.631578947 330 330.815789474 317.5 c 128,-1,42
 342 305 342 305 344 304 c 0,43,44
 364 293 364 293 380 291 c 128,-1,45
 396 289 396 289 407 284.5 c 0,46,47
 429 275.5 429 275.5 429 231.118421053 c 128,-1,48
 429 186.736842105 429 186.736842105 414.5 165.368421053 c 0,49,50
 387.785714286 126 387.785714286 126 354 126 c 0,0,1
352 245 m 1,51,52
 339.204301075 237.322580645 339.204301075 237.322580645 356 219 c 0,53,54
 358.777777778 216.222222222 358.777777778 216.222222222 361.694444444 216.222222222 c 128,-1,55
 364.611111111 216.222222222 364.611111111 216.222222222 368.540849673 218.640522876 c 128,-1,56
 372.470588235 221.058823529 372.470588235 221.058823529 372.470588235 225.389140271 c 128,-1,57
 372.470588235 229.719457014 372.470588235 229.719457014 364.735294118 236.859728507 c 128,-1,58
 357 244 357 244 352 245 c 1,51,52
27 485 m 1,59,-1
 18 511 l 1,60,-1
 18 515 l 2,61,62
 18 543.225806452 18 543.225806452 53.1111111111 563.612903226 c 128,-1,63
 88.2222222222 584 88.2222222222 584 111.111111111 584 c 0,64,65
 146.869565217 584 146.869565217 584 160.934782609 560.892857143 c 128,-1,66
 175 537.785714286 175 537.785714286 175 509.392857143 c 0,67,68
 175 452.75 175 452.75 154.214285714 416.375 c 128,-1,69
 133.428571429 380 133.428571429 380 86.880952381 380 c 128,-1,70
 40.3333333333 380 40.3333333333 380 32 455 c 0,71,72
 30 473 30 473 27 485 c 1,59,-1
93.3611111111 491.166666667 m 0,73,74
 86.7142857143 491.166666667 86.7142857143 491.166666667 86.7142857143 477.083333333 c 128,-1,75
 86.7142857143 463 86.7142857143 463 90.8571428571 463 c 128,-1,76
 95 463 95 463 99.5 466.6 c 128,-1,77
 104 470.2 104 470.2 104 475.6 c 0,78,79
 104 488.285714286 104 488.285714286 94.5 491 c 0,80,81
 93.9166666667 491.166666667 93.9166666667 491.166666667 93.3611111111 491.166666667 c 0,73,74
EndSplineSet
EndChar

StartChar: ampersand
Encoding: 38 38 9
Width: 348
Flags: HW
LayerCount: 2
Fore
SplineSet
268 231 m 1,0,1
 284 231 284 231 287 234 c 1,2,3
 297 234 297 234 300.5 230.5 c 0,4,5
 310.461538462 220.538461538 310.461538462 220.538461538 310.461538462 215.153846154 c 0,6,7
 310.461538462 204.923076923 310.461538462 204.923076923 300.952991453 185.905982906 c 128,-1,8
 291.444444444 166.888888889 291.444444444 166.888888889 282 165 c 0,9,10
 269 161 269 161 251.625 161 c 128,-1,11
 234.25 161 234.25 161 212.5 165 c 0,12,13
 109.123241418 184.01181767 109.123241418 184.01181767 58 268 c 1,14,15
 55 271 55 271 49.5 282 c 2,16,-1
 43 295 l 1,17,18
 37.5 309.5 37.5 309.5 37.5 323.25 c 128,-1,19
 37.5 337 37.5 337 43 350 c 0,20,21
 56.5848563969 382.109660574 56.5848563969 382.109660574 96 389.5 c 0,22,23
 104 391 104 391 122.181818182 393.727272727 c 128,-1,24
 140.363636364 396.454545455 140.363636364 396.454545455 148 399 c 1,25,26
 131 420 131 420 107.5 435.5 c 128,-1,27
 84 451 84 451 69.5 465 c 128,-1,28
 55 479 55 479 53.5 482 c 128,-1,29
 52 485 52 485 48.523255814 490.523255814 c 128,-1,30
 45.0465116279 496.046511628 45.0465116279 496.046511628 45.0465116279 503.462412115 c 0,31,32
 45.0465116279 515.976744186 45.0465116279 515.976744186 62 521 c 1,33,34
 81.4157303371 538.258426966 81.4157303371 538.258426966 119.707865169 548.629213483 c 0,35,36
 171.076923077 562.541666667 171.076923077 562.541666667 195.830128205 562.541666667 c 128,-1,37
 220.583333333 562.541666667 220.583333333 562.541666667 234 560.5 c 0,38,39
 286.971134021 552.439175258 286.971134021 552.439175258 298 512 c 1,40,41
 307 501 307 501 299 492.5 c 128,-1,42
 291 484 291 484 279.5 479.5 c 128,-1,43
 268 475 268 475 255.5 475.5 c 128,-1,44
 243 476 243 476 229.5 477 c 128,-1,45
 216 478 216 478 199 478 c 128,-1,46
 182 478 182 478 166 470 c 1,47,48
 181 458 181 458 199.5 446.5 c 128,-1,49
 218 435 218 435 247.950248756 415.31840796 c 128,-1,50
 277.900497512 395.63681592 277.900497512 395.63681592 286.950248756 382.81840796 c 128,-1,51
 296 370 296 370 293.5 360 c 128,-1,52
 291 350 291 350 276.5 345.5 c 0,53,54
 253.79245283 338.452830189 253.79245283 338.452830189 214.771226415 335.851415094 c 128,-1,55
 175.75 333.25 175.75 333.25 154 326 c 1,56,57
 140.844864388 319.809347948 140.844864388 319.809347948 140.844864388 307.789893792 c 128,-1,58
 140.844864388 295.770439636 140.844864388 295.770439636 170.46788674 267.998856182 c 0,59,60
 217.306878307 224.087301587 217.306878307 224.087301587 268 231 c 1,0,1
144 79 m 1,61,62
 149.375565611 113.941176471 149.375565611 113.941176471 187.100346021 113.941176471 c 0,63,64
 204.058823529 113.941176471 204.058823529 113.941176471 215.529411765 102.470588235 c 128,-1,65
 227 91 227 91 229.5 76 c 128,-1,66
 232 61 232 61 235.783204589 40.4626036614 c 128,-1,67
 239.566409177 19.9252073228 239.566409177 19.9252073228 239.566409177 -0.914424600723 c 0,68,69
 239.566409177 -44 239.566409177 -44 218 -44 c 2,70,-1
 192 -44 l 2,71,72
 170.333333333 -44 170.333333333 -44 165.666666667 -36 c 128,-1,73
 161 -28 161 -28 158 -12.5 c 128,-1,74
 155 3 155 3 152 31 c 128,-1,75
 149 59 149 59 144 79 c 1,61,62
208.6 649.28 m 0,76,77
 208.6 593 208.6 593 184 593 c 0,78,79
 155.909090909 593 155.909090909 593 136.954545455 620.8 c 128,-1,80
 118 648.6 118 648.6 118 688.5 c 2,81,-1
 118 716 l 1,82,83
 120.263473054 745.425149701 120.263473054 745.425149701 156.5 751 c 0,84,85
 160.187542088 751.567314167 160.187542088 751.567314167 163.620586246 751.567314167 c 0,86,87
 193.358171458 751.567314167 193.358171458 751.567314167 204 709 c 1,88,89
 205 699 205 699 206.8 681.9 c 128,-1,90
 208.6 664.8 208.6 664.8 208.6 649.28 c 0,76,77
EndSplineSet
EndChar

StartChar: quotesingle
Encoding: 39 39 10
Width: 129
Flags: HW
LayerCount: 2
Fore
SplineSet
63 657 m 0,0,1
 103 657 103 657 103 616 c 0,2,3
 103 527 103 527 91.494826172 469.47413086 c 128,-1,4
 79.989652344 411.94826172 79.989652344 411.94826172 66.911600891 411.94826172 c 0,5,6
 44.6598810364 411.94826172 44.6598810364 411.94826172 31 442 c 0,7,8
 23 459.6 23 459.6 23 489 c 2,9,-1
 23 505 l 1,10,-1
 31 632 l 1,11,12
 38 657 38 657 63 657 c 0,0,1
EndSplineSet
EndChar

StartChar: parenleft
Encoding: 40 40 11
Width: 257
Flags: HW
LayerCount: 2
Fore
SplineSet
212 17 m 1,0,1
 212 0 212 0 179.5 0 c 128,-1,2
 147 0 147 0 116.5 19 c 128,-1,3
 86 38 86 38 64.5 67 c 0,4,5
 19.1462160176 128.174871418 19.1462160176 128.174871418 17 199 c 1,6,7
 15.6915146709 191.149088025 15.6915146709 191.149088025 15.4080095163 191.149088025 c 128,-1,8
 15.1245043616 191.149088025 15.1245043616 191.149088025 21.5622521808 239.074544013 c 0,9,10
 55.8578352181 494.386106624 55.8578352181 494.386106624 97 583 c 1,11,12
 117.897196262 639.261682243 117.897196262 639.261682243 174 710 c 1,13,14
 186.142857143 727 186.142857143 727 200.571428571 727 c 128,-1,15
 215 727 215 727 226 716.5 c 128,-1,16
 237 706 237 706 237 691.5 c 128,-1,17
 237 677 237 677 230.5 663 c 128,-1,18
 224 649 224 649 215 635.5 c 128,-1,19
 206 622 206 622 196.5 609.5 c 128,-1,20
 187 597 187 597 176 574 c 0,21,22
 146.882352941 513.117647059 146.882352941 513.117647059 118.461552646 403.494560207 c 128,-1,23
 90.0407523511 293.871473354 90.0407523511 293.871473354 90.0407523511 237.60512377 c 0,24,25
 90.0407523511 222.147335423 90.0407523511 222.147335423 92 210 c 1,26,27
 92 171 92 171 101 134.5 c 128,-1,28
 110 98 110 98 144 72 c 0,29,30
 164 57 164 57 176 49 c 128,-1,31
 188 41 188 41 197.5 34.5 c 128,-1,32
 207 28 207 28 211 26 c 1,33,-1
 212 17 l 1,0,1
EndSplineSet
EndChar

StartChar: parenright
Encoding: 41 41 12
Width: 270
Flags: HW
LayerCount: 2
Fore
SplineSet
250 445 m 1,0,1
 250 314.75 250 314.75 215 215 c 0,2,3
 215 213 215 213 210.5 203.5 c 128,-1,4
 206 194 206 194 201 182 c 128,-1,5
 196 170 196 170 190.5 158 c 128,-1,6
 185 146 185 146 180.5 137 c 0,7,8
 161.695652174 99.3913043478 161.695652174 99.3913043478 124.315911193 49.1956521739 c 128,-1,9
 86.9361702128 -1 86.9361702128 -1 60.5180851064 -1 c 128,-1,10
 34.1 -1 34.1 -1 21.5 13 c 0,11,12
 17 18 17 18 17 26 c 256,13,14
 17 34 17 34 27.5 45 c 128,-1,15
 38 56 38 56 50.5 74 c 128,-1,16
 63 92 63 92 81 115.5 c 128,-1,17
 99 139 99 139 110 160.5 c 128,-1,18
 121 182 121 182 126 198.5 c 128,-1,19
 131 215 131 215 139 227 c 1,20,21
 170 336.533333333 170 336.533333333 170 414.266666667 c 0,22,23
 170 552.588235294 170 552.588235294 135 672 c 0,24,25
 131.627906977 685.488372093 131.627906977 685.488372093 115.813953488 706.244186047 c 128,-1,26
 100 727 100 727 94 737 c 128,-1,27
 88 747 88 747 88 758.5 c 128,-1,28
 88 770 88 770 98 780 c 128,-1,29
 108 790 108 790 123.5 790 c 0,30,31
 152.944444444 790 152.944444444 790 180.644949495 751.645454545 c 128,-1,32
 208.345454545 713.290909091 208.345454545 713.290909091 217.672727273 682.145454545 c 0,33,34
 244.53954523 592.432278794 244.53954523 592.432278794 250 445 c 1,0,1
EndSplineSet
EndChar

StartChar: asterisk
Encoding: 42 42 13
Width: 437
Flags: HW
LayerCount: 2
Fore
SplineSet
240 196 m 1,0,1
 248 148 248 148 248 127 c 128,-1,2
 248 106 248 106 235 94.5 c 128,-1,3
 222 83 222 83 204 83 c 2,4,-1
 201 83 l 1,5,-1
 179 104 l 1,6,7
 180 127 180 127 180 151.5 c 128,-1,8
 180 176 180 176 176 200 c 1,9,10
 140.5 164.5 140.5 164.5 118 145 c 1,11,12
 105.777777778 136.037037037 105.777777778 136.037037037 97.462962963 136.037037037 c 0,13,14
 71.1728395062 136.037037037 71.1728395062 136.037037037 58 154 c 1,15,-1
 55 157 l 1,16,-1
 59 186 l 1,17,18
 66 191 66 191 72.5 196 c 128,-1,19
 79 201 79 201 86 206 c 1,20,21
 66 201 66 201 48 201 c 0,22,23
 14 201 14 201 14 236 c 0,24,25
 14 245 14 245 17.5 252 c 128,-1,26
 21 259 21 259 18 268 c 1,27,28
 34 272 34 272 44 272 c 2,29,-1
 78 272 l 1,30,31
 88 274 88 274 102.5 277.5 c 128,-1,32
 117 281 117 281 131 284 c 1,33,34
 114 301 114 301 92.5 315 c 128,-1,35
 71 329 71 329 59.1395348837 345.046511628 c 128,-1,36
 47.2790697674 361.093023256 47.2790697674 361.093023256 47.2790697674 372.395348837 c 128,-1,37
 47.2790697674 383.697674419 47.2790697674 383.697674419 63 397 c 1,38,39
 71 402 71 402 78.5 404.5 c 128,-1,40
 86 407 86 407 92 415 c 1,41,42
 95 413 95 413 102.5 405.5 c 2,43,-1
 112 396 l 2,44,45
 112 395 112 395 115 391.5 c 128,-1,46
 118 388 118 388 121.5 383.5 c 128,-1,47
 125 379 125 379 128 375 c 0,48,49
 136.470588235 363.705882353 136.470588235 363.705882353 174 333 c 1,50,-1
 187 475 l 2,51,52
 189 492 189 492 195 495 c 128,-1,53
 201 498 201 498 215 498 c 2,54,-1
 230 497 l 1,55,56
 238 491 238 491 244 480 c 1,57,-1
 244 444 l 2,58,59
 244 415 244 415 242.5 387 c 128,-1,60
 241 359 241 359 240 330 c 1,61,-1
 358 407 l 2,62,63
 372 415 372 415 378.5 412 c 128,-1,64
 385 409 385 409 390 402.5 c 128,-1,65
 395 396 395 396 397.5 391.5 c 128,-1,66
 400 387 400 387 401 386 c 0,67,68
 403 374 403 374 398 368.5 c 0,69,70
 379.8 348.48 379.8 348.48 349 330 c 1,71,-1
 387 336 l 1,72,73
 395 334 395 334 401.5 333 c 128,-1,74
 408 332 408 332 416 328 c 128,-1,75
 424 324 424 324 424 305 c 2,76,-1
 424 302 l 1,77,78
 412.0625 290.0625 412.0625 290.0625 384.371456186 283.46939433 c 128,-1,79
 356.680412371 276.87628866 356.680412371 276.87628866 344 268 c 1,80,-1
 274 251 l 1,81,-1
 371 164 l 1,82,83
 377 150 377 150 381 139 c 128,-1,84
 385 128 385 128 369 115 c 1,85,-1
 361.5 115 l 2,86,87
 348.571428571 115 348.571428571 115 328 133 c 128,-1,88
 307.377777778 151.044444444 307.377777778 151.044444444 291 157 c 1,89,-1
 240 196 l 1,0,1
EndSplineSet
EndChar

StartChar: plus
Encoding: 43 43 14
Width: 437
Flags: HW
LayerCount: 2
Fore
SplineSet
244 444 m 1,0,-1
 240 310 l 1,1,-1
 244 310 l 1,2,-1
 387 336 l 1,3,4
 395 334 395 334 401.5 333 c 128,-1,5
 408 332 408 332 416 328 c 0,6,7
 424 324 424 324 424 305 c 2,8,-1
 424 302 l 1,9,10
 412.0625 290.0625 412.0625 290.0625 384.371456186 283.46939433 c 0,11,12
 356.680412371 276.87628866 356.680412371 276.87628866 344 268 c 1,13,-1
 244 244 l 2,14,15
 239 242 239 242 239 238.5 c 2,16,-1
 239 231 l 2,17,18
 239 205 239 205 243.5 178.5 c 128,-1,19
 248 152 248 152 248 129 c 128,-1,20
 248 106 248 106 235 94.5 c 128,-1,21
 222 83 222 83 204 83 c 2,22,-1
 201 83 l 1,23,-1
 179 104 l 1,24,25
 180.353005231 123.618575851 180.353005231 123.618575851 180.353005231 155.856965944 c 0,26,27
 180.353005231 188.095356037 180.353005231 188.095356037 171 222 c 1,28,-1
 167 222 l 2,29,30
 138 222 138 222 108.5 211.5 c 128,-1,31
 79 201 79 201 48 201 c 0,32,33
 14 201 14 201 14 236 c 0,34,35
 14 245 14 245 17.5 252 c 128,-1,36
 21 259 21 259 18 268 c 1,37,38
 34 272 34 272 44 272 c 2,39,-1
 78 272 l 1,40,41
 131.333333333 282.666666667 131.333333333 282.666666667 151.166666667 288.333333333 c 2,42,-1
 171 294 l 1,43,-1
 187 475 l 2,44,45
 189 492 189 492 195 495 c 128,-1,46
 201 498 201 498 215 498 c 2,47,-1
 230 497 l 1,48,49
 238 491 238 491 244 480 c 1,50,-1
 244 444 l 1,0,-1
145 298 m 1,51,-1
 145 294 l 1,52,-1
 137 294 l 1,53,-1
 137 298 l 1,54,-1
 145 298 l 1,51,-1
EndSplineSet
EndChar

StartChar: comma
Encoding: 44 44 15
Width: 133
Flags: HW
LayerCount: 2
Fore
SplineSet
67 150 m 0,0,1
 109 150 109 150 109 113 c 2,2,-1
 109 105 l 2,3,4
 109 100 109 100 108 96.5 c 128,-1,5
 107 93 107 93 104.5 78.5 c 128,-1,6
 102 64 102 64 99 48 c 128,-1,7
 96 32 96 32 94 17.5 c 128,-1,8
 92 3 92 3 91 -2 c 1,9,10
 84 -11 84 -11 82.5 -25 c 128,-1,11
 81 -39 81 -39 79 -51.5 c 128,-1,12
 77 -64 77 -64 71 -73.5 c 128,-1,13
 65 -83 65 -83 52 -83 c 0,14,15
 32.8125 -83 32.8125 -83 25.40625 -66.0714285714 c 128,-1,16
 18 -49.1428571429 18 -49.1428571429 18 -31 c 2,17,-1
 18 -10 l 1,18,19
 19 -6 19 -6 21.5 10.5 c 128,-1,20
 24 27 24 27 27 46.5 c 128,-1,21
 30 66 30 66 33 82.5 c 128,-1,22
 36 99 36 99 36.5 104.5 c 0,23,24
 38.4230769231 125.653846154 38.4230769231 125.653846154 42 134 c 0,25,26
 48.8571428571 150 48.8571428571 150 67 150 c 0,0,1
EndSplineSet
EndChar

StartChar: hyphen
Encoding: 45 45 16
Width: 409
Flags: HW
LayerCount: 2
Fore
SplineSet
343 313 m 1,0,1
 390 313 390 313 390 281 c 0,2,3
 390 272.125 390 272.125 370.94603427 260.216271418 c 0,4,5
 351.892068539 248.307542837 351.892068539 248.307542837 346.138491433 248.307542837 c 0,6,7
 340.384914326 248.307542837 340.384914326 248.307542837 339 249 c 2,8,-1
 92 222 l 1,9,10
 79 222 79 222 66.5 230.5 c 128,-1,11
 54 239 54 239 54 254.5 c 0,12,13
 54 279.857142857 54 279.857142857 92 288 c 1,14,-1
 343 313 l 1,0,1
EndSplineSet
EndChar

StartChar: period
Encoding: 46 46 17
Width: 129
Flags: HW
LayerCount: 2
Fore
SplineSet
22 38 m 256,0,1
 22 52 22 52 32.5 64 c 128,-1,2
 43 76 43 76 58.5 76 c 0,3,4
 74 76 74 76 84.5 67 c 128,-1,5
 95 58 95 58 105 47 c 1,6,-1
 105 44 l 2,7,8
 105 27 105 27 93.5 13.5 c 128,-1,9
 82 0 82 0 66 0 c 0,10,11
 50 0 50 0 36 12 c 128,-1,12
 22 24 22 24 22 38 c 256,0,1
EndSplineSet
EndChar

StartChar: slash
Encoding: 47 47 18
Width: 266
Flags: HW
LayerCount: 2
Fore
SplineSet
20 -29 m 1,0,1
 24.921875 18.25 24.921875 18.25 50 152 c 1,2,-1
 50 160 l 1,3,-1
 193 899 l 2,4,5
 196 916 196 916 204 922.5 c 128,-1,6
 212 929 212 929 229 929 c 2,7,-1
 231 929 l 1,8,9
 250 919 250 919 255.5 912.5 c 128,-1,10
 261 906 261 906 261 890 c 128,-1,11
 261 874 261 874 258 861 c 128,-1,12
 255 848 255 848 253.5 840.5 c 128,-1,13
 252 833 252 833 249.5 822 c 128,-1,14
 247 811 247 811 244 798 c 128,-1,15
 241 785 241 785 238.5 774 c 128,-1,16
 236 763 236 763 235 760 c 1,17,-1
 235 756 l 1,18,-1
 122 190 l 1,19,20
 113 133 113 133 102.5 76.5 c 128,-1,21
 92 20 92 20 84 -37 c 1,22,23
 78.25 -60 78.25 -60 51 -60 c 256,24,25
 40 -60 40 -60 30 -52.5 c 128,-1,26
 20 -45 20 -45 20 -32 c 2,27,-1
 20 -29 l 1,0,1
EndSplineSet
EndChar

StartChar: zero
Encoding: 48 48 19
Width: 336
Flags: HW
LayerCount: 2
Fore
SplineSet
33 299.5 m 128,-1,1
 40 360 40 360 43.5 393 c 128,-1,2
 47 426 47 426 52.5 431.5 c 128,-1,3
 58 437 58 437 63 447 c 0,4,5
 78 483 78 483 112 507.5 c 128,-1,6
 146 532 146 532 176.5 532 c 0,7,8
 225.476190476 532 225.476190476 532 248 510.5 c 0,9,10
 259.666666667 499.363636364 259.666666667 499.363636364 288 453 c 1,11,12
 313 396.75 313 396.75 313 274 c 1,13,14
 301.263261297 80.3438113949 301.263261297 80.3438113949 203 22 c 0,15,16
 167.25 0 167.25 0 138.125 0 c 128,-1,17
 109 0 109 0 86.5 17.5 c 128,-1,18
 64 35 64 35 50.5 62 c 0,19,20
 26 111 26 111 26 175 c 128,-1,0
 26 239 26 239 33 299.5 c 128,-1,1
100 184 m 1,21,-1
 101 150 l 1,22,-1
 101 139 l 1,23,24
 110.571428571 72 110.571428571 72 141 72 c 0,25,26
 154 72 154 72 174.5 88 c 0,27,28
 246 143.804878049 246 143.804878049 246 318 c 2,29,-1
 246 331 l 1,30,-1
 245 368 l 1,31,-1
 245 380 l 1,32,33
 239.224669604 443.528634361 239.224669604 443.528634361 210.5 476 c 0,34,35
 199 489 199 489 186.5 489 c 0,36,37
 164.4375 489 164.4375 489 139.21875 469.785714286 c 128,-1,38
 114 450.571428571 114 450.571428571 114 431 c 0,39,40
 114 423 114 423 118.5 418 c 128,-1,41
 123 413 123 413 123 403 c 2,42,-1
 123 392 l 1,43,44
 122 389 122 389 119.5 374.5 c 128,-1,45
 117 360 117 360 114 344 c 128,-1,46
 111 328 111 328 108.5 313.5 c 128,-1,47
 106 299 106 299 103 282.2 c 128,-1,48
 100 265.4 100 265.4 100 228.7 c 2,49,-1
 100 184 l 1,21,-1
EndSplineSet
EndChar

StartChar: one
Encoding: 49 49 20
Width: 141
Flags: HW
LayerCount: 2
Fore
SplineSet
43.5 534.5 m 0,0,1
 41.5141795637 592.088792654 41.5141795637 592.088792654 80.2728448526 592.088792654 c 0,2,3
 107.970402449 592.088792654 107.970402449 592.088792654 121 553 c 1,4,5
 111 452 111 452 102.5 351.5 c 128,-1,6
 94 251 94 251 94 148 c 1,7,-1
 99 52 l 1,8,9
 99 -1 99 -1 68 -1 c 0,10,11
 40 -1 40 -1 27 38 c 1,12,13
 25 61 25 61 24.5 81 c 128,-1,14
 24 101 24 101 23.5 120.5 c 128,-1,15
 23 140 23 140 23 159.5 c 2,16,-1
 23 202 l 2,17,18
 23 280 23 280 31.5 356.5 c 0,19,20
 43.6 465.4 43.6 465.4 43.6 498.5 c 128,-1,21
 43.6 531.6 43.6 531.6 43.5 534.5 c 0,0,1
EndSplineSet
EndChar

StartChar: two
Encoding: 50 50 21
Width: 477
Flags: HW
LayerCount: 2
Fore
SplineSet
230 127 m 1,0,1
 302.522522523 168.441441441 302.522522523 168.441441441 416 195 c 1,2,-1
 420 195 l 2,3,4
 438 195 438 195 450 189 c 128,-1,5
 462 183 462 183 462 164.5 c 128,-1,6
 462 146 462 146 454 135 c 1,7,8
 446 133 446 133 433.5 129 c 128,-1,9
 421 125 421 125 412 127 c 1,10,-1
 314 92 l 1,11,-1
 154 8 l 2,12,13
 138 0 138 0 123 0 c 128,-1,14
 108 0 108 0 95 11.5 c 128,-1,15
 82 23 82 23 82 34.5 c 128,-1,16
 82 46 82 46 83.5 50 c 128,-1,17
 85 54 85 54 101.5 79.5 c 2,18,-1
 145.5 147.5 l 2,19,20
 246 302.818181818 246 302.818181818 246 424 c 1,21,22
 216 424 216 424 193 406 c 128,-1,23
 170 388 170 388 149 366 c 128,-1,24
 128 344 128 344 108 326 c 128,-1,25
 88 308 88 308 61.8461538462 308 c 128,-1,26
 35.6923076923 308 35.6923076923 308 23 324.5 c 0,27,28
 18 331 18 331 18 340 c 2,29,-1
 18 342 l 1,30,31
 31.9266055046 372.174311927 31.9266055046 372.174311927 85 413 c 0,32,33
 98 423 98 423 110 433 c 0,34,35
 198.8 507 198.8 507 259.217391304 507 c 0,36,37
 296 507 296 507 310 484.5 c 128,-1,38
 324 462 324 462 324 427 c 0,39,40
 324 314.15625 324 314.15625 247 177 c 1,41,-1
 247 173 l 1,42,-1
 221 127 l 1,43,-1
 230 127 l 1,0,1
EndSplineSet
EndChar

StartChar: three
Encoding: 51 51 22
Width: 399
Flags: HW
LayerCount: 2
Fore
SplineSet
374 262 m 1,0,-1
 375 222 l 1,1,2
 375 155 375 155 347 107.5 c 128,-1,3
 319 60 319 60 264 22 c 1,4,5
 236 0 236 0 211.5 0 c 128,-1,6
 187 0 187 0 174.5 11.5 c 128,-1,7
 162 23 162 23 162 35 c 128,-1,8
 162 47 162 47 163.5 52.5 c 128,-1,9
 165 58 165 58 170.5 61 c 128,-1,10
 176 64 176 64 180 64.5 c 128,-1,11
 184 65 184 65 190.75 66.5 c 128,-1,12
 197.5 68 197.5 68 202.25 68.5 c 128,-1,13
 207 69 207 69 214.5 73.5 c 128,-1,14
 222 78 222 78 229.5 83.5 c 128,-1,15
 237 89 237 89 243 94 c 128,-1,16
 249 99 249 99 252 101 c 0,17,18
 281 126 281 126 291.5 156 c 128,-1,19
 302 186 302 186 302 207 c 2,20,-1
 302 237 l 2,21,22
 302 276.5 302 276.5 289 283 c 0,23,24
 287 284 287 284 279.5 284 c 2,25,-1
 270 284 l 2,26,27
 238.217391304 284 238.217391304 284 186.5 253.5 c 128,-1,28
 134.782608696 223 134.782608696 223 110.391304348 223 c 128,-1,29
 86 223 86 223 77 233.5 c 128,-1,30
 68 244 68 244 68 259.5 c 128,-1,31
 68 275 68 275 87 302 c 128,-1,32
 106 329 106 329 130 359 c 128,-1,33
 154 389 154 389 177 418.5 c 128,-1,34
 200 448 200 448 209 469 c 1,35,-1
 201 469 l 2,36,37
 169.363636364 469 169.363636364 469 123 439 c 0,38,39
 106 428 106 428 89.5 418.5 c 128,-1,40
 73 409 73 409 57.5 409 c 0,41,42
 14 409 14 409 14 439 c 0,43,44
 14 477.915254237 14 477.915254237 116.022727273 515.957627119 c 128,-1,45
 218.045454545 554 218.045454545 554 269 554 c 0,46,47
 306 554 306 554 306 515 c 2,48,-1
 306 502 l 1,49,50
 289 457 289 457 265 421.5 c 128,-1,51
 241 386 241 386 217 346 c 1,52,-1
 227 346 l 1,53,-1
 278 350 l 1,54,55
 318 350 318 350 341 324.5 c 128,-1,56
 364 299 364 299 374 262 c 1,0,-1
EndSplineSet
EndChar

StartChar: four
Encoding: 52 52 23
Width: 410
Flags: HW
LayerCount: 2
Fore
SplineSet
215 245 m 1,0,-1
 211 245 l 2,1,2
 181.8 245 181.8 245 128.5 232 c 128,-1,3
 75.2 219 75.2 219 46 219 c 2,4,-1
 42 219 l 1,5,6
 11.740644156 241.00680425 11.740644156 241.00680425 11.740644156 262.101847549 c 0,7,8
 11.740644156 270.950536797 11.740644156 270.950536797 21.370322078 278.975268398 c 128,-1,9
 31 287 31 287 33 290.5 c 128,-1,10
 35 294 35 294 40 302.5 c 128,-1,11
 45 311 45 311 54.7777777778 328.777777778 c 128,-1,12
 64.5555555556 346.555555556 64.5555555556 346.555555556 68 350 c 1,13,14
 68 354 68 354 72 354 c 1,15,-1
 165 515 l 2,16,17
 165 516 165 516 166.5 517 c 128,-1,18
 168 518 168 518 170 520.5 c 128,-1,19
 172 523 172 523 179 532 c 128,-1,20
 186 541 186 541 198 556 c 128,-1,21
 210 571 210 571 217 580.5 c 128,-1,22
 224 590 224 590 230 591 c 128,-1,23
 236 592 236 592 243.5 592 c 0,24,25
 260 592 260 592 275.5 583.142857143 c 128,-1,26
 291 574.285714286 291 574.285714286 291 557 c 2,27,-1
 291 345 l 1,28,29
 309 345 309 345 323.5 354.5 c 128,-1,30
 338 364 338 364 357 364 c 0,31,32
 392 364 392 364 392 327 c 0,33,34
 392 304.875 392 304.875 379 300 c 2,35,-1
 291 266 l 1,36,-1
 291 263 l 2,37,38
 291 207 291 207 301.5 152 c 128,-1,39
 312 97 312 97 312 43 c 0,40,41
 312 27 312 27 304 13.5 c 128,-1,42
 296 0 296 0 279.833333333 0 c 128,-1,43
 263.666666667 0 263.666666667 0 257.833333333 4 c 128,-1,44
 252 8 252 8 244 16 c 128,-1,45
 236 24 236 24 236 26 c 2,46,-1
 236 34 l 1,47,-1
 215 245 l 1,0,-1
130 300 m 1,48,49
 134 300 134 300 143.5 302 c 128,-1,50
 153 304 153 304 164 306 c 128,-1,51
 175 308 175 308 184.5 309.5 c 128,-1,52
 194 311 194 311 201.5 313.5 c 128,-1,53
 209 316 209 316 212 317 c 128,-1,54
 215 318 215 318 215 322 c 2,55,-1
 215 447 l 1,56,-1
 211 453 l 1,57,-1
 130 308 l 1,58,-1
 130 300 l 1,48,49
EndSplineSet
EndChar

StartChar: five
Encoding: 53 53 24
Width: 427
Flags: HW
LayerCount: 2
Fore
SplineSet
23 191 m 1,0,-1
 27.8 251.44 l 2,1,2
 27.8 258.8 27.8 258.8 27 266 c 1,3,-1
 52 422 l 1,4,5
 59 435 59 435 60.5 447 c 128,-1,6
 62 459 62 459 64.5 468.5 c 0,7,8
 69.8947368421 489 69.8947368421 489 101 489 c 0,9,10
 116 489 116 489 123.5 483 c 128,-1,11
 131 477 131 477 141 465 c 1,12,-1
 147 465 l 2,13,14
 166 465 166 465 181.857142857 469.285714286 c 128,-1,15
 197.714285714 473.571428571 197.714285714 473.571428571 206.785714286 473.571428571 c 128,-1,16
 215.857142857 473.571428571 215.857142857 473.571428571 221 473 c 1,17,-1
 356 498 l 2,18,19
 357 499 357 499 362.5 499 c 2,20,-1
 370 499 l 2,21,22
 408 499 408 499 408 462 c 0,23,24
 408 436 408 436 382 431 c 2,25,-1
 260 406 l 1,26,-1
 251 406 l 1,27,28
 219 401 219 401 190.5 397 c 128,-1,29
 162 393 162 393 143.5 387.032258065 c 128,-1,30
 125 381.064516129 125 381.064516129 125 380 c 2,31,-1
 103 253 l 1,32,-1
 103 237 l 1,33,34
 182.009615385 287.478365385 182.009615385 287.478365385 257 296 c 1,35,36
 305.684210526 296 305.684210526 296 328 269.5 c 0,37,38
 336 260 336 260 336 242.5 c 0,39,40
 336 209.904761905 336 209.904761905 317.534883721 177.370985604 c 128,-1,41
 299.069767442 144.837209302 299.069767442 144.837209302 264 101 c 0,42,43
 259 96 259 96 248 83.5 c 128,-1,44
 237 71 237 71 224 57 c 128,-1,45
 211 43 211 43 199.5 30 c 128,-1,46
 188 17 188 17 183 12 c 1,47,48
 163 0 163 0 149.5 0 c 128,-1,49
 136 0 136 0 125.5 11 c 128,-1,50
 115 22 115 22 115 33.5 c 128,-1,51
 115 45 115 45 119.5 53 c 128,-1,52
 124 61 124 61 130.5 67.5 c 128,-1,53
 137 74 137 74 144.5 80 c 128,-1,54
 152 86 152 86 157 91.5 c 128,-1,55
 162 97 162 97 171 108 c 128,-1,56
 180 119 180 119 189.5 130.5 c 0,57,58
 243.89119171 196.341968912 243.89119171 196.341968912 251 223 c 1,59,-1
 243 224 l 1,60,61
 217.6 224 217.6 224 170 190 c 1,62,-1
 166 190 l 1,63,64
 153 181 153 181 125.727272727 158.922077922 c 128,-1,65
 98.4545454545 136.844155844 98.4545454545 136.844155844 88.2272727273 133.922077922 c 128,-1,66
 78 131 78 131 60 131 c 0,67,68
 23 131 23 131 23 191 c 1,0,-1
EndSplineSet
EndChar

StartChar: six
Encoding: 54 54 25
Width: 326
Flags: HW
LayerCount: 2
Fore
SplineSet
271.5 270 m 0,0,1
 314 270 314 270 314 204.5 c 0,2,3
 314 142.292682927 314 142.292682927 270.030785563 84.3820102532 c 128,-1,4
 226.061571125 26.4713375796 226.061571125 26.4713375796 162 9 c 1,5,6
 159 -2 159 -2 151.5 -17.5 c 128,-1,7
 144 -33 144 -33 144 -44 c 1,8,-1
 149 -79 l 1,9,10
 149 -96 149 -96 138 -107 c 128,-1,11
 127 -118 127 -118 112 -118 c 0,12,13
 69 -118 69 -118 69 -59.5 c 0,14,15
 69 -37 69 -37 75.5 -17.5 c 128,-1,16
 82 2 82 2 82 15.5 c 128,-1,17
 82 29 82 29 78 34.5 c 128,-1,18
 74 40 74 40 68 45.5 c 0,19,20
 37.8533604888 73.1344195519 37.8533604888 73.1344195519 30.4266802444 107.567209776 c 128,-1,21
 23 142 23 142 23 168 c 2,22,-1
 23 174 l 1,23,24
 69.3977900552 410.872928177 69.3977900552 410.872928177 87.4047773806 468.495287618 c 128,-1,25
 105.411764706 526.117647059 105.411764706 526.117647059 114.705882353 540.058823529 c 0,26,27
 132 566 132 566 156 566 c 0,28,29
 169 566 169 566 178 555 c 128,-1,30
 187 544 187 544 187 530 c 1,31,32
 192 540 192 540 188 528 c 128,-1,33
 184 516 184 516 175.5 488 c 128,-1,34
 167 460 167 460 155 420.5 c 0,35,36
 105.822281167 258.623342175 105.822281167 258.623342175 101 167 c 1,37,-1
 102 127 l 1,38,39
 104 121 104 121 106.5 113 c 128,-1,40
 109 105 109 105 115 101 c 1,41,42
 117 105 117 105 122.5 114.5 c 128,-1,43
 128 124 128 124 134 135 c 0,44,45
 180.697674419 220.612403101 180.697674419 220.612403101 240 258.5 c 0,46,47
 258 270 258 270 271.5 270 c 0,0,1
239.878698225 165.923076923 m 0,48,49
 236.846153846 165.923076923 236.846153846 165.923076923 229.923076923 162.461538462 c 128,-1,50
 223 159 223 159 211 132 c 1,51,52
 193.190795919 109.44167483 193.190795919 109.44167483 193.190795919 99.9007446147 c 0,53,54
 193.190795919 92.8786310821 193.190795919 92.8786310821 202.918594522 92.8786310821 c 128,-1,55
 212.646393125 92.8786310821 212.646393125 92.8786310821 228.823196563 106.939315541 c 0,56,57
 250.03125 125.373102446 250.03125 125.373102446 250.03125 145.648089685 c 128,-1,58
 250.03125 165.923076923 250.03125 165.923076923 239.878698225 165.923076923 c 0,48,49
EndSplineSet
EndChar

StartChar: seven
Encoding: 55 55 26
Width: 362
Flags: HW
LayerCount: 2
Fore
SplineSet
38 473 m 1,0,1
 8.15242018538 489.280498081 8.15242018538 489.280498081 8.15242018538 513.864114416 c 0,2,3
 8.15242018538 545.676828012 8.15242018538 545.676828012 73 550 c 0,4,5
 149.451612903 555.096774194 149.451612903 555.096774194 287 608 c 1,6,-1
 293 608 l 2,7,8
 310 608 310 608 324 597 c 128,-1,9
 338 586 338 586 338 568 c 2,10,-1
 338 557 l 1,11,-1
 287 279 l 2,12,13
 286 275 286 275 285 261 c 128,-1,14
 284 247 284 247 281.5 218.666666667 c 128,-1,15
 279 190.333333333 279 190.333333333 279 173 c 258,16,-1
 278 99.5 l 1,17,-1
 279 26 l 1,18,19
 271 9 271 9 263.5 4.5 c 128,-1,20
 256 0 256 0 237 0 c 0,21,22
 199 0 199 0 199 56 c 1,23,-1
 203.285714286 173.367346939 l 2,24,25
 203.285714286 184.142857143 203.285714286 184.142857143 203 195 c 1,26,-1
 245 489 l 1,27,-1
 245 501 l 2,28,29
 245 503 245 503 245.5 508.5 c 128,-1,30
 246 514 246 514 241 515 c 1,31,32
 201 502 201 502 152 487.5 c 128,-1,33
 103 473 103 473 59 473 c 2,34,-1
 38 473 l 1,0,1
EndSplineSet
EndChar

StartChar: eight
Encoding: 56 56 27
Width: 330
Flags: HW
LayerCount: 2
Fore
SplineSet
106.5 181 m 128,-1,1
 117 215 117 215 131 253 c 1,2,-1
 131 266 l 1,3,4
 46 334 46 334 22 388 c 1,5,6
 20 390 20 390 19 399 c 128,-1,7
 18 408 18 408 17 410 c 1,8,-1
 17 412 l 2,9,10
 17 466.84 17 466.84 73.3409090909 516.42 c 128,-1,11
 129.681818182 566 129.681818182 566 182 566 c 1,12,13
 236.642032333 557.593533487 236.642032333 557.593533487 262 518.5 c 0,14,15
 276.562466042 496.049531519 276.562466042 496.049531519 276.562466042 474.087231801 c 128,-1,16
 276.562466042 452.124932084 276.562466042 452.124932084 266 431 c 1,17,18
 251.142857143 379 251.142857143 379 233.775747508 337.488372093 c 128,-1,19
 216.408637874 295.976744186 216.408637874 295.976744186 215.704318937 295.976744186 c 128,-1,20
 215 295.976744186 215 295.976744186 215 289 c 2,21,-1
 215 283 l 1,22,23
 230 264 230 264 246 245.5 c 0,24,25
 305 177.28125 305 177.28125 305 125.831801471 c 128,-1,26
 305 74.3823529412 305 74.3823529412 266.681818182 37.1911764706 c 128,-1,27
 228.363636364 1.06581410364e-14 228.363636364 1.06581410364e-14 185.009404389 5.3290705182e-15 c 128,-1,28
 141.655172414 0 141.655172414 0 118.827586207 30.0909090909 c 128,-1,29
 96 60.1818181818 96 60.1818181818 96 103.590909091 c 128,-1,0
 96 147 96 147 106.5 181 c 128,-1,1
159 132 m 0,30,31
 157 117 157 117 157 104.5 c 128,-1,32
 157 92 157 92 159.5 77.5 c 128,-1,33
 162 63 162 63 177 63 c 0,34,35
 202.95 63 202.95 63 220.614131917 83.7813316669 c 128,-1,36
 238.278263834 104.562663334 238.278263834 104.562663334 238.278263834 115.437847972 c 128,-1,37
 238.278263834 126.31303261 238.278263834 126.31303261 236.00276828 134.383789032 c 128,-1,38
 233.727272727 142.454545455 233.727272727 142.454545455 215.019886364 173.633522727 c 128,-1,39
 196.3125 204.8125 196.3125 204.8125 186 211 c 1,40,41
 167.8 198 167.8 198 159 132 c 0,30,31
211 489 m 1,42,43
 201 494 201 494 186.5 494 c 0,44,45
 155.2 494 155.2 494 135.933333333 483.296296296 c 128,-1,46
 116.666666667 472.592592593 116.666666667 472.592592593 92.5 435 c 0,47,48
 88 428 88 428 88 420 c 256,49,50
 88 406.307692308 88 406.307692308 120.413793103 370.153846154 c 128,-1,51
 152.827586207 334 152.827586207 334 163 334 c 2,52,-1
 165 334 l 1,53,54
 182 363 182 363 196.5 404.5 c 128,-1,55
 211 446 211 446 211 481 c 2,56,-1
 211 489 l 1,42,43
EndSplineSet
EndChar

StartChar: nine
Encoding: 57 57 28
Width: 322
Flags: HW
LayerCount: 2
Fore
SplineSet
185 92 m 1,0,-1
 189 157 l 2,1,2
 194 236 194 236 200.5 315.5 c 128,-1,3
 207 395 207 395 207 475 c 2,4,-1
 207 494 l 1,5,6
 192 482 192 482 180 465.5 c 128,-1,7
 168 449 168 449 155 433 c 0,8,9
 121.369362341 391.608445958 121.369362341 391.608445958 84.5777489935 391.608445958 c 128,-1,10
 47.7861356458 391.608445958 47.7861356458 391.608445958 29.1299099282 417.138017993 c 128,-1,11
 10.4736842105 442.667590028 10.4736842105 442.667590028 10.4736842105 476.623268698 c 128,-1,12
 10.4736842105 510.578947368 10.4736842105 510.578947368 19.2368421053 539.789473684 c 128,-1,13
 28 569 28 569 44.5 598 c 0,14,15
 81.1161103048 662.355587808 81.1161103048 662.355587808 130.5 688.5 c 0,16,17
 157.413191324 702.748160113 157.413191324 702.748160113 184.892161895 702.748160113 c 128,-1,18
 212.371132465 702.748160113 212.371132465 702.748160113 240 684 c 1,19,20
 249 676 249 676 252 663 c 128,-1,21
 255 650 255 650 257 642 c 1,22,23
 268 638 268 638 281.5 628 c 128,-1,24
 295 618 295 618 295 604 c 0,25,26
 295 530 295 530 287 456.5 c 128,-1,27
 279 383 279 383 274 310 c 128,-1,28
 269 237 269 237 266.5 167 c 128,-1,29
 264 97 264 97 257 26 c 1,30,31
 250 12 250 12 242 6 c 128,-1,32
 234 0 234 0 217 0 c 256,33,34
 200 0 200 0 187.5 13.5 c 128,-1,35
 175 27 175 27 177 43 c 2,36,-1
 185 92 l 1,0,-1
183 646 m 0,37,38
 145.368421053 646 145.368421053 646 113.684210526 579.111111111 c 128,-1,39
 82 512.222222222 82 512.222222222 82 473 c 1,40,-1
 88 473 l 1,41,-1
 114 498 l 1,42,-1
 195 612 l 1,43,-1
 195 617 l 2,44,45
 195 622 195 622 191.5 634 c 128,-1,46
 188 646 188 646 183 646 c 0,37,38
EndSplineSet
EndChar

StartChar: colon
Encoding: 58 58 29
Width: 135
Flags: HW
LayerCount: 2
Fore
SplineSet
37.5 123.5 m 128,-1,1
 22 134 22 134 22 151 c 128,-1,2
 22 168 22 168 30.5 181.5 c 128,-1,3
 39 195 39 195 50.5 195 c 0,4,5
 72.7142857143 195 72.7142857143 195 91.434414496 180.439899836 c 128,-1,6
 110.154543278 165.879799673 110.154543278 165.879799673 110.154543278 148.10283623 c 128,-1,7
 110.154543278 130.325872786 110.154543278 130.325872786 96.0772716389 121.662936393 c 128,-1,8
 82 113 82 113 67.5 113 c 128,-1,0
 53 113 53 113 37.5 123.5 c 128,-1,1
75 325 m 128,-1,10
 62 325 62 325 43.9 333.517647059 c 128,-1,11
 25.8 342.035294118 25.8 342.035294118 25.8 360.467647059 c 128,-1,12
 25.8 378.9 25.8 378.9 42.9 387.45 c 128,-1,13
 60 396 60 396 70 396 c 0,14,15
 83.3846153846 396 83.3846153846 396 96.6923076923 380.272727273 c 128,-1,16
 110 364.545454545 110 364.545454545 110.470588235 359.625668449 c 128,-1,17
 110.941176471 354.705882353 110.941176471 354.705882353 110.941176471 348.235294118 c 128,-1,18
 110.941176471 341.764705882 110.941176471 341.764705882 99.4705882353 333.382352941 c 128,-1,9
 88 325 88 325 75 325 c 128,-1,10
EndSplineSet
EndChar

StartChar: semicolon
Encoding: 59 59 30
Width: 135
Flags: HW
LayerCount: 2
Fore
SplineSet
44 99 m 1,0,-1
 51 100 l 1,1,2
 76 100 76 100 88 84.5 c 128,-1,3
 100 69 100 69 100 45.5 c 128,-1,4
 100 22 100 22 96.5 3.5 c 128,-1,5
 93 -15 93 -15 89.25 -36.75 c 128,-1,6
 85.5 -58.5 85.5 -58.5 79 -91 c 1,7,-1
 74 -99 l 1,8,-1
 48 -213 l 2,9,10
 46 -223 46 -223 38.5 -228.735294118 c 128,-1,11
 31 -234.470588235 31 -234.470588235 25.7941176471 -234.470588235 c 0,12,13
 -19 -234.470588235 -19 -234.470588235 -19 -190 c 1,14,-1
 -18 -179 l 1,15,-1
 26 18 l 1,16,-1
 26 83 l 2,17,18
 26 84 26 84 33 90.5 c 128,-1,19
 40 97 40 97 44 99 c 1,0,-1
113 226 m 1,20,21
 108.25 216.5 108.25 216.5 91 205 c 1,22,-1
 87 205 l 2,23,24
 69 205 69 205 52 213 c 128,-1,25
 35 221 35 221 35 242.166666667 c 128,-1,26
 35 263.333333333 35 263.333333333 55 280 c 0,27,28
 61 285 61 285 68 285 c 256,29,30
 81.7142857143 285 81.7142857143 285 97.3571428571 268.153846154 c 128,-1,31
 113 251.307692308 113 251.307692308 113 239 c 2,32,-1
 113 226 l 1,20,21
EndSplineSet
EndChar

StartChar: less
Encoding: 60 60 31
Width: 453
Flags: HW
LayerCount: 2
Fore
SplineSet
86 115 m 2,0,1
 13 115 13 115 13 160 c 0,2,3
 13 175 13 175 21.5 183.5 c 128,-1,4
 30 192 30 192 36 199.5 c 128,-1,5
 42 207 42 207 50.5 218 c 128,-1,6
 59 229 59 229 68.5 241 c 128,-1,7
 78 253 78 253 86.5 263.5 c 128,-1,8
 95 274 95 274 98 279 c 1,9,10
 101 289 101 289 108.5 295.5 c 128,-1,11
 116 302 116 302 120 312 c 1,12,-1
 225 477 l 2,13,14
 231 486 231 486 234.5 497.5 c 128,-1,15
 238 509 238 509 242.5 519 c 0,16,17
 252.85 542 252.85 542 275 542 c 128,-1,18
 297 542 297 542 310.5 526 c 128,-1,19
 324 510 324 510 326 490 c 1,20,21
 329 484 329 484 322 477 c 1,22,-1
 196 279 l 1,23,24
 191 268 191 268 181 256.5 c 128,-1,25
 171 245 171 245 153.5 224.875 c 128,-1,26
 136 204.75 136 204.75 136 187 c 1,27,28
 260 187 260 187 390 173 c 1,29,30
 393 167 393 167 399.5 163.5 c 128,-1,31
 406 160 406 160 416.5 153.875 c 128,-1,32
 427 147.75 427 147.75 427 133 c 0,33,34
 427 93 427 93 386 93 c 0,35,36
 372 93 372 93 363.5 98 c 128,-1,37
 355 103 355 103 315 111 c 128,-1,38
 275 119 275 119 190 119 c 1,39,-1
 116 115 l 1,40,-1
 86 115 l 2,0,1
EndSplineSet
EndChar

StartChar: equal
Encoding: 61 61 32
Width: 420
Flags: HW
LayerCount: 2
Fore
SplineSet
63 170 m 1,0,1
 95.0694143167 203.596529284 95.0694143167 203.596529284 169.5 228 c 0,2,3
 200 238 200 238 231.5 247 c 128,-1,4
 263 256 263 256 292 270 c 1,5,6
 329.714285714 282 329.714285714 282 348.357142857 282 c 0,7,8
 397.666666667 282 397.666666667 282 401 257 c 1,9,10
 395.333333333 234.333333333 395.333333333 234.333333333 389 228 c 256,11,12
 382 221 382 221 368 214 c 1,13,14
 325.590361446 207.373493976 325.590361446 207.373493976 267.795180723 181.686746988 c 128,-1,15
 210 156 210 156 178.5 144.5 c 128,-1,16
 147 133 147 133 115 130 c 1,17,18
 98 130 98 130 80.5 140.5 c 128,-1,19
 63 151 63 151 63 170 c 1,0,1
25 274.5 m 0,20,21
 16.32 282.56 16.32 282.56 16.32 296.23 c 128,-1,22
 16.32 309.9 16.32 309.9 26.66 316.95 c 128,-1,23
 37 324 37 324 55 330 c 0,24,25
 114.25 349.75 114.25 349.75 350 401 c 1,26,-1
 355 401 l 2,27,28
 370 401 370 401 379.5 391.5 c 128,-1,29
 389 382 389 382 389 373.5 c 128,-1,30
 389 365 389 365 382 353.5 c 128,-1,31
 375 342 375 342 364 337 c 0,32,33
 292 311 292 311 221.5 295.5 c 128,-1,34
 151 280 151 280 79 256 c 1,35,36
 44.9230769231 256 44.9230769231 256 25 274.5 c 0,20,21
EndSplineSet
EndChar

StartChar: greater
Encoding: 62 62 33
Width: 431
Flags: HW
LayerCount: 2
Fore
SplineSet
132.586206897 74.8965517241 m 0,0,1
 106 89.6666666667 106 89.6666666667 106 107.5 c 0,2,3
 106 121.692307692 106 121.692307692 120.545454545 135.118881119 c 128,-1,4
 135.090909091 148.545454545 135.090909091 148.545454545 148 155 c 1,5,-1
 308 379 l 2,6,7
 312 385 312 385 312 390 c 2,8,-1
 312 393 l 1,9,-1
 38 498 l 1,10,11
 33.4545454545 498 33.4545454545 498 24.4594155844 514.491071429 c 128,-1,12
 15.4642857143 530.982142857 15.4642857143 530.982142857 15.4642857143 535.147959184 c 0,13,14
 15.4642857143 544.838235294 15.4642857143 544.838235294 33.875 552.419117647 c 128,-1,15
 52.2857142857 560 52.2857142857 560 66 560 c 1,16,17
 119.814320388 528.263349515 119.814320388 528.263349515 196.407160194 502.131674757 c 128,-1,18
 273 476 273 476 316 462 c 128,-1,19
 359 448 359 448 401 429 c 1,20,21
 414 412.285714286 414 412.285714286 414 396.642857143 c 128,-1,22
 414 381 414 381 400.5 367 c 128,-1,23
 387 353 387 353 369.5 328 c 128,-1,24
 352 303 352 303 331.5 271.5 c 128,-1,25
 311 240 311 240 277.842105263 191.842105263 c 128,-1,26
 244.684210526 143.684210526 244.684210526 143.684210526 189 88 c 1,27,28
 184.5 81.25 184.5 81.25 164 71 c 1,29,30
 158.24939631 69.5623490776 158.24939631 69.5623490776 150.218583985 69.5623490776 c 128,-1,31
 142.18777166 69.5623490776 142.18777166 69.5623490776 132.586206897 74.8965517241 c 0,0,1
EndSplineSet
EndChar

StartChar: question
Encoding: 63 63 34
Width: 366
Flags: HW
LayerCount: 2
Fore
SplineSet
266 40 m 0,0,1
 266 4 266 4 223 4 c 0,2,3
 204 4 204 4 187.5 13.5 c 128,-1,4
 171 23 171 23 171 40.5 c 128,-1,5
 171 58 171 58 183 71 c 128,-1,6
 195 84 195 84 212.5 84 c 128,-1,7
 230 84 230 84 248 73.5 c 128,-1,8
 266 63 266 63 266 40 c 0,0,1
203 252 m 0,9,10
 203 219 203 219 165 219 c 0,11,12
 139 219 139 219 121.5 237.5 c 128,-1,13
 104 256 104 256 104 281 c 2,14,-1
 104 283 l 1,15,16
 116 337 116 337 184 421 c 0,17,18
 224.12 470.56 224.12 470.56 254.5 540 c 0,19,20
 258 548 258 548 257 551 c 128,-1,21
 256 554 256 554 256 564 c 1,22,23
 216 564 216 564 183.5 548.5 c 128,-1,24
 151 533 151 533 127 517 c 128,-1,25
 103 501 103 501 91 489 c 128,-1,26
 79 477 79 477 62 477 c 128,-1,27
 45 477 45 477 28 488.5 c 128,-1,28
 11 500 11 500 11 518 c 0,29,30
 11 524 11 524 12.5 525.5 c 128,-1,31
 14 527 14 527 31.5 540.5 c 0,32,33
 89.9948096886 585.624567474 89.9948096886 585.624567474 144.290508293 612.312283737 c 128,-1,34
 198.586206897 639 198.586206897 639 267 639 c 0,35,36
 299 639 299 639 322.5 624 c 128,-1,37
 346 609 346 609 346 580 c 128,-1,38
 346 551 346 551 338 527 c 128,-1,39
 330 503 330 503 318 480 c 128,-1,40
 306 457 306 457 291.5 436 c 128,-1,41
 277 415 277 415 267 400 c 128,-1,42
 257 385 257 385 244 370 c 0,43,44
 189 306.538461538 189 306.538461538 189 276 c 0,45,46
 189 268 189 268 196 264 c 128,-1,47
 203 260 203 260 203 252 c 0,9,10
EndSplineSet
EndChar

StartChar: at
Encoding: 64 64 35
Width: 762
Flags: HW
LayerCount: 2
Fore
SplineSet
507.64904371 408.915745726 m 1,0,-1
 507 333 l 2,1,2
 507 275.363636364 507 275.363636364 488 236.5 c 0,3,4
 462.822222222 185 462.822222222 185 412 185 c 0,5,6
 374 185 374 185 356 207.5 c 128,-1,7
 338 230 338 230 330 250.5 c 128,-1,8
 322 271 322 271 322 275 c 128,-1,9
 322 279 322 279 317 288 c 1,10,11
 313 284 313 284 308.5 275 c 0,12,13
 289.136363636 236.272727273 289.136363636 236.272727273 269.5 213 c 0,14,15
 239.125 177 239.125 177 199 177 c 0,16,17
 178 177 178 177 162.5 192.5 c 128,-1,18
 147 208 147 208 147 233 c 0,19,20
 147 282.27027027 147 282.27027027 189.5 342 c 0,21,22
 212.923387097 374.919354839 212.923387097 374.919354839 270 435 c 0,23,24
 284 449 284 449 306.5 461 c 128,-1,25
 329 473 329 473 348.5 473 c 128,-1,26
 368 473 368 473 382 460 c 128,-1,27
 396 447 396 447 410 431 c 1,28,-1
 411 406 l 1,29,30
 411 377 411 377 406 349.5 c 128,-1,31
 401 322 401 322 401 293.5625 c 128,-1,32
 401 265.125 401 265.125 414 257 c 1,33,34
 440 278.272727273 440 278.272727273 440 339 c 2,35,-1
 440 366 l 1,36,37
 443.99690974 431.949010708 443.99690974 431.949010708 443.99690974 469.540457804 c 0,38,39
 443.99690974 577.000772565 443.99690974 577.000772565 384 592 c 1,40,41
 331.25 592 331.25 592 264.185606061 520.464646465 c 128,-1,42
 197.121212121 448.929292929 197.121212121 448.929292929 169 388 c 1,43,44
 105 238.666666667 105 238.666666667 105 209.5 c 2,45,-1
 105 194 l 2,46,47
 105 128.744680851 105 128.744680851 153.28125 95.8723404255 c 128,-1,48
 201.5625 63 201.5625 63 272 63 c 2,49,-1
 292 63 l 1,50,51
 299 64 299 64 312.5 67 c 128,-1,52
 326 70 326 70 349.823529412 74.4117647059 c 128,-1,53
 373.647058824 78.8235294118 373.647058824 78.8235294118 376 80 c 2,54,-1
 616 195 l 2,55,56
 627 200 627 200 637 210.5 c 128,-1,57
 647 221 647 221 665.5 239.5 c 128,-1,58
 684 258 684 258 699.5 258 c 128,-1,59
 715 258 715 258 731.5 251 c 128,-1,60
 748 244 748 244 748 231.5 c 0,61,62
 748 203 748 203 697 169 c 256,63,64
 691 165 691 165 681 158 c 128,-1,65
 671 151 671 151 653 139 c 128,-1,66
 635 127 635 127 630 124.5 c 128,-1,67
 625 122 625 122 604.5 112 c 128,-1,68
 584 102 584 102 550.605263158 85.6578947368 c 128,-1,69
 517.210526316 69.3157894737 517.210526316 69.3157894737 485 55 c 1,70,71
 473 52 473 52 462.5 45 c 128,-1,72
 452 38 452 38 423 29 c 1,73,74
 301.892394572 -0.0323555327071 301.892394572 -0.0323555327071 277.779622633 -0.0323555327071 c 0,75,76
 276.974651551 -0.0323555327071 276.974651551 -0.0323555327071 276.277777778 -1.7763568394e-15 c 0,77,78
 173.5 1.65040035861e-15 173.5 1.65040035861e-15 97.75 51.2112676056 c 128,-1,79
 22 102.422535211 22 102.422535211 22 190 c 0,80,81
 22 263.407407407 22 263.407407407 80.186733303 380.858406112 c 128,-1,82
 138.373466606 498.309404816 138.373466606 498.309404816 226.567685684 588.654702408 c 128,-1,83
 314.761904762 679 314.761904762 679 394 679 c 0,84,85
 507.64904371 679 507.64904371 679 507.64904371 408.915745726 c 1,0,-1
233 310 m 1,86,87
 226 294 226 294 226 286.5 c 128,-1,88
 226 279 226 279 233.545454545 279 c 128,-1,89
 241.090909091 279 241.090909091 279 266.545454545 306 c 0,90,91
 298 339.364285714 298 339.364285714 298 354.666666667 c 0,92,93
 298 360.066666667 298 360.066666667 293.14 360.066666667 c 0,94,95
 284.382716049 360.066666667 284.382716049 360.066666667 266.191358025 346.033333333 c 128,-1,96
 248 332 248 332 233 310 c 1,86,87
EndSplineSet
EndChar

StartChar: A
Encoding: 65 65 36
Width: 509
Flags: HW
LayerCount: 2
Fore
SplineSet
96.619047619 695.455782313 m 0,0,1
 96.619047619 739 96.619047619 739 135 739 c 0,2,3
 140.400859765 739.648103172 140.400859765 739.648103172 145.539273975 739.648103172 c 0,4,5
 196.859070989 739.648103172 196.859070989 739.648103172 222 675 c 0,6,7
 229 657 229 657 237 642 c 1,8,9
 242 628 242 628 249.5 609 c 0,10,11
 282.449438202 525.528089888 282.449438202 525.528089888 326 388 c 1,12,-1
 330 384 l 1,13,-1
 477 453 l 1,14,-1
 479 453 l 2,15,16
 489 453 489 453 494 445.5 c 128,-1,17
 499 438 499 438 499 429 c 128,-1,18
 499 420 499 420 494 412 c 128,-1,19
 489 404 489 404 482.5 397.5 c 128,-1,20
 476 391 476 391 468.5 385 c 128,-1,21
 461 379 461 379 457 372 c 1,22,-1
 358 322 l 1,23,24
 354 317 354 317 354 311.5 c 128,-1,25
 354 306 354 306 362.5 289 c 2,26,-1
 376 262 l 2,27,28
 379 256 379 256 386 240 c 0,29,30
 403.5 200 403.5 200 427 153 c 1,31,-1
 427 150 l 2,32,33
 427 114 427 114 391 114 c 0,34,35
 358.5 114 358.5 114 350 131 c 2,36,-1
 283 274 l 1,37,-1
 274 274 l 1,38,39
 180.220183486 202.431192661 180.220183486 202.431192661 105 169 c 1,40,41
 95.8176372168 121.776419972 95.8176372168 121.776419972 95.8176372168 82.825065731 c 128,-1,42
 95.8176372168 43.8737114901 95.8176372168 43.8737114901 97 22 c 1,43,44
 81 0 81 0 59 0 c 256,45,46
 25 0 25 0 25 43 c 2,47,-1
 25 63 l 2,48,49
 25 123 25 123 33 182 c 128,-1,50
 41 241 41 241 47 300 c 2,51,-1
 55 372 l 1,52,-1
 55 376 l 1,53,-1
 97 688 l 2,54,55
 96.619047619 691.80952381 96.619047619 691.80952381 96.619047619 695.455782313 c 0,0,1
157 616 m 1,56,57
 147.25 596.5 147.25 596.5 114 283 c 1,58,-1
 114 257 l 1,59,60
 144 269 144 269 172.5 289 c 128,-1,61
 201 309 201 309 215.5 318.5 c 128,-1,62
 230 328 230 328 234.5 330 c 128,-1,63
 239 332 239 332 243 335 c 256,64,65
 247 338 247 338 253 342 c 1,66,-1
 253 350 l 1,67,-1
 161 612 l 1,68,-1
 157 616 l 1,56,57
EndSplineSet
EndChar

StartChar: B
Encoding: 66 66 37
Width: 515
Flags: HW
LayerCount: 2
Fore
SplineSet
72 633 m 2,0,1
 72 659 72 659 117.5 659 c 0,2,3
 151.424242424 659 151.424242424 659 154 616.5 c 0,4,5
 155 600 155 600 154.5 585 c 128,-1,6
 154 570 154 570 165 566 c 1,7,8
 183 575 183 575 199 585 c 128,-1,9
 215 595 215 595 240.1875 608 c 128,-1,10
 265.375 621 265.375 621 300.4875 621 c 128,-1,11
 335.6 621 335.6 621 352 600.5 c 0,12,13
 358 593 358 593 358 576 c 128,-1,14
 358 559 358 559 352 540.5 c 128,-1,15
 346 522 346 522 337 504.5 c 128,-1,16
 328 487 328 487 318 470 c 128,-1,17
 308 453 308 453 300 435 c 1,18,-1
 376 427 l 1,19,20
 450.737777778 412.986666667 450.737777778 412.986666667 485 369.5 c 0,21,22
 498 353 498 353 498 331 c 0,23,24
 498 284.375 498 284.375 457 228 c 0,25,26
 449 217 449 217 435.666666667 198.666666667 c 128,-1,27
 422.333333333 180.333333333 422.333333333 180.333333333 419 177 c 2,28,-1
 228 12 l 2,29,30
 211.75 -1 211.75 -1 199.375 -1 c 0,31,32
 174 -1 174 -1 142.853211009 5.67431192661 c 128,-1,33
 111.706422018 12.3486238532 111.706422018 12.3486238532 110 26 c 2,34,-1
 88 195 l 1,35,-1
 88 203 l 1,36,37
 82.0483870968 327.983870968 82.0483870968 327.983870968 76 380 c 1,38,39
 46.8888888889 380 46.8888888889 380 34.4444444444 388 c 128,-1,40
 22 396 22 396 22 405 c 128,-1,41
 22 414 22 414 27.5 425.5 c 0,42,43
 37.5833333333 446.583333333 37.5833333333 446.583333333 57.5 466.5 c 2,44,-1
 72 481 l 1,45,-1
 72 633 l 2,0,1
186 88 m 1,46,-1
 187 88 l 2,47,48
 192 88 192 88 202 91 c 128,-1,49
 212 94 212 94 215.5 97 c 128,-1,50
 219 100 219 100 228.5 108 c 128,-1,51
 238 116 238 116 249 125 c 128,-1,52
 260 134 260 134 269.5 142 c 128,-1,53
 279 150 279 150 290 158.5 c 0,54,55
 419 258.181818182 419 258.181818182 419 323 c 0,56,57
 419 348.103448276 419 348.103448276 384.5 360 c 0,58,59
 361.3 368 361.3 368 334.15 368 c 128,-1,60
 307 368 307 368 289 361 c 128,-1,61
 271 354 271 354 255 343 c 128,-1,62
 239 332 239 332 224.5 318.5 c 128,-1,63
 210 305 210 305 201 297 c 128,-1,64
 192 289 192 289 186.5 286 c 0,65,66
 162.786885246 273.06557377 162.786885246 273.06557377 165 262 c 2,67,-1
 186 88 l 1,46,-1
262 541 m 1,68,69
 253.333333333 536.666666667 253.333333333 536.666666667 245 530 c 128,-1,70
 236.666666667 523.333333333 236.666666667 523.333333333 228 519 c 1,71,-1
 217.5 511 l 2,72,73
 161 467.952380952 161 467.952380952 161 465 c 2,74,-1
 161 388 l 1,75,-1
 165 388 l 1,76,77
 177 402 177 402 185.5 411.5 c 128,-1,78
 194 421 194 421 202 431 c 128,-1,79
 210 441 210 441 214 446.5 c 128,-1,80
 218 452 218 452 226.5 463 c 128,-1,81
 235 474 235 474 237.5 478.5 c 2,82,-1
 245 492 l 2,83,84
 250 501 250 501 254.5 509.5 c 128,-1,85
 259 518 259 518 266 531 c 1,86,-1
 266 541 l 1,87,-1
 262 541 l 1,68,69
EndSplineSet
EndChar

StartChar: C
Encoding: 67 67 38
Width: 431
Flags: HW
LayerCount: 2
Fore
SplineSet
102 118.5 m 2,0,1
 102 72 102 72 126 72 c 0,2,3
 132 72 132 72 137 76 c 0,4,5
 218.333333333 130.222222222 218.333333333 130.222222222 290.5 250.5 c 0,6,7
 299.636363636 265.727272727 299.636363636 265.727272727 305.818181818 278.863636364 c 2,8,-1
 316 300.5 l 2,9,10
 320 309 320 309 323 323 c 128,-1,11
 326 337 326 337 330.5 349 c 0,12,13
 340.625 376 340.625 376 372 376 c 0,14,15
 386 376 386 376 399 364 c 128,-1,16
 412 352 412 352 412 336 c 2,17,-1
 412 334 l 1,18,19
 387 262 387 262 347.5 201 c 128,-1,20
 308 140 308 140 260 80 c 1,21,22
 193.333333333 1.42108547152e-14 193.333333333 1.42108547152e-14 104 0 c 2,23,-1
 99 0 l 1,24,25
 54 17 54 17 38.5 50.5 c 128,-1,26
 23 84 23 84 23 129 c 2,27,-1
 23 153 l 1,28,-1
 56 422 l 1,29,30
 65 453 65 453 75 489 c 0,31,32
 113.888888889 629 113.888888889 629 211 629 c 0,33,34
 269.670896785 629 269.670896785 629 314.097222222 590.416666667 c 0,35,36
 333 574 333 574 334.5 572 c 128,-1,37
 336 570 336 570 336 558.5 c 128,-1,38
 336 547 336 547 327 535 c 128,-1,39
 318 523 318 523 302.5 523 c 128,-1,40
 287 523 287 523 278 529.5 c 128,-1,41
 269 536 269 536 254 551 c 128,-1,42
 239 566 239 566 220.5 566 c 0,43,44
 189.115384615 566 189.115384615 566 172.224358974 540.166666667 c 128,-1,45
 155.333333333 514.333333333 155.333333333 514.333333333 150 477 c 2,46,-1
 103 157 l 1,47,-1
 102 136 l 1,48,-1
 102 118.5 l 2,0,1
EndSplineSet
EndChar

StartChar: D
Encoding: 68 68 39
Width: 523
Flags: HW
LayerCount: 2
Fore
SplineSet
133 142 m 2,0,-1
 135 506 l 1,1,2
 123.363636364 506 123.363636364 506 97 491.5 c 128,-1,3
 70.6363636364 477 70.6363636364 477 52 477 c 2,4,-1
 36 477 l 1,5,6
 34 480 34 480 26 482.5 c 128,-1,7
 18 485 18 485 18 489 c 2,8,-1
 18 519 l 1,9,10
 25.1428571429 523.285714286 25.1428571429 523.285714286 32 537 c 1,11,-1
 133 587 l 1,12,-1
 137 592 l 1,13,14
 136.428571429 600 136.428571429 600 136.428571429 612.428571429 c 128,-1,15
 136.428571429 624.857142857 136.428571429 624.857142857 140.714285714 639.428571429 c 128,-1,16
 145 654 145 654 168.4 654 c 128,-1,17
 191.8 654 191.8 654 209.169654514 643.782556168 c 128,-1,18
 226.539309028 633.565112337 226.539309028 633.565112337 226.539309028 617.295251914 c 0,19,20
 226.539309028 614.696545139 226.539309028 614.696545139 226 612 c 1,21,22
 276 610 276 610 325 604.5 c 128,-1,23
 374 599 374 599 413 580.5 c 0,24,25
 501 538.756410256 501 538.756410256 501 427 c 0,26,27
 501 370 501 370 479 313 c 128,-1,28
 457 256 457 256 416 215 c 2,29,-1
 226 26 l 2,30,31
 212 12 212 12 202.5 6 c 128,-1,32
 193 0 193 0 176.5 0 c 128,-1,33
 160 0 160 0 150.5 8.5 c 128,-1,34
 141 17 141 17 141 29 c 128,-1,35
 141 41 141 41 147.5 48 c 128,-1,36
 154 55 154 55 154 60 c 128,-1,37
 154 65 154 65 150 68 c 128,-1,38
 146 71 146 71 139.5 80.4545454545 c 128,-1,39
 133 89.9090909091 133 89.9090909091 133 142 c 2,0,-1
266.3 545 m 0,40,41
 235.6 545 235.6 545 226 537 c 1,42,-1
 226 122 l 1,43,-1
 227 122 l 1,44,45
 230.1875 127.3125 230.1875 127.3125 237.09375 133.15625 c 128,-1,46
 244 139 244 139 252 146.5 c 128,-1,47
 260 154 260 154 268 161 c 128,-1,48
 276 168 276 168 290 182.5 c 0,49,50
 352.171428571 246.891836735 352.171428571 246.891836735 376 281.5 c 0,51,52
 424 351.214285714 424 351.214285714 424 416.235049834 c 128,-1,53
 424 481.255813953 424 481.255813953 379.790322581 513.127906977 c 128,-1,54
 335.580645161 545 335.580645161 545 266.3 545 c 0,40,41
EndSplineSet
EndChar

StartChar: E
Encoding: 69 69 40
Width: 422
Flags: HW
LayerCount: 2
Fore
SplineSet
141 287 m 1,0,-1
 140 263.5 l 1,1,-1
 140 253 l 2,2,3
 140 217 140 217 145 181.5 c 128,-1,4
 150 146 150 146 150 110 c 1,5,-1
 154 110 l 2,6,7
 155 110 155 110 163 118 c 128,-1,8
 171 126 171 126 174 130 c 2,9,-1
 184.5 144 l 2,10,11
 227.571428571 201.428571429 227.571428571 201.428571429 335 334 c 0,12,13
 339 338 339 338 346.5 346 c 128,-1,14
 354 354 354 354 356 354 c 1,15,16
 359 357 359 357 368.5 356.5 c 128,-1,17
 378 356 378 356 382.5 354 c 128,-1,18
 387 352 387 352 395 343 c 128,-1,19
 403 334 403 334 403 324 c 128,-1,20
 403 314 403 314 390.5 294.5 c 128,-1,21
 378 275 378 275 361 254 c 128,-1,22
 344 233 344 233 327 213.5 c 128,-1,23
 310 194 310 194 298.5 177 c 128,-1,24
 287 160 287 160 267.5 128.5 c 0,25,26
 187.333333333 -1 187.333333333 -1 116 -1 c 0,27,28
 101 -1 101 -1 94.5 4 c 128,-1,29
 88 9 88 9 78 22 c 1,30,31
 55.21875 113.125 55.21875 113.125 55.21875 186.096191406 c 0,32,33
 55.21875 199.609375 55.21875 199.609375 56.109375 214.3046875 c 128,-1,34
 57 229 57 229 54 241 c 128,-1,35
 51 253 51 253 47.5 255 c 128,-1,36
 44 257 44 257 37.5 262.571428571 c 128,-1,37
 31 268.142857143 31 268.142857143 31 279.071428571 c 0,38,39
 31 291 31 291 41.5 307.5 c 128,-1,40
 52 324 52 324 52 335 c 2,41,-1
 52 350 l 2,42,43
 52 360 52 360 50 384 c 128,-1,44
 48 408 48 408 46 435 c 128,-1,45
 44 462 44 462 42.5 486 c 128,-1,46
 41 510 41 510 40 523 c 128,-1,47
 39 536 39 536 31 549 c 128,-1,48
 23 562 23 562 23 586.5 c 128,-1,49
 23 611 23 611 36 624 c 128,-1,50
 49 637 49 637 82 637 c 0,51,52
 89 637 89 637 93.5 631 c 128,-1,53
 98 625 98 625 104 625 c 2,54,-1
 108 625 l 1,55,56
 120 629 120 629 125 629 c 1,57,58
 341.810810811 721.918918919 341.810810811 721.918918919 350.579512548 722.950530888 c 128,-1,59
 359.348214286 723.982142857 359.348214286 723.982142857 364.691964286 723.982142857 c 128,-1,60
 370.035714286 723.982142857 370.035714286 723.982142857 378.017857143 721.991071429 c 0,61,62
 395 717.755033557 395 717.755033557 395 694.241153142 c 128,-1,63
 395 670.727272727 395 670.727272727 378 663 c 2,64,-1
 247 600 l 1,65,-1
 243 596 l 1,66,-1
 133 549 l 2,67,68
 125 546.333333333 125 546.333333333 125 532.166666667 c 128,-1,69
 125 518 125 518 127 497 c 128,-1,70
 129 476 129 476 132.555555556 436 c 128,-1,71
 136.111111111 396 136.111111111 396 139 396 c 2,72,-1
 140 396 l 1,73,-1
 176 424.5 l 2,74,75
 200 444 200 444 225 464 c 128,-1,76
 250 484 250 484 269 499.5 c 128,-1,77
 288 515 288 515 289 515 c 0,78,79
 300 515 300 515 309 504 c 128,-1,80
 318 493 318 493 318 481 c 256,81,82
 318 446.272727273 318 446.272727273 297 431 c 1,83,-1
 141 292 l 1,84,-1
 141 287 l 1,0,-1
EndSplineSet
EndChar

StartChar: F
Encoding: 70 70 41
Width: 427
Flags: HW
LayerCount: 2
Fore
SplineSet
147 224 m 1,0,-1
 169 51 l 2,1,2
 169.514285714 46.8857142857 169.514285714 46.8857142857 169.514285714 35.7428571429 c 128,-1,3
 169.514285714 24.6 169.514285714 24.6 156.257142857 11.8 c 128,-1,4
 143 -1 143 -1 122.5 -1 c 128,-1,5
 102 -1 102 -1 93.5 7.5 c 128,-1,6
 85 16 85 16 84 22 c 2,7,-1
 59 219 l 2,8,9
 59 223.666666667 59 223.666666667 46.5 232 c 128,-1,10
 34 240.333333333 34 240.333333333 34 249.166666667 c 0,11,12
 34 262.142857143 34 262.142857143 42.5 275.5 c 128,-1,13
 51 288.857142857 51 288.857142857 51 309.428571429 c 0,14,15
 51 335.666666667 51 335.666666667 38.5 419 c 128,-1,16
 26 502.333333333 26 502.333333333 26 530.666666667 c 128,-1,17
 26 559 26 559 33.5 567 c 128,-1,18
 41 575 41 575 64.8076923077 575 c 128,-1,19
 88.6153846154 575 88.6153846154 575 114 545 c 1,20,-1
 119 545 l 1,21,22
 126 549 126 549 145 560 c 128,-1,23
 164 571 164 571 185.5 583 c 128,-1,24
 207 595 207 595 226.5 605.5 c 128,-1,25
 246 616 246 616 269.214285714 629 c 128,-1,26
 292.428571429 642 292.428571429 642 312.214285714 642 c 128,-1,27
 332 642 332 642 337 639 c 128,-1,28
 342 636 342 636 342 623 c 2,29,-1
 342 621 l 1,30,31
 333.181818182 576.909090909 333.181818182 576.909090909 276.5 551.5 c 0,32,33
 262 545 262 545 240.5 530.5 c 0,34,35
 191.45751634 497.424836601 191.45751634 497.424836601 162.97875817 481.712418301 c 128,-1,36
 134.5 466 134.5 466 127 457 c 1,37,-1
 126 435 l 1,38,39
 126 405 126 405 127 375 c 128,-1,40
 128 345 128 345 139 317 c 1,41,-1
 372 427 l 2,42,43
 381.333333333 431 381.333333333 431 389.166666667 431 c 128,-1,44
 397 431 397 431 406 428 c 128,-1,45
 415 425 415 425 415 420 c 0,46,47
 415 382.136363636 415 382.136363636 362 346 c 0,48,49
 340 331 340 331 316 320 c 128,-1,50
 292 309 292 309 281 303.5 c 128,-1,51
 270 298 270 298 265 297 c 128,-1,52
 260 296 260 296 258 292 c 1,53,-1
 153 237 l 2,54,55
 147 233.4 147 233.4 147 224 c 1,0,-1
EndSplineSet
EndChar

StartChar: G
Encoding: 71 71 42
Width: 501
Flags: HW
LayerCount: 2
Fore
SplineSet
358.78200692 593.470588235 m 0,0,1
 387 593.470588235 387 593.470588235 387 568.5 c 0,2,3
 387 555 387 555 377.5 548.5 c 128,-1,4
 368 542 368 542 355 538 c 128,-1,5
 342 534 342 534 328 530.5 c 128,-1,6
 314 527 314 527 306 522 c 1,7,8
 208.614143921 442.988833747 208.614143921 442.988833747 133 314 c 1,9,10
 122 279 122 279 110 247 c 128,-1,11
 98 215 98 215 98 177 c 1,12,-1
 99 150 l 1,13,14
 109 126 109 126 129.5 106 c 128,-1,15
 150 86 150 86 171 86 c 0,16,17
 210.923076923 86 210.923076923 86 230 117 c 1,18,19
 240.451612903 130.064516129 240.451612903 130.064516129 257.725806452 158.032258065 c 128,-1,20
 275 186 275 186 284.5 201 c 128,-1,21
 294 216 294 216 297 222 c 256,22,23
 300 228 300 228 305.5 237.5 c 0,24,25
 327 274.636363636 327 274.636363636 327 281 c 2,26,-1
 327 285 l 1,27,28
 295.5 276 295.5 276 278.25 276 c 0,29,30
 208 276 208 276 208 313 c 0,31,32
 208 329.333333333 208 329.333333333 213 336 c 1,33,34
 226.637305699 347.932642487 226.637305699 347.932642487 252.81865285 350.466321244 c 2,35,-1
 294.5 354.5 l 2,36,37
 314.159744409 356.402555911 314.159744409 356.402555911 339.079872204 367.201277955 c 0,38,39
 419.903010812 402.224638018 419.903010812 402.224638018 445.003822668 402.224638018 c 0,40,41
 450.132245449 402.224638018 450.132245449 402.224638018 453.5 401 c 0,42,43
 479 391.727272727 479 391.727272727 479 383 c 0,44,45
 479 361 479 361 467 352.5 c 128,-1,46
 455 344 455 344 436 332 c 1,47,48
 437.058823529 317.882352941 437.058823529 317.882352941 437.058823529 297.882352941 c 128,-1,49
 437.058823529 277.882352941 437.058823529 277.882352941 432.529411765 244.941176471 c 128,-1,50
 428 212 428 212 428 129.75 c 128,-1,51
 428 47.5 428 47.5 434.5 11.25 c 0,52,53
 442.315175097 -32.3346303502 442.315175097 -32.3346303502 448.157587549 -53.3673151751 c 128,-1,54
 454 -74.4 454 -74.4 454 -78 c 2,55,-1
 454 -80 l 2,56,57
 454 -94 454 -94 443.5 -107.5 c 128,-1,58
 433 -121 433 -121 418.5 -121 c 128,-1,59
 404 -121 404 -121 390.5 -111 c 128,-1,60
 377 -101 377 -101 374 -87 c 0,61,62
 349.254901961 11.9803921569 349.254901961 11.9803921569 344 167 c 1,63,64
 330.166666667 159.314814815 330.166666667 159.314814815 317.987827715 128.191115273 c 128,-1,65
 305.808988764 97.0674157303 305.808988764 97.0674157303 289.904494382 79.0337078652 c 128,-1,66
 274 61 274 61 247 39.5 c 128,-1,67
 220 18 220 18 186.5 18 c 0,68,69
 122.418604651 18 122.418604651 18 70.2093023256 65.7659574468 c 128,-1,70
 18 113.531914894 18 113.531914894 18 174 c 0,71,72
 18 276.315789474 18 276.315789474 96.5 392 c 0,73,74
 120.777777778 427.777777778 120.777777778 427.777777778 125 432 c 2,75,-1
 234 547 l 2,76,77
 272.773675762 587.53611557 272.773675762 587.53611557 352 593 c 0,78,79
 355.529411765 593.470588235 355.529411765 593.470588235 358.78200692 593.470588235 c 0,0,1
EndSplineSet
EndChar

StartChar: H
Encoding: 72 72 43
Width: 367
Flags: HW
LayerCount: 2
Fore
SplineSet
227 770 m 2,0,1
 227 795 227 795 263.5 795 c 0,2,3
 297.181818182 795 297.181818182 795 309 743 c 1,4,5
 310 732 310 732 312 706 c 128,-1,6
 314 680 314 680 317 650 c 128,-1,7
 320 620 320 620 322.5 593.5 c 128,-1,8
 325 567 325 567 326 557 c 1,9,-1
 326 541 l 2,10,11
 326 522 326 522 330 502 c 1,12,-1
 330 92 l 1,13,14
 338 64.8 338 64.8 338 45.4 c 0,15,16
 338 -1 338 -1 309 -1 c 0,17,18
 282.818181818 -1 282.818181818 -1 263.909090909 23.4705882353 c 128,-1,19
 245 47.9411764706 245 47.9411764706 245 76 c 2,20,-1
 245 282 l 1,21,-1
 131 257 l 1,22,-1
 128 257 l 1,23,-1
 131 95 l 2,24,25
 131 63.1666666667 131 63.1666666667 127.5 52.0833333333 c 0,26,27
 120.526315789 30 120.526315789 30 93.2631578947 30 c 128,-1,28
 66 30 66 30 55 59 c 1,29,30
 50 106 50 106 49 151.5 c 128,-1,31
 48 197 48 197 43 245 c 0,32,33
 41 259 41 259 31.5 272 c 128,-1,34
 22 285 22 285 22 295.5 c 128,-1,35
 22 306 22 306 28.5 312 c 128,-1,36
 35 318 35 318 35 329 c 0,37,38
 35 407 35 407 30.5 483.5 c 128,-1,39
 26 560 26 560 26 637 c 2,40,-1
 26 654 l 1,41,42
 33 664 33 664 40 666 c 128,-1,43
 47 668 47 668 59 668 c 0,44,45
 88 668 88 668 96 650.5 c 128,-1,46
 104 633 104 633 105 608 c 2,47,-1
 114 342 l 1,48,49
 119.333333333 326 119.333333333 326 125.666666667 326 c 0,50,51
 137.333333333 326 137.333333333 326 190.387978142 337.368852459 c 128,-1,52
 243.442622951 348.737704918 243.442622951 348.737704918 249 358 c 1,53,-1
 250 408 l 1,54,55
 250 504 250 504 245 574 c 1,56,-1
 228 756 l 2,57,58
 227 757 227 757 227 762.5 c 2,59,-1
 227 770 l 2,0,1
EndSplineSet
EndChar

StartChar: I
Encoding: 73 73 44
Width: 154
Flags: HW
LayerCount: 2
Fore
SplineSet
40 110 m 1,0,-1
 23 443 l 1,1,-1
 23 566 l 1,2,3
 31 577 31 577 37.5 580.5 c 128,-1,4
 44 584 44 584 58 584 c 128,-1,5
 72 584 72 584 86.5 575 c 128,-1,6
 101 566 101 566 104 543.5 c 128,-1,7
 107 521 107 521 107.375 499.625 c 128,-1,8
 107.75 478.25 107.75 478.25 107.75 464 c 128,-1,9
 107.75 449.75 107.75 449.75 107.375 428.375 c 2,10,-1
 106.5 378.5 l 2,11,12
 106.428571429 374.428571429 106.428571429 374.428571429 106.428571429 358.785714286 c 128,-1,13
 106.428571429 343.142857143 106.428571429 343.142857143 109.214285714 298.571428571 c 128,-1,14
 112 254 112 254 120.5 181 c 128,-1,15
 129 108 129 108 129 40 c 0,16,17
 129 20 129 20 121 10 c 128,-1,18
 113 0 113 0 92 0 c 0,19,20
 40 0 40 0 40 110 c 1,0,-1
EndSplineSet
EndChar

StartChar: J
Encoding: 74 74 45
Width: 323
Flags: HW
LayerCount: 2
Fore
SplineSet
236 -1 m 1,0,-1
 226 0 l 1,1,2
 221 2 221 2 208 10 c 128,-1,3
 195 18 195 18 193 22 c 1,4,-1
 28 207 l 2,5,6
 10 226.5 10 226.5 10 247.25 c 0,7,8
 10 292 10 292 40 292 c 0,9,10
 54.6470588235 292 54.6470588235 292 65.5 271.5 c 0,11,12
 70 263 70 263 74 254.5 c 128,-1,13
 78 246 78 246 84 240.5 c 0,14,15
 99.0909090909 226.666666667 99.0909090909 226.666666667 144.831168831 170.761904762 c 128,-1,16
 190.571428571 114.857142857 190.571428571 114.857142857 193.697478992 110.016806723 c 128,-1,17
 196.823529412 105.176470588 196.823529412 105.176470588 205 97 c 1,18,-1
 209 101 l 1,19,-1
 210 131 l 1,20,-1
 210 172 l 1,21,-1
 205 513 l 1,22,-1
 205 654 l 1,23,24
 210.785714286 681 210.785714286 681 244.292857143 681 c 128,-1,25
 277.8 681 277.8 681 285 654 c 1,26,27
 284.466666667 620.666666667 284.466666667 620.666666667 284.466666667 558.7 c 128,-1,28
 284.466666667 496.733333333 284.466666667 496.733333333 289.233333333 391.866666667 c 128,-1,29
 294 287 294 287 294 217.5 c 2,30,-1
 294 120.5 l 2,31,32
 294 53.4 294 53.4 272.5 19 c 0,33,34
 260 -1 260 -1 236 -1 c 1,0,-1
EndSplineSet
EndChar

StartChar: K
Encoding: 75 75 46
Width: 592
Flags: HW
LayerCount: 2
Fore
SplineSet
494 245 m 1,0,-1
 532 249 l 1,1,-1
 541 249 l 2,2,3
 576.714285714 249 576.714285714 249 583 227 c 0,4,5
 584.391304348 223.173913043 584.391304348 223.173913043 584.391304348 217.413043478 c 128,-1,6
 584.391304348 211.652173913 584.391304348 211.652173913 578.195652174 201.326086957 c 128,-1,7
 572 191 572 191 565.5 188 c 128,-1,8
 559 185 559 185 551.5 184 c 128,-1,9
 544 183 544 183 536 181.5 c 128,-1,10
 528 180 528 180 521 178.5 c 128,-1,11
 514 177 514 177 511 177 c 2,12,-1
 498 177 l 1,13,14
 477 176 477 176 445.5 176 c 128,-1,15
 414 176 414 176 382.5 175 c 128,-1,16
 351 174 351 174 313 173 c 1,17,-1
 165 143 l 1,18,-1
 165 137 l 2,19,20
 165 115 165 115 171.5 94 c 128,-1,21
 178 73 178 73 178 52 c 128,-1,22
 178 31 178 31 168 15.5 c 128,-1,23
 158 0 158 0 140.5 0 c 128,-1,24
 123 0 123 0 109 13 c 128,-1,25
 95 26 95 26 92 38 c 1,26,-1
 76 143 l 1,27,28
 65 148 65 148 55.5 159 c 128,-1,29
 46 170 46 170 46 182.5 c 128,-1,30
 46 195 46 195 54.5 205 c 128,-1,31
 63 215 63 215 63 233.5 c 128,-1,32
 63 252 63 252 58.4705882353 270.941176471 c 128,-1,33
 53.9411764706 289.882352941 53.9411764706 289.882352941 53.9411764706 301.705882353 c 128,-1,34
 53.9411764706 313.529411765 53.9411764706 313.529411765 55 322 c 1,35,-1
 26 604 l 1,36,-1
 26 606 l 2,37,38
 26 618 26 618 35.3333333333 630.133333333 c 128,-1,39
 44.6666666667 642.266666667 44.6666666667 642.266666667 50.9666666667 642.266666667 c 128,-1,40
 57.2666666667 642.266666667 57.2666666667 642.266666667 64.8 642.133333333 c 128,-1,41
 72.3333333333 642 72.3333333333 642 85.1666666667 635 c 128,-1,42
 98 628 98 628 103 623 c 128,-1,43
 108 618 108 618 114.766666667 595.283333333 c 128,-1,44
 121.533333333 572.566666667 121.533333333 572.566666667 121.533333333 540.18 c 2,45,-1
 121.375 518.65625 l 2,46,47
 121.375 494.75 121.375 494.75 122.6875 476.375 c 128,-1,48
 124 458 124 458 125.5 434.5 c 0,49,50
 132.234042553 329 132.234042553 329 141 329 c 1,51,-1
 143 330 l 1,52,53
 251.952380952 438.952380952 251.952380952 438.952380952 296 557 c 0,54,55
 296 559 296 559 298 565 c 0,56,57
 306.333333333 590 306.333333333 590 308.166666667 601 c 0,58,59
 314.166666667 637 314.166666667 637 322 637 c 2,60,-1
 368 637 l 2,61,62
 379.714285714 637 379.714285714 637 385.857142857 622.666666667 c 128,-1,63
 392 608.333333333 392 608.333333333 392 599.666666667 c 128,-1,64
 392 591 392 591 388 587 c 1,65,-1
 388 579 l 1,66,67
 366.723404255 504.531914894 366.723404255 504.531914894 328 439 c 0,68,69
 315 417 315 417 305 400.5 c 128,-1,70
 295 384 295 384 284 374.5 c 128,-1,71
 273 365 273 365 270 354 c 1,72,-1
 178 245 l 1,73,-1
 165 219 l 1,74,-1
 169 219 l 1,75,76
 266.727272727 244 266.727272727 244 409 244 c 0,77,78
 449 244 449 244 494 245 c 1,0,-1
EndSplineSet
EndChar

StartChar: L
Encoding: 76 76 47
Width: 447
Flags: HW
LayerCount: 2
Fore
SplineSet
30.7412346887 98.207163157 m 1,0,-1
 32 155 l 1,1,-1
 37 462 l 2,2,3
 37 507 37 507 32.5 552 c 128,-1,4
 28 597 28 597 28 642 c 0,5,6
 28 656 28 656 36.5 666 c 128,-1,7
 45 676 45 676 64 676 c 128,-1,8
 83 676 83 676 95 666 c 0,9,10
 117 647.666666667 117 647.666666667 117 607 c 2,11,-1
 117 570 l 1,12,-1
 121 461 l 1,13,-1
 121 428 l 1,14,-1
 117 169 l 1,15,-1
 117 127 l 2,16,17
 117 122 117 122 118.5 113.5 c 128,-1,18
 120 105 120 105 121 105 c 2,19,-1
 129 105 l 1,20,-1
 366 199 l 1,21,22
 374 206 374 206 380 206.5 c 128,-1,23
 386 207 386 207 394 207 c 0,24,25
 441 207 441 207 441 183.5 c 128,-1,26
 441 160 441 160 416 143 c 1,27,28
 341.993485342 103.684039088 341.993485342 103.684039088 281 88 c 1,29,-1
 276 84 l 1,30,31
 228 71 228 71 186.5 46 c 128,-1,32
 145 21 145 21 100 0 c 1,33,-1
 91 0 l 2,34,35
 30.7412346887 0 30.7412346887 0 30.7412346887 98.207163157 c 1,0,-1
EndSplineSet
EndChar

StartChar: M
Encoding: 77 77 48
Width: 585
Flags: HW
LayerCount: 2
Fore
SplineSet
501.563161499 644.594518523 m 2,0,-1
 501.333333333 622.888888889 l 2,1,2
 501.333333333 608 501.333333333 608 502 596 c 2,3,-1
 519 334 l 1,4,-1
 519 330 l 1,5,6
 520.75 314.25 520.75 314.25 526.875 273.125 c 128,-1,7
 533 232 533 232 536 211 c 128,-1,8
 539 190 539 190 540.5 183.5 c 128,-1,9
 542 177 542 177 544.5 167 c 128,-1,10
 547 157 547 157 550.5 145.5 c 128,-1,11
 554 134 554 134 557 124 c 128,-1,12
 560 114 560 114 562 110 c 1,13,14
 558 87 558 87 550.5 74.5 c 128,-1,15
 543 62 543 62 518 62 c 1,16,-1
 502 63 l 1,17,18
 499 65 499 65 490.5 73 c 128,-1,19
 482 81 482 81 481 84 c 2,20,-1
 465 139 l 1,21,-1
 435 367 l 1,22,-1
 435 376 l 1,23,24
 434 394 434 394 434 414.5 c 0,25,26
 434 504 434 504 423 537 c 1,27,-1
 418 531 l 1,28,-1
 346 241 l 1,29,30
 345 230 345 230 344 217.5 c 0,31,32
 339.991957105 167.399463807 339.991957105 167.399463807 304 165 c 1,33,34
 293.459459459 163.243243243 293.459459459 163.243243243 276.716216216 175.202702703 c 128,-1,35
 259.972972973 187.162162162 259.972972973 187.162162162 258 199 c 1,36,-1
 131 401 l 1,37,-1
 110 443 l 1,38,-1
 110 357 l 1,39,-1
 115 118 l 1,40,-1
 115 100.5 l 1,41,-1
 114 47.5 l 1,42,-1
 114 30 l 1,43,44
 104 0 104 0 83 0 c 128,-1,45
 62 0 62 0 51.5 6.5 c 128,-1,46
 41 13 41 13 34 30 c 1,47,48
 32 141 32 141 28.5 251.5 c 128,-1,49
 25 362 25 362 25 421.5 c 2,50,-1
 25 501.5 l 1,51,-1
 26 588 l 1,52,-1
 26 616 l 1,53,54
 34.75 651 34.75 651 63 651 c 256,55,56
 94 651 94 651 114 616 c 1,57,-1
 258 338 l 2,58,59
 270.333333333 313.333333333 270.333333333 313.333333333 274.666666667 311.166666667 c 128,-1,60
 279 309 279 309 279 308 c 2,61,-1
 283 317 l 1,62,-1
 368 616 l 1,63,64
 377 630 377 630 381.5 647.5 c 128,-1,65
 386 665 386 665 391.5 682 c 0,66,67
 404.991452991 723.700854701 404.991452991 723.700854701 431 739 c 1,68,-1
 439 739 l 2,69,70
 501.563161499 739 501.563161499 739 501.563161499 644.594518523 c 2,0,-1
EndSplineSet
EndChar

StartChar: N
Encoding: 78 78 49
Width: 445
Flags: HW
LayerCount: 2
Fore
SplineSet
74 0 m 0,0,1
 40.8823529412 0 40.8823529412 0 23 38 c 1,2,-1
 23 125 l 2,3,4
 23 206.5 23 206.5 29.3979967841 337.658934075 c 128,-1,5
 35.7959935683 468.81786815 35.7959935683 468.81786815 35.7959935683 530.270032159 c 128,-1,6
 35.7959935683 591.722196168 35.7959935683 591.722196168 35 616 c 1,7,8
 41 638 41 638 63.5 638 c 128,-1,9
 86 638 86 638 97 630.5 c 128,-1,10
 108 623 108 623 113 610 c 128,-1,11
 118 597 118 597 119 581 c 128,-1,12
 120 565 120 565 121 549 c 1,13,14
 133 527 133 527 149.5 506.5 c 128,-1,15
 166 486 166 486 172.5 475 c 128,-1,16
 179 464 179 464 180.5 460.5 c 128,-1,17
 182 457 182 457 185.5 452.5 c 128,-1,18
 189 448 189 448 198.5 433.5 c 128,-1,19
 208 419 208 419 217 405.5 c 128,-1,20
 226 392 226 392 232.5 382 c 2,21,-1
 301 283 l 1,22,23
 305 279 305 279 308 279 c 2,24,-1
 310 279 l 1,25,26
 281 515.461538462 281 515.461538462 281 714 c 2,27,-1
 281 764 l 1,28,29
 289 777 289 777 308 777 c 256,30,31
 341 777 341 777 348 745.5 c 0,32,33
 351 732 351 732 351 716.5 c 128,-1,34
 351 701 351 701 351.5 694 c 128,-1,35
 352 687 352 687 353 684.5 c 128,-1,36
 354 682 354 682 355.5 673.5 c 128,-1,37
 357 665 357 665 358.5 647.5 c 128,-1,38
 360 630 360 630 362.5 599 c 128,-1,39
 365 568 365 568 367.5 521 c 128,-1,40
 370 474 370 474 374 406 c 1,41,-1
 374 388 l 1,42,-1
 408 165 l 2,43,44
 409 157 409 157 416.5 140.5 c 128,-1,45
 424 124 424 124 424 109 c 128,-1,46
 424 94 424 94 412 81 c 128,-1,47
 400 68 400 68 382 68 c 128,-1,48
 364 68 364 68 344 88 c 1,49,-1
 183 317 l 2,50,51
 182 317 182 317 181 320.5 c 128,-1,52
 180 324 180 324 176.5 329.5 c 128,-1,53
 173 335 173 335 163 348.5 c 128,-1,54
 153 362 153 362 144 375.5 c 128,-1,55
 135 389 135 389 128 399 c 128,-1,56
 121 409 121 409 121 410 c 2,57,-1
 116 414 l 1,58,59
 106.78971038 239.004497212 106.78971038 239.004497212 106.78971038 153.866882533 c 128,-1,60
 106.78971038 68.7292678539 106.78971038 68.7292678539 108 30 c 1,61,62
 106 18 106 18 95.5 9 c 128,-1,63
 85 0 85 0 74 0 c 0,0,1
EndSplineSet
EndChar

StartChar: O
Encoding: 79 79 50
Width: 330
Flags: HW
LayerCount: 2
Fore
SplineSet
22.5 188 m 2,0,-1
 21.3333333333 249.222222222 l 1,1,2
 21.3333333333 372.666666667 21.3333333333 372.666666667 32.2288657036 465.773943285 c 128,-1,3
 43.1243980738 558.881219904 43.1243980738 558.881219904 74 617 c 1,4,5
 80 644 80 644 103 654.5 c 128,-1,6
 126 665 126 665 168 667 c 1,7,8
 231.25 667 231.25 667 270 574 c 0,9,10
 280 550 280 550 288 531 c 1,11,-1
 288 526 l 1,12,13
 305 477.428571429 305 477.428571429 305 300 c 2,14,-1
 305 239 l 2,15,16
 305 159.828571429 305 159.828571429 271.5 89 c 0,17,18
 254 52 254 52 226 26 c 128,-1,19
 198 0 198 0 162 0 c 0,20,21
 97.4528301887 0 97.4528301887 0 59.7264150943 57.1285714286 c 128,-1,22
 22 114.257142857 22 114.257142857 22 177 c 0,23,24
 22.5 180 22.5 180 22.5 188 c 2,0,-1
175 598 m 1,25,26
 171 594 171 594 171 590 c 1,27,28
 100.259131277 502.416067295 100.259131277 502.416067295 100.259131277 298.673094697 c 0,29,30
 100.259131277 207.011555744 100.259131277 207.011555744 119 110 c 0,31,32
 121 99 121 99 130.5 87.5 c 128,-1,33
 140 76 140 76 153 76 c 2,34,-1
 161 76 l 1,35,36
 203 114 203 114 216 163.5 c 128,-1,37
 229 213 229 213 229 247 c 128,-1,38
 229 281 229 281 228 308 c 128,-1,39
 227 335 227 335 224.5 368.5 c 0,40,41
 209.478323699 569.790462428 209.478323699 569.790462428 175 598 c 1,25,26
EndSplineSet
EndChar

StartChar: P
Encoding: 80 80 51
Width: 526
Flags: HW
LayerCount: 2
Fore
SplineSet
209 0 m 0,0,1
 195 0 195 0 179.5 11.5 c 128,-1,2
 164 23 164 23 162 38 c 2,3,-1
 141 199 l 1,4,5
 141.470031969 208.400639378 141.470031969 208.400639378 141.470031969 226.143535803 c 128,-1,6
 141.470031969 243.886432228 141.470031969 243.886432228 137.235015984 274.943216114 c 128,-1,7
 133 306 133 306 133 308 c 2,8,-1
 129 317 l 1,9,10
 134 322 134 322 133 322 c 1,11,-1
 133 515 l 1,12,-1
 129 515 l 1,13,14
 117 501 117 501 101 485 c 128,-1,15
 85 469 85 469 66 469 c 128,-1,16
 47 469 47 469 32.5 480 c 128,-1,17
 18 491 18 491 18 509 c 2,18,-1
 18 511 l 2,19,20
 18 513 18 513 23 523 c 1,21,-1
 135 621 l 1,22,-1
 135 676 l 2,23,24
 135 686 135 686 147 691.5 c 128,-1,25
 159 697 159 697 169.5 697 c 128,-1,26
 180 697 180 697 191 690.5 c 128,-1,27
 202 684 202 684 212.5 684 c 128,-1,28
 223 684 223 684 231 690 c 0,29,30
 308.333333333 748 308.333333333 748 401.385416667 748 c 128,-1,31
 494.4375 748 494.4375 748 538 707 c 0,32,33
 555 691 555 691 555 656 c 128,-1,34
 555 621 555 621 537 580 c 128,-1,35
 519 539 519 539 482 503 c 0,36,37
 402.653669725 425.798165138 402.653669725 425.798165138 327 372 c 0,38,39
 326 371 326 371 325 369.5 c 128,-1,40
 324 368 324 368 323 367 c 2,41,-1
 226 300 l 2,42,43
 221 296 221 296 221 285.5 c 2,44,-1
 221 272 l 2,45,46
 221 236.75 221 236.75 232 157 c 128,-1,47
 243 77.25 243 77.25 243 38.625 c 128,-1,48
 243 0 243 0 209 0 c 0,0,1
475 651 m 0,49,50
 475 680 475 680 424.5 680 c 2,51,-1
 406 680 l 2,52,53
 361 680 361 680 323.5 659.5 c 128,-1,54
 286 639 286 639 268 626.5 c 128,-1,55
 250 614 250 614 244 610.5 c 0,56,57
 217 594.75 217 594.75 217 587 c 2,58,-1
 217 397 l 1,59,-1
 221 392 l 1,60,-1
 403 531 l 2,61,62
 445.901960784 563.176470588 445.901960784 563.176470588 468 620 c 0,63,64
 475 638 475 638 475 651 c 0,49,50
EndSplineSet
EndChar

StartChar: Q
Encoding: 81 81 52
Width: 519
Flags: HW
LayerCount: 2
Fore
SplineSet
338 407 m 1,0,-1
 333.406864989 321.810680477 l 2,1,2
 333.406864989 313.338215103 333.406864989 313.338215103 334 308 c 1,3,-1
 313 211 l 1,4,5
 311.857142857 211 311.857142857 211 323.428571429 197.5 c 128,-1,6
 335 184 335 184 339.5 179.5 c 128,-1,7
 344 175 344 175 348.5 170.5 c 128,-1,8
 353 166 353 166 357 161.5 c 128,-1,9
 361 157 361 157 362.5 156 c 128,-1,10
 364 155 364 155 368 147 c 1,11,-1
 574 -68 l 2,12,13
 575 -69 575 -69 578 -75 c 128,-1,14
 581 -81 581 -81 583 -84 c 1,15,-1
 583 -85 l 1,16,-1
 583.52173913 -95.7873345936 l 2,17,18
 583.52173913 -104.5 583.52173913 -104.5 572.760869565 -115.75 c 128,-1,19
 562 -127 562 -127 542.5 -127 c 128,-1,20
 523 -127 523 -127 515 -119 c 2,21,-1
 322 80 l 2,22,23
 312 91 312 91 300.576923077 104.961538462 c 128,-1,24
 289.153846154 118.923076923 289.153846154 118.923076923 281 123 c 1,25,26
 277 123 277 123 265.5 106.5 c 0,27,28
 202.424242424 16 202.424242424 16 137 16 c 0,29,30
 83 16 83 16 51.5 75.5 c 0,31,32
 26 123.666666667 26 123.666666667 26 183 c 0,33,34
 26 198 26 198 28.5 212 c 128,-1,35
 31 226 31 226 30 240 c 1,36,37
 35.25 262.75 35.25 262.75 50.125 328.375 c 128,-1,38
 65 394 65 394 73 427 c 128,-1,39
 81 460 81 460 83 469.5 c 128,-1,40
 85 479 85 479 90 493 c 128,-1,41
 95 507 95 507 100.5 523.5 c 128,-1,42
 106 540 106 540 111 554 c 128,-1,43
 116 568 116 568 118 574 c 1,44,45
 123 578 123 578 125.5 582 c 128,-1,46
 128 586 128 586 132.166666667 591 c 128,-1,47
 136.333333333 596 136.333333333 596 149.166666667 596 c 128,-1,48
 162 596 162 596 178.5 589 c 128,-1,49
 195 582 195 582 198 569.5 c 128,-1,50
 201 557 201 557 199 556.5 c 128,-1,51
 197 556 197 556 203 549 c 1,52,53
 225.4 557 225.4 557 261 557 c 0,54,55
 338 557 338 557 338 407 c 1,0,-1
270 387.5 m 2,56,-1
 270 431.1 l 2,57,58
 270 465.2 270 465.2 258 494 c 1,59,-1
 252 494 l 2,60,61
 203.189189189 494 203.189189189 494 164 421.5 c 0,62,63
 135.775700935 369.285046729 135.775700935 369.285046729 139 358 c 1,64,-1
 110 199 l 2,65,66
 108.032416496 189.949115881 108.032416496 189.949115881 108.032416496 170.684037321 c 128,-1,67
 108.032416496 151.41895876 108.032416496 151.41895876 116.516208248 130.70947938 c 128,-1,68
 125 110 125 110 128.5 101 c 128,-1,69
 132 92 132 92 139 92 c 0,70,71
 154.111111111 92 154.111111111 92 182.555555556 124 c 128,-1,72
 211 156 211 156 211 173 c 128,-1,73
 211 190 211 190 202.5 198 c 128,-1,74
 194 206 194 206 194 220 c 128,-1,75
 194 234 194 234 199.5 240 c 128,-1,76
 205 246 205 246 213 248 c 128,-1,77
 221 250 221 250 229.5 251 c 128,-1,78
 238 252 238 252 244 256.5 c 0,79,80
 253.428571429 263.571428571 253.428571429 263.571428571 261.714285714 313.285714286 c 128,-1,81
 270 363 270 363 270 387.5 c 2,56,-1
EndSplineSet
EndChar

StartChar: R
Encoding: 82 82 53
Width: 768
Flags: HW
LayerCount: 2
Fore
SplineSet
174 62.5 m 0,0,1
 174 -1 174 -1 142 -1 c 0,2,3
 120 -1 120 -1 99 20 c 0,4,5
 93 26 93 26 92 34 c 2,6,-1
 76 232 l 1,7,8
 63 260.166666667 63 260.166666667 63 272 c 1,9,-1
 68 305 l 1,10,11
 68 330.5 68 330.5 63 388 c 0,12,13
 62 391 62 391 56 393 c 0,14,15
 25 403.333333333 25 403.333333333 25 424.25 c 0,16,17
 25 441 25 441 30.5 449.5 c 128,-1,18
 36 458 36 458 47.5 472.375 c 128,-1,19
 59 486.75 59 486.75 59 502 c 2,20,-1
 55 596 l 1,21,-1
 55 600 l 1,22,23
 59 609 59 609 61.5 615 c 128,-1,24
 64 621 64 621 68.5 625.5 c 128,-1,25
 73 630 73 630 91 630 c 128,-1,26
 109 630 109 630 119 622 c 128,-1,27
 129 614 129 614 133 603.5 c 128,-1,28
 137 593 137 593 138 584 c 128,-1,29
 139 575 139 575 143 574 c 1,30,-1
 215 637 l 1,31,-1
 219 637 l 1,32,33
 292.043478261 685 292.043478261 685 364.95923913 685 c 128,-1,34
 437.875 685 437.875 685 469.5 652 c 0,35,36
 481 640 481 640 481 621 c 0,37,38
 481 584.117647059 481 584.117647059 462.541666667 539.600490196 c 128,-1,39
 444.083333333 495.083333333 444.083333333 495.083333333 418 469 c 1,40,41
 413 458 413 458 354 413 c 128,-1,42
 295 368 295 368 178 279 c 1,43,-1
 658 249 l 2,44,45
 668 248 668 248 685.5 247.5 c 0,46,47
 760 245.371428571 760 245.371428571 760 207 c 0,48,49
 760 188 760 188 743.5 177 c 0,50,51
 739 174 739 174 735 169 c 1,52,-1
 701 169 l 1,53,54
 680.130434783 171.086956522 680.130434783 171.086956522 630.565217391 178.043478261 c 0,55,56
 452.75 203 452.75 203 165 203 c 0,57,58
 161 203 161 203 161 180 c 128,-1,59
 161 157 161 157 167.5 120.5 c 128,-1,60
 174 84 174 84 174 62.5 c 0,0,1
371 612 m 2,61,62
 292.085106383 612 292.085106383 612 143 469 c 1,63,-1
 143 453 l 2,64,65
 143 410 143 410 147 358 c 1,66,-1
 150 358 l 2,67,68
 154.56097561 358 154.56097561 358 317 469 c 1,69,70
 340.692307692 482.820512821 340.692307692 482.820512821 368.846153846 529.743589744 c 128,-1,71
 397 576.666666667 397 576.666666667 397 602 c 0,72,73
 397 612 397 612 387.5 612 c 2,74,-1
 371 612 l 2,61,62
EndSplineSet
EndChar

StartChar: S
Encoding: 83 83 54
Width: 549
Flags: HW
LayerCount: 2
Fore
SplineSet
173 36 m 1,0,1
 197.401179941 69.5516224189 197.401179941 69.5516224189 248.5 87 c 0,2,3
 269 94 269 94 289.5 100.5 c 128,-1,4
 310 107 310 107 330 122 c 1,5,6
 396.410447761 158.223880597 396.410447761 158.223880597 434.5 195 c 0,7,8
 449 209 449 209 449 214.5 c 128,-1,9
 449 220 449 220 447.5 220 c 128,-1,10
 446 220 446 220 446 221 c 2,11,-1
 444 223 l 1,12,13
 439 225 439 225 428 228 c 128,-1,14
 417 231 417 231 415 232 c 0,15,16
 154.021645022 262.346320346 154.021645022 262.346320346 99.0108225108 279.173160173 c 128,-1,17
 44 296 44 296 30 313 c 128,-1,18
 16 330 16 330 16 348 c 0,19,20
 16 372.545454545 16 372.545454545 28.3518518519 399.494949495 c 128,-1,21
 40.7037037037 426.444444444 40.7037037037 426.444444444 54.3518518519 443.222222222 c 0,22,23
 81.5052356021 476.602094241 81.5052356021 476.602094241 150 504 c 0,24,25
 187.666666667 519.066666667 187.666666667 519.066666667 266 541 c 1,26,27
 294 543 294 543 322.5 554.5 c 128,-1,28
 351 566 351 566 379 570 c 1,29,30
 393 570 393 570 402 559 c 128,-1,31
 411 548 411 548 411 533.5 c 128,-1,32
 411 519 411 519 404.5 510.5 c 128,-1,33
 398 502 398 502 387.5 497.5 c 128,-1,34
 377 493 377 493 364 490.5 c 128,-1,35
 351 488 351 488 340.5 485.5 c 128,-1,36
 330 483 330 483 316 479.5 c 128,-1,37
 302 476 302 476 288 472 c 128,-1,38
 274 468 274 468 263 465 c 128,-1,39
 252 462 252 462 235.5 455 c 128,-1,40
 219 448 219 448 191.5 436.5 c 0,41,42
 98.5238095238 397.619047619 98.5238095238 397.619047619 101 358 c 1,43,-1
 101 357 l 1,44,45
 111 343 111 343 146 336 c 128,-1,46
 181 329 181 329 228.5 324 c 128,-1,47
 276 319 276 319 328.5 314 c 128,-1,48
 381 309 381 309 425 299 c 128,-1,49
 469 289 469 289 498 272 c 128,-1,50
 527 255 527 255 527.5 224.5 c 128,-1,51
 528 194 528 194 507 171.5 c 0,52,53
 449.098765432 109.462962963 449.098765432 109.462962963 367.54965284 57.4754036857 c 128,-1,54
 286.000540249 5.48784440843 286.000540249 5.48784440843 211 0 c 1,55,56
 197 0 197 0 185 10.5 c 128,-1,57
 173 21 173 21 173 36 c 1,0,1
EndSplineSet
EndChar

StartChar: T
Encoding: 84 84 55
Width: 449
Flags: HW
LayerCount: 2
Fore
SplineSet
218 439 m 1,0,1
 213.5 475 213.5 475 209 511 c 1,2,-1
 201 511 l 1,3,-1
 87 477 l 1,4,5
 82 469 82 469 70.5 469 c 2,6,-1
 53 469 l 2,7,8
 39 469 39 469 24.5 481.5 c 128,-1,9
 10 494 10 494 10 507 c 128,-1,10
 10 520 10 520 17.5 530.5 c 128,-1,11
 25 541 25 541 36 545 c 2,12,-1
 197 596 l 1,13,14
 200 607 200 607 208.5 618.5 c 128,-1,15
 217 630 217 630 231 630 c 256,16,17
 245 630 245 630 254.5 623 c 128,-1,18
 264 616 264 616 276 612 c 1,19,20
 285 613 285 613 306 618 c 128,-1,21
 327 623 327 623 366.166666667 632.166666667 c 0,22,23
 405.333333333 641.333333333 405.333333333 641.333333333 420.666666667 644.666666667 c 128,-1,24
 436 648 436 648 442 651 c 128,-1,25
 448 654 448 654 463 654 c 128,-1,26
 478 654 478 654 496 644 c 128,-1,27
 514 634 514 634 514 617.5 c 0,28,29
 514 586.153846154 514 586.153846154 483 579 c 2,30,-1
 293 531 l 1,31,-1
 293 522 l 2,32,33
 293 491 293 491 297.766666667 465 c 0,34,35
 302.533333333 439 302.533333333 439 302.533333333 424 c 0,36,37
 302.533333333 409 302.533333333 409 302 401 c 1,38,-1
 336 92 l 1,39,-1
 336 70 l 2,40,41
 336 35.8571428571 336 35.8571428571 332 24.4285714286 c 0,42,43
 323.45 0 323.45 0 296 0 c 0,44,45
 284 0 284 0 270.5 10 c 128,-1,46
 257 20 257 20 256 34 c 2,47,-1
 218 431 l 1,48,-1
 218 439 l 1,0,1
EndSplineSet
EndChar

StartChar: U
Encoding: 85 85 56
Width: 422
Flags: HW
LayerCount: 2
Fore
SplineSet
140 -11 m 0,0,1
 39 -11 39 -11 39 179 c 2,2,-1
 39 205 l 1,3,-1
 61 412 l 1,4,5
 57.2079132487 421.480216878 57.2079132487 421.480216878 57.2079132487 430.082586859 c 128,-1,6
 57.2079132487 438.684956839 57.2079132487 438.684956839 61.9775280899 446.056179775 c 0,7,8
 78.1176470588 471 78.1176470588 471 98.0588235294 471 c 128,-1,9
 118 471 118 471 132 460.5 c 128,-1,10
 146 450 146 450 146 446 c 2,11,-1
 146 408 l 1,12,13
 123.816963053 236.873714981 123.816963053 236.873714981 123.816963053 171.774805522 c 128,-1,14
 123.816963053 106.675896062 123.816963053 106.675896062 129.908481527 90.8379480309 c 128,-1,15
 136 75 136 75 141 70 c 1,16,17
 147.951011916 67.103745035 147.951011916 67.103745035 160.527378476 67.103745035 c 128,-1,18
 173.103745035 67.103745035 173.103745035 67.103745035 198.385205851 92.3852058508 c 128,-1,19
 223.666666667 117.666666667 223.666666667 117.666666667 285 225 c 0,20,21
 287 228 287 228 289.5 236 c 128,-1,22
 292 244 292 244 293 247 c 1,23,24
 291.999873737 280.004166667 291.999873737 280.004166667 291.999873737 341.500694444 c 128,-1,25
 291.999873737 402.997222222 291.999873737 402.997222222 297 513 c 1,26,27
 305.8 535 305.8 535 326.9 535 c 128,-1,28
 348 535 348 535 371 512 c 0,29,30
 377 506 377 506 377 500 c 2,31,-1
 377 205 l 1,32,-1
 399 24 l 2,33,34
 399 18 399 18 404.5 -15 c 2,35,-1
 412.5 -63 l 2,36,37
 415 -78 415 -78 416 -82 c 1,38,-1
 416 -94 l 2,39,40
 416 -133.216216216 416 -133.216216216 373.388604821 -133.216216216 c 0,41,42
 334.484029484 -133.216216216 334.484029484 -133.216216216 318.5 -16 c 0,43,44
 314 17 314 17 308.676229508 72.012295082 c 128,-1,45
 303.352459016 127.024590164 303.352459016 127.024590164 297 141 c 1,46,47
 217.380952381 -11 217.380952381 -11 140 -11 c 0,0,1
EndSplineSet
EndChar

StartChar: V
Encoding: 86 86 57
Width: 522
Flags: HW
LayerCount: 2
Fore
SplineSet
42 477 m 1,0,1
 31 485 31 485 21 503 c 128,-1,2
 11 521 11 521 11 535.5 c 128,-1,3
 11 550 11 550 23 558 c 128,-1,4
 35 566 35 566 49.5 566 c 128,-1,5
 64 566 64 566 75 560 c 128,-1,6
 86 554 86 554 96.5 540 c 128,-1,7
 107 526 107 526 120.5 502 c 128,-1,8
 134 478 134 478 170.622366288 414.346839546 c 128,-1,9
 207.244732577 350.693679092 207.244732577 350.693679092 287 237 c 1,10,11
 290 229 290 229 298 217.5 c 128,-1,12
 306 206 306 206 308 203 c 1,13,-1
 312 211 l 1,14,-1
 367 418 l 1,15,-1
 371 427 l 1,16,-1
 410 566 l 1,17,18
 409.357142857 569.857142857 409.357142857 569.857142857 409.357142857 578.428571429 c 128,-1,19
 409.357142857 587 409.357142857 587 419.178571429 599.5 c 128,-1,20
 429 612 429 612 446 612 c 256,21,22
 463 612 463 612 480.5 600.5 c 128,-1,23
 498 589 498 589 498 570 c 2,24,-1
 498 566 l 1,25,-1
 384 139 l 2,26,27
 384 137 384 137 382 126.5 c 128,-1,28
 380 116 380 116 378 103.5 c 128,-1,29
 376 91 376 91 374 78.5 c 128,-1,30
 372 66 372 66 371 58 c 128,-1,31
 370 50 370 50 369.5 39.5 c 0,32,33
 367.619047619 -5.68434188608e-13 367.619047619 -5.68434188608e-13 333.529411765 4.4408920985e-15 c 0,34,35
 294.432432432 -2.93819023166e-15 294.432432432 -2.93819023166e-15 280 44.5 c 0,36,37
 274 63 274 63 270 83.5 c 128,-1,38
 266 104 266 104 257 118 c 2,39,-1
 42 477 l 1,0,1
EndSplineSet
EndChar

StartChar: W
Encoding: 87 87 58
Width: 517
Flags: HW
LayerCount: 2
Fore
SplineSet
154 354 m 1,0,1
 162 357.2 162 357.2 162 376.6 c 128,-1,2
 162 396 162 396 201 579 c 1,3,4
 214.6 596 214.6 596 236.3 596 c 128,-1,5
 258 596 258 596 265.5 592 c 128,-1,6
 273 588 273 588 276 574 c 2,7,-1
 344 288 l 2,8,9
 346 283 346 283 348 277 c 128,-1,10
 350 271 350 271 352 266 c 1,11,12
 356 299 356 299 359 324.5 c 128,-1,13
 362 350 362 350 365 374.5 c 128,-1,14
 368 399 368 399 371 426.5 c 0,15,16
 376.873239437 480.338028169 376.873239437 480.338028169 408 692 c 0,17,18
 412.5 722 412.5 722 449.5 722 c 0,19,20
 463 722 463 722 466 719.5 c 128,-1,21
 469 717 469 717 475 716 c 128,-1,22
 481 715 481 715 483 714 c 1,23,24
 487 705 487 705 490 698.5 c 128,-1,25
 493 692 493 692 493 684 c 1,26,27
 491 694 491 694 486 675 c 128,-1,28
 481 656 481 656 473.5 613 c 0,29,30
 430.899211218 368.755477651 430.899211218 368.755477651 416 0 c 1,31,32
 396 0 396 0 384 6 c 128,-1,33
 372 12 372 12 370 17 c 2,34,-1
 243 342 l 1,35,-1
 239 346 l 1,36,37
 232.904761905 321.619047619 232.904761905 321.619047619 230 249 c 2,38,-1
 226 114 l 1,39,40
 223 102 223 102 213 93 c 128,-1,41
 203 84 203 84 194 84 c 0,42,43
 179 84 179 84 160.892857143 90.0357142857 c 128,-1,44
 142.785714286 96.0714285714 142.785714286 96.0714285714 141 105 c 2,45,-1
 78 326 l 1,46,-1
 32 507 l 1,47,48
 27.3333333333 511.666666667 27.3333333333 511.666666667 20.6666666667 530.333333333 c 128,-1,49
 14 549 14 549 14 558 c 128,-1,50
 14 567 14 567 27.5 575.5 c 128,-1,51
 41 584 41 584 52 584 c 0,52,53
 89 584 89 584 99 553 c 1,54,-1
 154 354 l 1,0,1
EndSplineSet
EndChar

StartChar: X
Encoding: 88 88 59
Width: 467
Flags: HW
LayerCount: 2
Fore
SplineSet
144 241 m 1,0,-1
 144 245 l 1,1,2
 99 308 99 308 64.5 369.5 c 128,-1,3
 30 431 30 431 26 439 c 1,4,5
 18 449 18 449 18 460 c 128,-1,6
 18 471 18 471 23.5 479.5 c 0,7,8
 36.1176470588 499 36.1176470588 499 57.0588235294 499 c 128,-1,9
 78 499 78 499 88 493 c 128,-1,10
 98 487 98 487 110 462 c 0,11,12
 147.714285714 383.428571429 147.714285714 383.428571429 178 338 c 1,13,-1
 179 338 l 1,14,15
 190.922746781 351.909871245 190.922746781 351.909871245 199.961373391 389.454935622 c 128,-1,16
 209 427 209 427 219 469 c 128,-1,17
 229 511 229 511 245 574 c 0,18,19
 247 583 247 583 257.5 591.5 c 128,-1,20
 268 600 268 600 276 600 c 2,21,-1
 280 600 l 1,22,23
 294 597 294 597 302 595.5 c 128,-1,24
 310 594 310 594 315.026548673 589.601769912 c 128,-1,25
 320.053097345 585.203539823 320.053097345 585.203539823 322 556 c 1,26,27
 319.466019417 517.990291262 319.466019417 517.990291262 298.233009709 442.495145631 c 0,28,29
 255.785714286 291.571428571 255.785714286 291.571428571 241 262 c 1,30,-1
 241 253 l 1,31,-1
 435 59 l 2,32,33
 444 50 444 50 444 34.5 c 128,-1,34
 444 19 444 19 434.5 9.5 c 128,-1,35
 425 0 425 0 410.5 0 c 0,36,37
 380 0 380 0 354 26 c 2,38,-1
 211 169 l 1,39,-1
 203 169 l 1,40,41
 198 159 198 159 190 147.5 c 128,-1,42
 182 136 182 136 175.5 114 c 128,-1,43
 169 92 169 92 160 70.5 c 128,-1,44
 151 49 151 49 139 32.5 c 128,-1,45
 127 16 127 16 115.5 16 c 0,46,47
 94.7777777778 16 94.7777777778 16 78.8888888889 26.2142857143 c 128,-1,48
 63 36.4285714286 63 36.4285714286 63 50.2142857143 c 128,-1,49
 63 64 63 64 69.5 74 c 128,-1,50
 76 84 76 84 76 97 c 1,51,-1
 139 227 l 2,52,53
 140 229 140 229 141.5 234 c 128,-1,54
 143 239 143 239 144 241 c 1,0,-1
EndSplineSet
EndChar

StartChar: Y
Encoding: 89 89 60
Width: 424
Flags: HW
LayerCount: 2
Fore
SplineSet
318 32 m 1,0,1
 319.085714286 21.1428571429 319.085714286 21.1428571429 319.085714286 11.8367346939 c 0,2,3
 319.085714286 -44 319.085714286 -44 280 -44 c 0,4,5
 238.666666667 -44 238.666666667 -44 226 -6 c 1,6,7
 227 -1 227 -1 228.5 13 c 128,-1,8
 230 27 230 27 232.5 42.5 c 128,-1,9
 235 58 235 58 237 71.5 c 128,-1,10
 239 85 239 85 242 110.5 c 128,-1,11
 245 136 245 136 252.5 180.5 c 128,-1,12
 260 225 260 225 260 270 c 2,13,-1
 260 285 l 1,14,-1
 244 293 l 2,15,16
 198.842105263 315.578947368 198.842105263 315.578947368 101.5 398.5 c 0,17,18
 30.9142857143 458.628571429 30.9142857143 458.628571429 18.4571428571 477.314285714 c 128,-1,19
 6 496 6 496 6 510 c 128,-1,20
 6 524 6 524 19 531.5 c 128,-1,21
 32 539 32 539 53 539 c 128,-1,22
 74 539 74 539 87 526 c 0,23,24
 178.647058824 424.705882353 178.647058824 424.705882353 268 370 c 1,25,-1
 272 383 l 1,26,-1
 314 653 l 2,27,28
 317.090909091 670 317.090909091 670 346 670 c 0,29,30
 399 670 399 670 399 616 c 2,31,-1
 399 614 l 1,32,-1
 391 585 l 2,33,34
 383.796610169 556.186440678 383.796610169 556.186440678 356.794856809 334.386323787 c 128,-1,35
 329.793103448 112.586206897 329.793103448 112.586206897 318 32 c 1,0,1
EndSplineSet
EndChar

StartChar: Z
Encoding: 90 90 61
Width: 748
Flags: HW
LayerCount: 2
Fore
SplineSet
715.5 140 m 128,-1,1
 732 132 732 132 732 110.653846154 c 128,-1,2
 732 89.3076923077 732 89.3076923077 707 72 c 1,3,4
 510 72 510 72 150 0 c 0,5,6
 147 -1 147 -1 143 -1 c 2,7,-1
 134 -1 l 2,8,9
 98.1428571429 -1 98.1428571429 -1 80.5 18 c 0,10,11
 74 25 74 25 74 36 c 2,12,-1
 74 38 l 2,13,14
 74 46.3076923077 74 46.3076923077 91 71.1538461538 c 0,15,16
 139.972972973 142.72972973 139.972972973 142.72972973 313 418 c 1,17,-1
 285 418 l 1,18,-1
 90 388 l 1,19,-1
 80 388 l 2,20,21
 64.4545454545 388 64.4545454545 388 43.7272727273 400.666666667 c 128,-1,22
 23 413.333333333 23 413.333333333 23 428.166666667 c 128,-1,23
 23 443 23 443 31 450.5 c 0,24,25
 46.4666666667 465 46.4666666667 465 76 465 c 2,26,-1
 99 465 l 1,27,-1
 314 494 l 1,28,-1
 344 495 l 1,29,-1
 372 495 l 2,30,31
 428 495 428 495 428 452 c 0,32,33
 428 432.285714286 428 432.285714286 408 418 c 1,34,-1
 243 153 l 1,35,36
 228 143 228 143 219.5 122.5 c 128,-1,37
 211 102 211 102 200 88 c 1,38,39
 202.666666667 84 202.666666667 84 211 84 c 2,40,-1
 217 84 l 1,41,-1
 686 148 l 1,42,0
 699 148 699 148 715.5 140 c 128,-1,1
EndSplineSet
EndChar

StartChar: bracketleft
Encoding: 91 91 62
Width: 412
Flags: HW
LayerCount: 2
Fore
SplineSet
352 58 m 0,0,1
 393 58 393 58 393 25 c 0,2,3
 393 1.85714285714 393 1.85714285714 384 -2 c 2,4,-1
 114 -112 l 2,5,6
 111 -113 111 -113 108 -113 c 2,7,-1
 100 -113 l 2,8,9
 68 -113 68 -113 57.5 -92 c 128,-1,10
 47 -71 47 -71 47 -42 c 1,11,-1
 55 120 l 1,12,13
 55 157 55 157 52 194 c 128,-1,14
 49 231 49 231 47 273.5 c 128,-1,15
 45 316 45 316 45 363 c 128,-1,16
 45 410 45 410 42.5 458.5 c 128,-1,17
 40 507 40 507 37.5 560.5 c 128,-1,18
 35 614 35 614 31.5 645.5 c 128,-1,19
 28 677 28 677 25 693 c 128,-1,20
 22 709 22 709 22 726 c 2,21,-1
 22 733 l 1,22,23
 23 736 23 736 31 744 c 128,-1,24
 39 752 39 752 48 756.5 c 128,-1,25
 57 761 57 761 78.5 763 c 0,26,27
 123.175787728 767.155887231 123.175787728 767.155887231 249 834 c 1,28,29
 252 842 252 842 263 842 c 2,30,-1
 282 842 l 2,31,32
 309 842 309 842 309 817.368421053 c 128,-1,33
 309 792.736842105 309 792.736842105 270.5 774.5 c 0,34,35
 261 770 261 770 254 767 c 2,36,-1
 110 703 l 1,37,-1
 106 699 l 1,38,-1
 106 665 l 1,39,40
 117 497 117 497 126.757575758 355.303030303 c 128,-1,41
 136.515151515 213.606060606 136.515151515 213.606060606 136.515151515 129.409090909 c 128,-1,42
 136.515151515 45.2121212121 136.515151515 45.2121212121 135.257575758 18.1060606061 c 0,43,44
 133.556623932 -18.5566239316 133.556623932 -18.5566239316 139 -24 c 1,45,-1
 153 -24 l 1,46,-1
 326 53 l 1,47,48
 332 51 332 51 338.5 54.5 c 128,-1,49
 345 58 345 58 352 58 c 0,0,1
EndSplineSet
EndChar

StartChar: backslash
Encoding: 92 92 63
Width: 563
Flags: HW
LayerCount: 2
Fore
SplineSet
551 36 m 0,0,1
 551 -1 551 -1 514 -1 c 0,2,3
 502 -1 502 -1 487.5 4.5 c 128,-1,4
 473 10 473 10 467 22 c 2,5,-1
 10 879 l 1,6,-1
 10 880 l 2,7,8
 10 897 10 897 24.5 906.5 c 128,-1,9
 39 916 39 916 54.5 916 c 0,10,11
 82.4285714286 916 82.4285714286 916 99 887 c 2,12,-1
 526 92 l 1,13,14
 540 77 540 77 545.5 66 c 128,-1,15
 551 55 551 55 551 36 c 0,0,1
EndSplineSet
EndChar

StartChar: bracketright
Encoding: 93 93 64
Width: 420
Flags: HW
LayerCount: 2
Fore
SplineSet
207 -57 m 1,0,-1
 177 -65 l 1,1,2
 150 -65 150 -65 138 -57 c 1,3,4
 133.2 -37.8 133.2 -37.8 126 -27 c 1,5,-1
 126 -25 l 2,6,7
 126 -5.05405405405 126 -5.05405405405 172.5 5 c 0,8,9
 200.25 11 200.25 11 217.625 11 c 2,10,-1
 248.5 11 l 1,11,-1
 322 9 l 1,12,-1
 322 17 l 1,13,14
 321 42 321 42 315 87.5 c 0,15,16
 271.596100279 416.646239554 271.596100279 416.646239554 240 706 c 1,17,-1
 241 728.5 l 1,18,-1
 240 752 l 2,19,20
 240 756 240 756 239.5 763 c 128,-1,21
 239 770 239 770 238.5 777 c 128,-1,22
 238 784 238 784 236 794 c 1,23,-1
 231 798 l 1,24,-1
 100 785 l 1,25,26
 96 781 96 781 88 781 c 0,27,28
 62 781 62 781 42 788.5 c 0,29,30
 12 799.75 12 799.75 12 820.875 c 128,-1,31
 12 842 12 842 28.5 849 c 128,-1,32
 45 856 45 856 63 857 c 2,33,-1
 189 866 l 2,34,35
 208 867 208 867 228 870.5 c 128,-1,36
 248 874 248 874 266 874 c 128,-1,37
 284 874 284 874 301.5 868.5 c 128,-1,38
 319 863 319 863 325 841 c 1,39,-1
 321 807 l 1,40,-1
 321 785 l 2,41,42
 321 742.333333333 321 742.333333333 332 645.166666667 c 128,-1,43
 343 548 343 548 352 466.5 c 128,-1,44
 361 385 361 385 372.5 269.5 c 128,-1,45
 384 154 384 154 400 -6 c 1,46,-1
 401 -17 l 1,47,48
 401 -31 401 -31 394 -42 c 128,-1,49
 387 -53 387 -53 373 -53 c 2,50,-1
 301 -48 l 1,51,52
 248.4 -48 248.4 -48 207 -57 c 1,0,-1
EndSplineSet
EndChar

StartChar: asciicircum
Encoding: 94 94 65
Width: 354
Flags: HW
LayerCount: 2
Fore
SplineSet
316 683 m 0,0,1
 316 664 316 664 285.9375 664 c 128,-1,2
 255.875 664 255.875 664 244 683 c 2,3,-1
 177 782 l 1,4,5
 171.105263158 777.578947368 171.105263158 777.578947368 167.552631579 769.289473684 c 0,6,7
 152.509433962 734.188679245 152.509433962 734.188679245 100 652 c 0,8,9
 98 650 98 650 89.5 647 c 128,-1,10
 81 644 81 644 76.5 644 c 0,11,12
 63 644 63 644 46.6138773628 652.193061319 c 128,-1,13
 30.2277547257 660.386122637 30.2277547257 660.386122637 30.2277547257 668.936862122 c 0,14,15
 30.2277547257 671.89857077 30.2277547257 671.89857077 32 675 c 2,16,-1
 115 821 l 2,17,18
 116 823 116 823 118.5 829.5 c 128,-1,19
 121 836 121 836 124 843 c 128,-1,20
 127 850 127 850 130 856.5 c 128,-1,21
 133 863 133 863 136.181818182 870 c 128,-1,22
 139.363636364 877 139.363636364 877 158.181818182 877 c 128,-1,23
 177 877 177 877 183 875.5 c 128,-1,24
 189 874 189 874 195 868 c 1,25,26
 204.473684211 852.210526316 204.473684211 852.210526316 219.736842105 831.605263158 c 128,-1,27
 235 811 235 811 243.5 798.5 c 128,-1,28
 252 786 252 786 254 783.5 c 128,-1,29
 256 781 256 781 259 777.5 c 128,-1,30
 262 774 262 774 263.5 771.5 c 128,-1,31
 265 769 265 769 272 758.5 c 2,32,-1
 287 736 l 2,33,34
 295 724 295 724 302 713 c 128,-1,35
 309 702 309 702 312.5 696.75 c 128,-1,36
 316 691.5 316 691.5 316 683 c 0,0,1
EndSplineSet
EndChar

StartChar: underscore
Encoding: 95 95 66
Width: 596
Flags: HW
LayerCount: 2
Fore
SplineSet
535 166 m 1,0,-1
 554 165 l 1,1,2
 558 158 558 158 562.5 154 c 128,-1,3
 567 150 567 150 573.5 142.6875 c 0,4,5
 580 135.375 580 135.375 580 116 c 256,6,7
 580 104 580 104 568 95 c 128,-1,8
 556 86 556 86 545 84 c 2,9,-1
 80 0 l 1,10,-1
 79 0 l 2,11,12
 55 0 55 0 44 8 c 128,-1,13
 33 16 33 16 17 34 c 1,14,-1
 17 40 l 2,15,16
 17 45 17 45 21 55.5 c 128,-1,17
 25 66 25 66 30 68 c 1,18,-1
 535 166 l 1,0,-1
EndSplineSet
EndChar

StartChar: grave
Encoding: 96 96 67
Width: 250
Flags: HW
LayerCount: 2
Fore
SplineSet
234 608 m 1,0,1
 224.301464854 592.129669761 224.301464854 592.129669761 208.142617897 592.129669761 c 0,2,3
 173.995849101 592.129669761 173.995849101 592.129669761 111 663 c 1,4,-1
 100 674 l 2,5,6
 85.5907647908 688.409235209 85.5907647908 688.409235209 85.5907647908 697.984992785 c 128,-1,7
 85.5907647908 707.560750361 85.5907647908 707.560750361 90.2142857143 713.785714286 c 0,8,9
 106.612042824 735.863141456 106.612042824 735.863141456 121.08737308 735.863141456 c 128,-1,10
 135.562703337 735.863141456 135.562703337 735.863141456 147 728 c 1,11,12
 162 707 162 707 178 695 c 0,13,14
 218.25 664.8125 218.25 664.8125 226.534090909 650.315340909 c 128,-1,15
 234.818181818 635.818181818 234.818181818 635.818181818 234.818181818 625.181818182 c 128,-1,16
 234.818181818 614.545454545 234.818181818 614.545454545 234 608 c 1,0,1
EndSplineSet
EndChar

StartChar: a
Encoding: 97 97 68
Width: 399
Flags: HW
LayerCount: 2
Fore
SplineSet
281 59 m 1,0,-1
 268 182 l 1,1,-1
 268 186 l 1,2,3
 266 196 266 196 265.5 211 c 128,-1,4
 265 226 265 226 263 241.5 c 128,-1,5
 261 257 261 257 260 274 c 1,6,-1
 256 279 l 1,7,8
 246.372093023 261.88372093 246.372093023 261.88372093 222.186046512 214.441860465 c 0,9,10
 181.23857868 134.121827411 181.23857868 134.121827411 147.162207795 90.75190083 c 128,-1,11
 113.08583691 47.3819742489 113.08583691 47.3819742489 79 42 c 1,12,13
 41 42 41 42 24.5 58.5 c 0,14,15
 18 65 18 65 18 76 c 0,16,17
 21.1300505051 395.265151515 21.1300505051 395.265151515 154 514 c 0,18,19
 201 556 201 556 268 574 c 1,20,-1
 283 575 l 2,21,22
 284.016949153 575.033898305 284.016949153 575.033898305 285.014938236 575.033898305 c 0,23,24
 313.457627119 575.033898305 313.457627119 575.033898305 326.728813559 547.016949153 c 128,-1,25
 340 519 340 519 346.5 457.5 c 128,-1,26
 353 396 353 396 355.5 299.5 c 128,-1,27
 358 203 358 203 366 68 c 1,28,29
 370 53.3333333333 370 53.3333333333 370 30 c 0,30,31
 370 0 370 0 339.5 0 c 128,-1,32
 309 0 309 0 297 16 c 128,-1,33
 285 32 285 32 281 59 c 1,0,-1
234 477 m 1,34,35
 207 457 207 457 181 423 c 128,-1,36
 155 389 155 389 147 365.5 c 0,37,38
 133.13740458 324.778625954 133.13740458 324.778625954 122.56870229 264.889312977 c 128,-1,39
 112 205 112 205 112 190 c 1,40,41
 113 190 113 190 114.5 192 c 128,-1,42
 116 194 116 194 117 195 c 0,43,44
 179 255 179 255 204.5 324.5 c 128,-1,45
 230 394 230 394 234 477 c 1,34,35
EndSplineSet
EndChar

StartChar: b
Encoding: 98 98 69
Width: 384
Flags: HW
LayerCount: 2
Fore
SplineSet
127 637.5 m 1,0,-1
 124 499 l 2,1,2
 124 471 124 471 131 461 c 1,3,4
 142 465 142 465 143.5 465.5 c 128,-1,5
 145 466 145 466 147 467 c 2,6,-1
 165 481 l 2,7,8
 198.647058824 507 198.647058824 507 272 507 c 1,9,10
 378.362351057 491.307194106 378.362351057 491.307194106 378.362351057 409.299125691 c 0,11,12
 378.362351057 333.536467935 378.362351057 333.536467935 286 203.5 c 0,13,14
 228.535746606 122.59638009 228.535746606 122.59638009 113 -1 c 1,15,16
 75 -1 75 -1 54 26 c 0,17,18
 47 35 47 35 47 47 c 2,19,-1
 47 308 l 1,20,-1
 26 334 l 1,21,-1
 26 336 l 2,22,23
 26 350 26 350 43 367 c 1,24,-1
 43 418 l 2,25,26
 43 606.5 43 606.5 30 743 c 1,27,28
 30 756 30 756 39 762.5 c 128,-1,29
 48 769 48 769 55.7224382434 769.486149686 c 128,-1,30
 63.4448764867 769.972299373 63.4448764867 769.972299373 68.4600909451 769.972299373 c 0,31,32
 127 769.972299373 127 769.972299373 127 637.5 c 1,0,-1
135 171 m 1,33,-1
 136 139 l 1,34,-1
 136 129 l 1,35,36
 156.386666667 132.706666667 156.386666667 132.706666667 208 217.5 c 0,37,38
 287.282065875 347.749108223 287.282065875 347.749108223 287.282065875 404.101232949 c 0,39,40
 287.282065875 429.638685352 287.282065875 429.638685352 271 440 c 1,41,42
 237.071428571 440 237.071428571 440 193.305637165 408.57840617 c 128,-1,43
 149.539845758 377.156812339 149.539845758 377.156812339 135 346 c 1,44,45
 133.869565217 340.347826087 133.869565217 340.347826087 132.934782609 314.173913043 c 128,-1,46
 132 288 132 288 131.5 275 c 128,-1,47
 131 262 131 262 131 257 c 2,48,-1
 135 182 l 1,49,-1
 135 171 l 1,33,-1
EndSplineSet
EndChar

StartChar: c
Encoding: 99 99 70
Width: 354
Flags: HW
LayerCount: 2
Fore
SplineSet
110.867670159 157.851204271 m 0,0,1
 110.867670159 106.94578396 110.867670159 106.94578396 133 72 c 1,2,3
 152.6 72 152.6 72 179 105 c 1,4,5
 240.513157895 177.368421053 240.513157895 177.368421053 249.128919373 200.343784994 c 128,-1,6
 257.744680851 223.319148936 257.744680851 223.319148936 267.872340426 227.659574468 c 128,-1,7
 278 232 278 232 293 232 c 128,-1,8
 308 232 308 232 322 224.5 c 128,-1,9
 336 217 336 217 336 197 c 128,-1,10
 336 177 336 177 315.5 142.5 c 128,-1,11
 295 108 295 108 265.5 76 c 128,-1,12
 236 44 236 44 203 21.5 c 128,-1,13
 170 -1 170 -1 145.5 -1 c 0,14,15
 95.59375 -1 95.59375 -1 59.296875 34.196969697 c 128,-1,16
 23 69.3939393939 23 69.3939393939 23 120 c 1,17,18
 19.4573479175 135.182794639 19.4573479175 135.182794639 19.4573479175 152.958033682 c 0,19,20
 19.4573479175 202.968481126 19.4573479175 202.968481126 51.8735502838 284.500141623 c 128,-1,21
 84.2897526502 366.03180212 84.2897526502 366.03180212 140.5 411 c 0,22,23
 171.625002315 435.900001852 171.625002315 435.900001852 199.287500298 435.900001852 c 128,-1,24
 226.949998281 435.900001852 226.949998281 435.900001852 251 410 c 0,25,26
 251 409 251 409 252 405 c 0,27,28
 256 389 256 389 256 292 c 1,29,30
 260 284 260 284 260 279 c 1,31,32
 257 268 257 268 248.5 258.5 c 128,-1,33
 240 249 240 249 225 249 c 128,-1,34
 210 249 210 249 199.5 254.5 c 128,-1,35
 189 260 189 260 184 281 c 1,36,37
 187.492063492 286.238095238 187.492063492 286.238095238 181.246031746 316.219047619 c 128,-1,38
 175 346.2 175 346.2 175 358 c 1,39,40
 174 358 174 358 170 354 c 1,41,42
 110.867670159 249.648829692 110.867670159 249.648829692 110.867670159 157.851204271 c 0,0,1
EndSplineSet
EndChar

StartChar: d
Encoding: 100 100 71
Width: 412
Flags: HW
LayerCount: 2
Fore
SplineSet
281 154 m 2,0,1
 281 158 281 158 274 158 c 0,2,3
 273 158 273 158 260.5 136 c 128,-1,4
 248 114 248 114 227 88 c 0,5,6
 170.461538462 18 170.461538462 18 121.730769231 18 c 128,-1,7
 73 18 73 18 43.5 45 c 128,-1,8
 14 72 14 72 14 119 c 0,9,10
 13.5804145959 124.03502485 13.5804145959 124.03502485 13.5804145959 129.362041086 c 0,11,12
 13.5804145959 175.824528373 13.5804145959 175.824528373 47.5770814522 248.968872215 c 128,-1,13
 81.5737483085 322.113216058 81.5737483085 322.113216058 132.808231703 368.603765804 c 128,-1,14
 184.042715097 415.094315551 184.042715097 415.094315551 228.541054298 415.094315551 c 0,15,16
 240.396316685 415.094315551 240.396316685 415.094315551 252 412 c 1,17,-1
 252 426 l 2,18,19
 252 452 252 452 250.5 479.5 c 0,20,21
 243 617 243 617 243 736 c 1,22,23
 247.909090909 754 247.909090909 754 270.454545455 754 c 128,-1,24
 293 754 293 754 306.5 739 c 128,-1,25
 320 724 320 724 323 702 c 1,26,27
 321.518979149 676.822645526 321.518979149 676.822645526 321.518979149 620.328106496 c 0,28,29
 321.518979149 505.815513283 321.518979149 505.815513283 408 -95 c 1,30,-1
 408 -129 l 2,31,32
 408 -145 408 -145 370 -145 c 0,33,34
 355 -145 355 -145 338 -136.5 c 128,-1,35
 321 -128 321 -128 318 -113 c 2,36,-1
 281 154 l 2,0,1
97.25 117.875 m 1,37,38
 97.25 90 97.25 90 108 90 c 0,39,40
 109.248186865 89.9500725254 109.248186865 89.9500725254 110.499828808 89.9500725254 c 0,41,42
 156.878020188 89.9500725254 156.878020188 89.9500725254 208.759322594 159.51818257 c 128,-1,43
 260.640625 229.086292614 260.640625 229.086292614 260.640625 287.952636719 c 0,44,45
 260.640625 311.359375 260.640625 311.359375 249.398090278 322.601909722 c 128,-1,46
 238.155555556 333.844444444 238.155555556 333.844444444 224.3 333.844444444 c 128,-1,47
 210.444444444 333.844444444 210.444444444 333.844444444 198 331 c 1,48,49
 98 242.627906977 98 242.627906977 98 136 c 1,50,-1
 97.25 117.875 l 1,37,38
EndSplineSet
EndChar

StartChar: e
Encoding: 101 101 72
Width: 445
Flags: HW
LayerCount: 2
Fore
SplineSet
116.741812483 3.85887206907 m 0,0,1
 74.0973296075 3.85887206907 74.0973296075 3.85887206907 54 33 c 128,-1,2
 34 62 34 62 34 103.75 c 128,-1,3
 34 145.5 34 145.5 43 186 c 1,4,5
 32 196 32 196 24 203.5 c 128,-1,6
 16 211 16 211 16 223.5 c 128,-1,7
 16 236 16 236 21.5 240 c 128,-1,8
 27 244 27 244 41.1666666667 246.833333333 c 128,-1,9
 55.3333333333 249.666666667 55.3333333333 249.666666667 58.1666666667 256.333333333 c 128,-1,10
 61 263 61 263 66.5 279 c 128,-1,11
 72 295 72 295 78 312.5 c 128,-1,12
 84 330 84 330 89.5 345.5 c 128,-1,13
 95 361 95 361 99.5 372.5 c 0,14,15
 114.689530686 411.317689531 114.689530686 411.317689531 136.737622486 438.158844765 c 128,-1,16
 158.785714286 465 158.785714286 465 196 465 c 0,17,18
 220.290322581 465 220.290322581 465 258.64516129 427.84375 c 128,-1,19
 297 390.6875 297 390.6875 297 370.84375 c 128,-1,20
 297 351 297 351 290 338.5 c 128,-1,21
 283 326 283 326 272.5 315.5 c 0,22,23
 248.666666667 291.666666667 248.666666667 291.666666667 233.333333333 282.333333333 c 128,-1,24
 218 273 218 273 214.5 269.5 c 2,25,-1
 207 262 l 2,26,27
 203 258 203 258 199.5 254 c 128,-1,28
 196 250 196 250 194 248 c 128,-1,29
 192 246 192 246 183.5 239.5 c 128,-1,30
 175 233 175 233 165 225.5 c 128,-1,31
 155 218 155 218 146.5 211.5 c 128,-1,32
 138 205 138 205 135 203 c 1,33,34
 129 191 129 191 127.5 177.5 c 128,-1,35
 126 164 126 164 122.5 134.25 c 128,-1,36
 119 104.5 119 104.5 119 92.25 c 128,-1,37
 119 80 119 80 123 80 c 0,38,39
 131 80 131 80 138 87 c 128,-1,40
 145 94 145 94 153 97 c 1,41,-1
 313 245 l 1,42,-1
 354 308 l 2,43,44
 359 315 359 315 373.5 323.5 c 128,-1,45
 388 332 388 332 403 332.5 c 128,-1,46
 418 333 418 333 429.5 323 c 128,-1,47
 441 313 441 313 441 284 c 1,48,49
 437.260869565 250.347826087 437.260869565 250.347826087 429.630434783 240.173913043 c 128,-1,50
 422 230 422 230 411 221.5 c 128,-1,51
 400 213 400 213 364.714285714 184.214285714 c 128,-1,52
 329.428571429 155.428571429 329.428571429 155.428571429 289.714285714 116.214285714 c 128,-1,53
 250 77 250 77 233 61 c 128,-1,54
 216 45 216 45 197.5 32.5 c 1,55,56
 133.246311098 3.85887206907 133.246311098 3.85887206907 116.741812483 3.85887206907 c 0,0,1
221 362 m 2,57,58
 225.166666667 365.333333333 225.166666667 365.333333333 225.166666667 372.888888889 c 128,-1,59
 225.166666667 380.444444444 225.166666667 380.444444444 220.083333333 387.222222222 c 0,60,61
 213.6640625 395.78125 213.6640625 395.78125 206.91015625 395.78125 c 128,-1,62
 200.15625 395.78125 200.15625 395.78125 196.078125 389.890625 c 128,-1,63
 192 384 192 384 184.5 372 c 0,64,65
 153.875 323 153.875 323 153.875 319.046875 c 0,66,67
 153.875 318.25 153.875 318.25 155 319 c 2,68,-1
 221 362 l 2,57,58
EndSplineSet
EndChar

StartChar: f
Encoding: 102 102 73
Width: 293
Flags: HW
LayerCount: 2
Fore
SplineSet
116 538.5 m 1,0,-1
 116 470.5 l 2,1,2
 116 439 116 439 125 373 c 1,3,-1
 133 373 l 1,4,-1
 268 453 l 1,5,6
 282 456 282 456 293 463 c 128,-1,7
 304 470 304 470 318 470 c 256,8,9
 332 470 332 470 347 463 c 128,-1,10
 362 456 362 456 362 443 c 128,-1,11
 362 430 362 430 357 425 c 128,-1,12
 352 420 352 420 349 411 c 1,13,14
 329.333333333 406.083333333 329.333333333 406.083333333 267.666666667 367.541666667 c 128,-1,15
 206 329 206 329 200 325 c 128,-1,16
 194 321 194 321 184 314 c 128,-1,17
 174 307 174 307 164.5 299.5 c 128,-1,18
 155 292 155 292 141 281 c 1,19,-1
 141 271 l 1,20,-1
 167 186 l 1,21,22
 164.142857143 177.428571429 164.142857143 177.428571429 171 174 c 1,23,-1
 218 31 l 2,24,25
 219.428571429 25.8571428571 219.428571429 25.8571428571 219.428571429 17.7142857143 c 128,-1,26
 219.428571429 9.57142857143 219.428571429 9.57142857143 208.714285714 -0.714285714286 c 128,-1,27
 198 -11 198 -11 181 -11 c 128,-1,28
 164 -11 164 -11 147 -1.5 c 128,-1,29
 130 8 130 8 125 27 c 2,30,-1
 70 208 l 1,31,-1
 66 216 l 1,32,33
 58.4220953667 214.622199158 58.4220953667 214.622199158 51.8289133023 214.622199158 c 0,34,35
 24.3816525402 214.622199158 24.3816525402 214.622199158 14 238.5 c 0,36,37
 9.45454545455 248.954545455 9.45454545455 248.954545455 9.45454545455 260.772727273 c 128,-1,38
 9.45454545455 272.590909091 9.45454545455 272.590909091 14 276 c 1,39,40
 17 277 17 277 27.5 284 c 2,41,-1
 39.5 292 l 2,42,43
 41 293 41 293 45 297 c 1,44,-1
 45 315 l 2,45,46
 45 371 45 371 38.5 425.5 c 128,-1,47
 32 480 32 480 32 525.5 c 128,-1,48
 32 571 32 571 33.5 610 c 0,49,50
 39.1538461538 757 39.1538461538 757 155 757 c 2,51,-1
 174 757 l 2,52,53
 218 757 218 757 218 727 c 0,54,55
 218 709 218 709 209.5 703.5 c 128,-1,56
 201 698 201 698 188 696.5 c 128,-1,57
 175 695 175 695 157.421524664 691.860986547 c 128,-1,58
 139.843049327 688.721973094 139.843049327 688.721973094 133.066685954 669.52227687 c 128,-1,59
 126.290322581 650.322580645 126.290322581 650.322580645 123.14516129 625.161290323 c 128,-1,60
 120 600 120 600 118.5 590.5 c 128,-1,61
 117 581 117 581 117 580 c 258,62,-1
 117 572.5 l 1,63,-1
 116 538.5 l 1,0,-1
EndSplineSet
EndChar

StartChar: g
Encoding: 103 103 74
Width: 416
Flags: HW
LayerCount: 2
Fore
SplineSet
213.153316426 -383.831860598 m 0,0,1
 69.0973449502 -383.831860598 69.0973449502 -383.831860598 72 -349 c 1,2,3
 68 -338 68 -338 72.5 -324 c 128,-1,4
 77 -310 77 -310 91 -306 c 1,5,6
 125.555726759 -321.024229026 125.555726759 -321.024229026 173.680534155 -321.024229026 c 128,-1,7
 221.805341551 -321.024229026 221.805341551 -321.024229026 288 -298 c 1,8,9
 311 -279 311 -279 319.181818182 -251.272727273 c 128,-1,10
 327.363636364 -223.545454545 327.363636364 -223.545454545 327.363636364 -170.090909091 c 128,-1,11
 327.363636364 -116.636363636 327.363636364 -116.636363636 284 158 c 0,12,13
 284 161 284 161 284.5 167 c 128,-1,14
 285 173 285 173 284 178.5 c 0,15,16
 281.44 192.58 281.44 192.58 274 187 c 1,17,18
 236.519480519 114.922077922 236.519480519 114.922077922 208.75974026 83.461038961 c 128,-1,19
 181 52 181 52 153.5 35 c 128,-1,20
 126 18 126 18 94 18 c 128,-1,21
 62 18 62 18 39.5 35.5 c 128,-1,22
 17 53 17 53 17 82 c 128,-1,23
 17 111 17 111 27.5 149 c 128,-1,24
 38 187 38 187 56 229.5 c 0,25,26
 94.154158215 319.586206897 94.154158215 319.586206897 150.518255578 393.293103448 c 128,-1,27
 206.882352941 467 206.882352941 467 253.524509804 467 c 128,-1,28
 300.166666667 467 300.166666667 467 338.5 437 c 0,29,30
 350 428 350 428 350 416 c 2,31,-1
 350 335 l 1,32,-1
 415 -137 l 1,33,34
 415 -177 415 -177 413.5 -213.5 c 0,35,36
 408.389545186 -337.854400473 408.389545186 -337.854400473 292 -375 c 1,37,38
 274.336278804 -383.831860598 274.336278804 -383.831860598 213.153316426 -383.831860598 c 0,0,1
228 378 m 1,39,40
 190.921348315 337.213483146 190.921348315 337.213483146 145.850450515 251.169041893 c 0,41,42
 95.037037037 154.161616162 95.037037037 154.161616162 95.037037037 118.477366255 c 0,43,44
 95.037037037 105.259259259 95.037037037 105.259259259 104 102 c 1,45,46
 145.530588235 123.754117647 145.530588235 123.754117647 193.796897577 194.469873195 c 0,47,48
 259.435656568 290.63828753 259.435656568 290.63828753 259.435656568 349.044366142 c 0,49,50
 259.435656568 378.452480794 259.435656568 378.452480794 234.555222097 378.452480794 c 0,51,52
 231.469019421 378.452480794 231.469019421 378.452480794 228 378 c 1,39,40
EndSplineSet
EndChar

StartChar: h
Encoding: 104 104 75
Width: 388
Flags: HW
LayerCount: 2
Fore
SplineSet
123 0 m 0,0,1
 61.6719259132 0 61.6719259132 0 61.6719259132 66.8708446311 c 0,2,3
 61.6719259132 76.7113702624 61.6719259132 76.7113702624 63 88 c 1,4,-1
 38 489 l 1,5,6
 38.4444444444 502.333333333 38.4444444444 502.333333333 38.4444444444 532.333333333 c 128,-1,7
 38.4444444444 562.333333333 38.4444444444 562.333333333 32.2222222222 615.666666667 c 128,-1,8
 26 669 26 669 26 728 c 0,9,10
 26 747 26 747 37 751.5 c 128,-1,11
 48 756 48 756 65 756 c 128,-1,12
 82 756 82 756 95 745 c 128,-1,13
 108 734 108 734 110 714 c 0,14,15
 119 605 119 605 120.5 498.5 c 128,-1,16
 122 392 122 392 135 283 c 1,17,18
 197.122587968 401.03291714 197.122587968 401.03291714 258.5 426 c 0,19,20
 270.921052632 431.052631579 270.921052632 431.052631579 284.618421053 431.052631579 c 128,-1,21
 298.315789474 431.052631579 298.315789474 431.052631579 312.5 421.5 c 0,22,23
 337 405 337 405 353.779251011 350.747088398 c 128,-1,24
 370.558502022 296.494176797 370.558502022 296.494176797 370.558502022 207.103021117 c 128,-1,25
 370.558502022 117.711865438 370.558502022 117.711865438 360 17 c 1,26,27
 353 17 353 17 343 16.5 c 0,28,29
 301.198757764 14.4099378882 301.198757764 14.4099378882 299 32 c 1,30,31
 308.222252092 118.458613358 308.222252092 118.458613358 308.222252092 179.722832142 c 0,32,33
 308.222252092 288.777747908 308.222252092 288.777747908 279 318 c 0,34,35
 267.2 329.8 267.2 329.8 252 326 c 1,36,37
 209.643037975 310.597468354 209.643037975 310.597468354 180.74397888 225.964509578 c 128,-1,38
 151.844919786 141.331550802 151.844919786 141.331550802 151.844919786 75.0616546084 c 0,39,40
 151.844919786 60.8609625668 151.844919786 60.8609625668 153 47 c 1,41,42
 152 39 152 39 151 31 c 0,43,44
 147.125 0 147.125 0 123 0 c 0,0,1
EndSplineSet
EndChar

StartChar: i
Encoding: 105 105 76
Width: 173
Flags: HW
LayerCount: 2
Fore
SplineSet
150 80 m 1,0,-1
 158 38 l 1,1,-1
 158 36 l 1,2,3
 158.52173913 27.9243856333 l 2,4,5
 158.52173913 21.4782608696 158.52173913 21.4782608696 148.371980676 10.4057971014 c 128,-1,6
 138.222222222 -0.666666666667 138.222222222 -0.666666666667 134.277777778 -0.666666666667 c 128,-1,7
 130.333333333 -0.666666666667 130.333333333 -0.666666666667 113.166666667 2.76666666667 c 0,8,9
 92.1612903226 6.96774193548 92.1612903226 6.96774193548 78.5306451613 19.0838709677 c 128,-1,10
 64.9 31.2 64.9 31.2 70 38 c 1,11,12
 60 138 60 138 53 209 c 128,-1,13
 46 280 46 280 41 328 c 128,-1,14
 36 376 36 376 32.5 404.5 c 128,-1,15
 29 433 29 433 27 447.5 c 128,-1,16
 25 462 25 462 24 467 c 128,-1,17
 23 472 23 472 23 473 c 2,18,-1
 23 477 l 2,19,20
 23 488 23 488 32.5 495.5 c 128,-1,21
 42 503 42 503 54.5 503 c 0,22,23
 98.25 503 98.25 503 108 477 c 1,24,25
 119.688854489 413.360681115 119.688854489 413.360681115 124.344427245 321.180340557 c 128,-1,26
 129 229 129 229 133.5 179 c 128,-1,27
 138 129 138 129 150 80 c 1,0,-1
14 767 m 0,28,29
 14 774 14 774 25.5 779.5 c 128,-1,30
 37 785 37 785 47.5 785 c 128,-1,31
 58 785 58 785 76.5 776.5 c 128,-1,32
 95 768 95 768 95 751 c 256,33,34
 95 734 95 734 90.5 728 c 128,-1,35
 86 722 86 722 68.5 722 c 128,-1,36
 51 722 51 722 32.5 734 c 128,-1,37
 14 746 14 746 14 767 c 0,28,29
EndSplineSet
EndChar

StartChar: j
Encoding: 106 106 77
Width: 201
Flags: HW
LayerCount: 2
Fore
SplineSet
57 466 m 1,0,1
 57 501 57 501 88 501 c 0,2,3
 108 501 108 501 121 495.5 c 128,-1,4
 134 490 134 490 145 471 c 1,5,6
 145 442.428571429 145 442.428571429 151.5 380.214285714 c 0,7,8
 170.526315789 198.105263158 170.526315789 198.105263158 184 -4 c 1,9,10
 184 -130.1875 184 -130.1875 121 -194.5 c 0,11,12
 97 -219 97 -219 61 -230 c 1,13,14
 55 -228 55 -228 49 -231 c 128,-1,15
 43 -234 43 -234 30 -234 c 0,16,17
 -7 -234 -7 -234 -53.7168674699 -217.012048193 c 128,-1,18
 -100.43373494 -200.024096386 -100.43373494 -200.024096386 -116 -165 c 1,19,20
 -116 -111.666666667 -116 -111.666666667 -95 -110.5 c 0,21,22
 -86 -110 -86 -110 -74.5 -118 c 128,-1,23
 -63 -126 -63 -126 -49.5 -136 c 128,-1,24
 -36 -146 -36 -146 -22.5 -155.5 c 128,-1,25
 -9 -165 -9 -165 4 -167 c 1,26,27
 53.1090909091 -167 53.1090909091 -167 78.5 -100.5 c 0,28,29
 96 -54.6666666667 96 -54.6666666667 96 7 c 2,30,-1
 96 13.5 l 2,31,32
 96 44.8 96 44.8 57 466 c 1,0,1
10 728 m 0,33,34
 10 755 10 755 47 755 c 0,35,36
 66 755 66 755 83 744 c 128,-1,37
 100 733 100 733 100 715 c 128,-1,38
 100 697 100 697 86.5 691.5 c 128,-1,39
 73 686 73 686 64.5 686 c 0,40,41
 47.9166666667 686 47.9166666667 686 28.9583333333 699.382352941 c 128,-1,42
 10 712.764705882 10 712.764705882 10 728 c 0,33,34
EndSplineSet
EndChar

StartChar: k
Encoding: 107 107 78
Width: 399
Flags: HW
LayerCount: 2
Fore
SplineSet
33 47 m 2,0,1
 32.3333333333 65.6666666667 32.3333333333 65.6666666667 32.3333333333 135.833333333 c 128,-1,2
 32.3333333333 206 32.3333333333 206 34.1666666667 338 c 128,-1,3
 36 470 36 470 36 568.25 c 128,-1,4
 36 666.5 36 666.5 33 668 c 1,5,6
 33 678 33 678 39.6956521739 688.043478261 c 128,-1,7
 46.3913043478 698.086956522 46.3913043478 698.086956522 51.0326086957 698.086956522 c 128,-1,8
 55.6739130435 698.086956522 55.6739130435 698.086956522 60.8369565217 697.543478261 c 0,9,10
 80.8051948052 695.441558442 80.8051948052 695.441558442 99.4025974026 685.10966811 c 128,-1,11
 118 674.777777778 118 674.777777778 118 656 c 2,12,-1
 118 364 l 1,13,-1
 122 364 l 1,14,-1
 237 495 l 2,15,16
 244 504 244 504 250.5 516 c 128,-1,17
 257 528 257 528 264 539 c 0,18,19
 281.421052632 566.37593985 281.421052632 566.37593985 303 571 c 1,20,21
 324 566 324 566 339 557 c 128,-1,22
 354 548 354 548 354 525 c 0,23,24
 354 516.473684211 354 516.473684211 341 500.736842105 c 128,-1,25
 328 485 328 485 306.5 458.5 c 128,-1,26
 285 432 285 432 248.5 388.5 c 128,-1,27
 212 345 212 345 155 276 c 1,28,-1
 164 271 l 1,29,-1
 358 251 l 2,30,31
 371 249 371 249 381.5 236.5 c 128,-1,32
 392 224 392 224 392 208.5 c 128,-1,33
 392 193 392 193 377.5 184.5 c 128,-1,34
 363 176 363 176 346 174 c 1,35,36
 345 178 345 178 339.5 178.5 c 2,37,-1
 312 181 l 2,38,39
 215.905660377 189.735849057 215.905660377 189.735849057 122 204 c 1,40,-1
 126 -34 l 2,41,42
 126 -54 126 -54 119 -64.5 c 128,-1,43
 112 -75 112 -75 91 -75 c 128,-1,44
 70 -75 70 -75 56.5 -63.5 c 128,-1,45
 43 -52 43 -52 37 -37 c 1,46,-1
 33 47 l 2,0,1
EndSplineSet
EndChar

StartChar: l
Encoding: 108 108 79
Width: 153
Flags: HW
LayerCount: 2
Fore
SplineSet
32.75 402.46875 m 2,0,-1
 33.0833333333 475.788194444 l 2,1,2
 33.0833333333 576.583333333 33.0833333333 576.583333333 23 682 c 1,3,4
 23 701 23 701 32 707.5 c 128,-1,5
 41 714 41 714 61.5 714 c 128,-1,6
 82 714 82 714 98.5 700.5 c 128,-1,7
 115 687 115 687 116 663 c 1,8,9
 115.466666667 625.133333333 115.466666667 625.133333333 115.466666667 554.466666667 c 128,-1,10
 115.466666667 483.8 115.466666667 483.8 120.233333333 362.9 c 128,-1,11
 125 242 125 242 125 99 c 2,12,-1
 125 22 l 1,13,14
 108.561204013 0.0816053511706 108.561204013 0.0816053511706 88.3105133052 0.0816053511706 c 0,15,16
 60.4561692127 0.0816053511706 60.4561692127 0.0816053511706 45.7280846063 21.0408026756 c 128,-1,17
 31 42 31 42 31 70 c 2,18,-1
 35 234 l 1,19,20
 32.75 319.5 32.75 319.5 32.75 402.46875 c 2,0,-1
EndSplineSet
EndChar

StartChar: m
Encoding: 109 109 80
Width: 581
Flags: HW
LayerCount: 2
Fore
SplineSet
122.603200621 406.264684677 m 1,0,-1
 124 359 l 1,1,2
 124 303 124 303 131 296 c 1,3,-1
 219 461 l 2,4,5
 232.320574163 485.421052632 232.320574163 485.421052632 258.709141274 485.421052632 c 0,6,7
 299.390977444 485.421052632 299.390977444 485.421052632 310.5 459.5 c 0,8,9
 315 449 315 449 315.5 434 c 128,-1,10
 316 419 316 419 316.5 407 c 0,11,12
 319.944444444 324.333333333 319.944444444 324.333333333 326 288 c 1,13,-1
 330 288 l 1,14,15
 332 295 332 295 337.5 315 c 128,-1,16
 343 335 343 335 350 357 c 128,-1,17
 357 379 357 379 363 399 c 128,-1,18
 369 419 369 419 371 424 c 128,-1,19
 373 429 373 429 376 435.5 c 128,-1,20
 379 442 379 442 382 449.5 c 128,-1,21
 385 457 385 457 388 463.5 c 128,-1,22
 391 470 391 470 395 477 c 128,-1,23
 399 484 399 484 406.5 484.5 c 128,-1,24
 414 485 414 485 431 485 c 128,-1,25
 448 485 448 485 461.5 472.5 c 128,-1,26
 475 460 475 460 481.5 441 c 128,-1,27
 488 422 488 422 491 399.5 c 128,-1,28
 494 377 494 377 496.5 367.5 c 128,-1,29
 499 358 499 358 499 356.5 c 128,-1,30
 499 355 499 355 498 354 c 1,31,-1
 553 63 l 1,32,33
 558 58 558 58 558 47.5 c 128,-1,34
 558 37 558 37 547.5 26.5 c 128,-1,35
 537 16 537 16 524 16 c 128,-1,36
 511 16 511 16 491.5 27 c 128,-1,37
 472 38 472 38 469 55 c 2,38,-1
 423 292 l 1,39,-1
 418 300 l 1,40,41
 413.038461538 287.596153846 413.038461538 287.596153846 399.019230769 232.298076923 c 128,-1,42
 385 177 385 177 373.5 133 c 128,-1,43
 362 89 362 89 350 43 c 0,44,45
 346 25 346 25 315 25 c 0,46,47
 282 25 282 25 269.783018868 42.4528301887 c 128,-1,48
 257.566037736 59.9056603774 257.566037736 59.9056603774 253 101 c 1,49,-1
 237 300 l 1,50,-1
 237 309.5 l 2,51,52
 237 312 237 312 232 322 c 1,53,-1
 203 253 l 1,54,-1
 157 84 l 1,55,-1
 147 22 l 2,56,57
 143.333333333 5.68434188608e-14 143.333333333 5.68434188608e-14 115.166666667 2.84217094304e-14 c 128,-1,58
 87 0 87 0 71.5 16 c 128,-1,59
 56 32 56 32 55 45 c 128,-1,60
 54 58 54 58 53 78.5 c 128,-1,61
 52 99 52 99 50 127 c 128,-1,62
 48 155 48 155 46.5 186 c 128,-1,63
 45 217 45 217 43 245 c 2,64,-1
 39.5 294 l 2,65,66
 38 315 38 315 38 322 c 2,67,-1
 38 326 l 1,68,69
 32.5384615385 397 32.5384615385 397 26 431 c 1,70,71
 26 453 26 453 40.5 459 c 128,-1,72
 55 465 55 465 72 465 c 2,73,-1
 92 465 l 1,74,75
 122.603200621 450.718506377 122.603200621 450.718506377 122.603200621 406.264684677 c 1,0,-1
EndSplineSet
EndChar

StartChar: n
Encoding: 110 110 81
Width: 414
Flags: HW
LayerCount: 2
Fore
SplineSet
393 35 m 2,0,1
 393 0 393 0 368 0 c 0,2,3
 351 0 351 0 333 9.5 c 128,-1,4
 315 19 315 19 308 34 c 1,5,6
 288.626631854 61.6762402089 288.626631854 61.6762402089 273.313315927 132.838120104 c 128,-1,7
 258 204 258 204 251 241.5 c 0,8,9
 234.989090909 327.272727273 234.989090909 327.272727273 218.338842975 327.272727273 c 0,10,11
 209.909090909 327.272727273 209.909090909 327.272727273 199 300 c 1,12,-1
 112 32 l 2,13,14
 103.071428571 7 103.071428571 7 81 7 c 128,-1,15
 59 7 59 7 41.9253731343 17.671641791 c 128,-1,16
 24.8507462687 28.3432835821 24.8507462687 28.3432835821 23 45 c 1,17,18
 34.033245516 89.1329820642 34.033245516 89.1329820642 34.033245516 258.149969538 c 0,19,20
 34.033245516 404.106865947 34.033245516 404.106865947 32.016622758 430.553432973 c 0,21,22
 28.958974359 470.652307692 28.958974359 470.652307692 34.0072649573 488.826153846 c 128,-1,23
 39.0555555556 507 39.0555555556 507 60.5277777778 507 c 128,-1,24
 82 507 82 507 98.5 491 c 128,-1,25
 115 475 115 475 115 457 c 2,26,-1
 110 354 l 1,27,-1
 110 327 l 2,28,29
 110 316 110 316 114 300 c 1,30,31
 117 308 117 308 124 328 c 128,-1,32
 131 348 131 348 139.5 370 c 128,-1,33
 148 392 148 392 155 411.5 c 128,-1,34
 162 431 162 431 167 445 c 128,-1,35
 172 459 172 459 186 477.5 c 0,36,37
 201.297297297 497.714285714 201.297297297 497.714285714 220.541505792 497.714285714 c 0,38,39
 252.625615764 497.714285714 252.625615764 497.714285714 269.974970044 469.762548263 c 128,-1,40
 287.324324324 441.810810811 287.324324324 441.810810811 296 410 c 1,41,-1
 350 161 l 1,42,-1
 392 47 l 2,43,44
 393 46 393 46 393 41.5 c 2,45,-1
 393 35 l 2,0,1
EndSplineSet
EndChar

StartChar: o
Encoding: 111 111 82
Width: 338
Flags: HW
LayerCount: 2
Fore
SplineSet
153 392 m 1,0,-1
 154 392 l 2,1,2
 166 392 166 392 175.5 396.5 c 128,-1,3
 185 401 185 401 199 401 c 0,4,5
 256.350877193 401 256.350877193 401 290 332.5 c 0,6,7
 317 277.535714286 317 277.535714286 317 213 c 0,8,9
 317 183 317 183 301.5 146 c 128,-1,10
 286 109 286 109 260.5 76 c 128,-1,11
 235 43 235 43 203 21 c 128,-1,12
 171 -1 171 -1 139.5 -1 c 0,13,14
 82.5813953488 -1 82.5813953488 -1 54.2906976744 44.0555555556 c 128,-1,15
 26 89.1111111111 26 89.1111111111 26 150 c 2,16,-1
 26 153 l 1,17,-1
 63 410 l 2,18,19
 66.8461538462 435 66.8461538462 435 99.1730769231 435 c 128,-1,20
 131.5 435 131.5 435 153 392 c 1,0,-1
110 147 m 1,21,22
 112 137 112 137 114 124 c 128,-1,23
 116 111 116 111 121.546331669 96.4408793689 c 128,-1,24
 127.092663338 81.8817587377 127.092663338 81.8817587377 142.030401629 81.8817587377 c 0,25,26
 147.068924466 81.8817587377 147.068924466 81.8817587377 153 84 c 1,27,28
 213.417266187 139.769784173 213.417266187 139.769784173 232 179 c 0,29,30
 241 198 241 198 241.615384615 213.730769231 c 128,-1,31
 242.230769231 229.461538462 242.230769231 229.461538462 242.230769231 245.615384615 c 128,-1,32
 242.230769231 261.769230769 242.230769231 261.769230769 234.615384615 285.884615385 c 128,-1,33
 227 310 227 310 214.0625 319.801136364 c 128,-1,34
 201.125 329.602272727 201.125 329.602272727 191.596590909 329.602272727 c 0,35,36
 158.601102941 329.602272727 158.601102941 329.602272727 134.300551471 279.528409091 c 128,-1,37
 110 229.454545455 110 229.454545455 110 150 c 2,38,-1
 110 147 l 1,21,22
EndSplineSet
EndChar

StartChar: p
Encoding: 112 112 83
Width: 422
Flags: HW
LayerCount: 2
Fore
SplineSet
153 -215 m 1,0,1
 153 -272 153 -272 123 -272 c 0,2,3
 103 -272 103 -272 83 -260.888888889 c 128,-1,4
 63 -249.777777778 63 -249.777777778 63 -234 c 2,5,-1
 55 180 l 1,6,7
 36 187 36 187 20.5 197 c 128,-1,8
 5 207 5 207 5 230 c 0,9,10
 5 236 5 236 8 238 c 128,-1,11
 11 240 11 240 13 243.5 c 128,-1,12
 15 247 15 247 21 255 c 0,13,14
 45 287 45 287 55 302 c 1,15,-1
 52.9375 347.09375 l 1,16,17
 52.9375 408 52.9375 408 96 408 c 0,18,19
 108 408 108 408 116 399.5 c 128,-1,20
 124 391 124 391 136 391 c 2,21,-1
 140 391 l 1,22,23
 181 423 181 423 224.5 447.5 c 128,-1,24
 268 472 268 472 312.5 472 c 0,25,26
 402 472 402 472 402 389.5 c 0,27,28
 402 312 402 312 328.5 203.5 c 0,29,30
 278.1 129.1 278.1 129.1 194 45 c 0,31,32
 191 41 191 41 183 35 c 128,-1,33
 175 29 175 29 161 15 c 1,34,-1
 153 -215 l 1,0,1
148 117 m 1,35,-1
 152 117 l 2,36,37
 153 117 153 117 158.5 123 c 128,-1,38
 164 129 164 129 176.272727273 142.090909091 c 128,-1,39
 188.545454545 155.181818182 188.545454545 155.181818182 198 167 c 1,40,41
 257.457831325 210.602409639 257.457831325 210.602409639 293.5 288.5 c 0,42,43
 314.136199278 333.100817794 314.136199278 333.100817794 314.136199278 355.3332052 c 128,-1,44
 314.136199278 377.565592607 314.136199278 377.565592607 305.606755548 384.730325339 c 128,-1,45
 297.077311819 391.895058072 297.077311819 391.895058072 287.410575259 391.895058072 c 0,46,47
 253.11793659 391.895058072 253.11793659 391.895058072 178 324 c 1,48,49
 147.302325581 298.418604651 147.302325581 298.418604651 144 272 c 1,50,-1
 148 117 l 1,35,-1
EndSplineSet
EndChar

StartChar: q
Encoding: 113 113 84
Width: 395
Flags: HW
LayerCount: 2
Fore
SplineSet
290.077946731 443.726274092 m 0,0,1
 367.090909091 443.726274092 367.090909091 443.726274092 367.090909091 408.556473829 c 0,2,3
 367.090909091 392.303030303 367.090909091 392.303030303 358 362 c 1,4,5
 358.8 332 358.8 332 358.8 302.08 c 2,6,7
 354 58.5 l 1,8,9
 354 -21 354 -21 361 -104 c 128,-1,10
 368 -187 368 -187 368 -232.5 c 128,-1,11
 368 -278 368 -278 365.5 -287 c 0,12,13
 356.989322533 -317.638438881 356.989322533 -317.638438881 336.140860574 -317.638438881 c 0,14,15
 333.192194404 -317.638438881 333.192194404 -317.638438881 330.77256779 -317.37804297 c 128,-1,16
 328.352941176 -317.117647059 328.352941176 -317.117647059 326.756055363 -317.117647059 c 0,17,18
 266.818181818 -317.117647059 266.818181818 -317.117647059 266.818181818 -117.805785124 c 1,19,-1
 273.424801016 114.660344078 l 1,20,21
 273.424801016 153.150397967 273.424801016 153.150397967 270 160 c 1,22,-1
 266 156 l 1,23,24
 219.8 63.6 219.8 63.6 178 27.5 c 0,25,26
 167 18 167 18 161 20 c 1,27,28
 146.857142857 11 146.857142857 11 120.428571429 11 c 0,29,30
 72.5675675676 11 72.5675675676 11 47.2837837838 49.9791666667 c 128,-1,31
 22 88.9583333333 22 88.9583333333 22 136.979166667 c 0,32,33
 22 230.222222222 22 230.222222222 79.914893617 313.877068558 c 128,-1,34
 137.829787234 397.531914894 137.829787234 397.531914894 219 430 c 1,35,36
 256.747253754 443.726274092 256.747253754 443.726274092 290.077946731 443.726274092 c 0,0,1
110 190 m 1,37,38
 96.8636363636 143.636363636 96.8636363636 143.636363636 96.8636363636 122.788009404 c 128,-1,39
 96.8636363636 101.939655172 96.8636363636 101.939655172 108.76843044 101.939655172 c 0,40,41
 126.7749614 101.939655172 126.7749614 101.939655172 158.3874807 143.469827586 c 128,-1,42
 190 185 190 185 213.5 226 c 0,43,44
 270 324.574468085 270 324.574468085 270 380 c 1,45,46
 175.172413793 342.068965517 175.172413793 342.068965517 110 190 c 1,37,38
EndSplineSet
EndChar

StartChar: r
Encoding: 114 114 85
Width: 357
Flags: HW
LayerCount: 2
Fore
SplineSet
119 397 m 1,0,-1
 119 382.5 l 2,1,2
 119 380 119 380 120 377 c 128,-1,3
 121 374 121 374 123 367 c 1,4,5
 127.571428571 371.571428571 127.571428571 371.571428571 137.285714286 385.285714286 c 0,6,7
 160.402489627 417.921161826 160.402489627 417.921161826 193 449.5 c 0,8,9
 280.480519481 534.246753247 280.480519481 534.246753247 294 536.5 c 0,10,11
 297 537 297 537 308 537 c 128,-1,12
 319 537 319 537 336.5 525.5 c 128,-1,13
 354 514 354 514 354 494.5 c 128,-1,14
 354 475 354 475 322.5 454 c 0,15,16
 315 449 315 449 309 447 c 1,17,18
 143 300.153846154 143 300.153846154 143 186 c 0,19,20
 143 152 143 152 148 119 c 128,-1,21
 153 86 153 86 153 52 c 2,22,-1
 153 17 l 1,23,24
 145 9 145 9 139 4 c 128,-1,25
 133 -1 133 -1 119 -1 c 128,-1,26
 105 -1 105 -1 89 13.5 c 128,-1,27
 73 28 73 28 68 43 c 1,28,29
 54.9 278.8 54.9 278.8 30 478 c 1,30,31
 30 499 30 499 65 499 c 0,32,33
 79 499 79 499 94.5 491 c 128,-1,34
 110 483 110 483 114 469 c 1,35,-1
 119 397 l 1,0,-1
EndSplineSet
EndChar

StartChar: s
Encoding: 115 115 86
Width: 412
Flags: HW
LayerCount: 2
Fore
SplineSet
314.5 275 m 0,0,1
 391 275 391 275 391 234.404761905 c 0,2,3
 391 213 391 213 381.5 195.5 c 0,4,5
 366.2 167.315789474 366.2 167.315789474 315.664516129 105.25466893 c 128,-1,6
 265.129032258 43.1935483871 265.129032258 43.1935483871 239 4 c 0,7,8
 235.666666667 -1 235.666666667 -1 219.333333333 -1 c 128,-1,9
 203 -1 203 -1 188.5 11 c 128,-1,10
 174 23 174 23 174 36.5 c 128,-1,11
 174 50 174 50 182.5 60 c 128,-1,12
 191 70 191 70 206 86.5 c 128,-1,13
 221 103 221 103 243.4 129.4 c 128,-1,14
 265.8 155.8 265.8 155.8 281 190 c 1,15,-1
 281 196 l 1,16,-1
 150 169 l 1,17,-1
 135 169 l 2,18,19
 60.125 169 60.125 169 27.5 198 c 0,20,21
 14.4821428571 209.571428571 14.4821428571 209.571428571 14.4821428571 230.970496894 c 0,22,23
 14.4821428571 291.645676692 14.4821428571 291.645676692 205 422 c 1,24,25
 252.25 449 252.25 449 305.125 449 c 128,-1,26
 358 449 358 449 358 412 c 0,27,28
 358 403 358 403 356.5 395 c 128,-1,29
 355 387 355 387 344 384 c 1,30,31
 335.467957919 384.799878945 335.467957919 384.799878945 327.02643348 384.799878945 c 0,32,33
 251.931577404 384.799878945 251.931577404 384.799878945 184 321.5 c 0,34,35
 143.403314917 283.671270718 143.403314917 283.671270718 130.201657459 265.335635359 c 128,-1,36
 117 247 117 247 117 245 c 2,37,-1
 117 244 l 1,38,39
 147.636363636 244 147.636363636 244 196.318181818 254.5 c 0,40,41
 291.363636364 275 291.363636364 275 314.5 275 c 0,0,1
EndSplineSet
EndChar

StartChar: t
Encoding: 116 116 87
Width: 441
Flags: HW
LayerCount: 2
Fore
SplineSet
138 756 m 0,0,1
 185 756 185 756 185 681.5 c 0,2,3
 185 653.5 185 653.5 187.5 612.25 c 128,-1,4
 190 571 190 571 193.272727273 510.454545455 c 0,5,6
 196.545454545 449.909090909 196.545454545 449.909090909 199 418 c 1,7,8
 203 419 203 419 214.5 423.5 c 128,-1,9
 226 428 226 428 257.515151515 438.909090909 c 0,10,11
 289.03030303 449.818181818 289.03030303 449.818181818 325.515151515 467.409090909 c 128,-1,12
 362 485 362 485 386.5 485 c 128,-1,13
 411 485 411 485 421.5 471.5 c 128,-1,14
 432 458 432 458 432 442.5 c 128,-1,15
 432 427 432 427 422 421 c 128,-1,16
 412 415 412 415 401 410 c 2,17,-1
 219 342 l 2,18,19
 216 340 216 340 213 338.5 c 128,-1,20
 210 337 210 337 207 334 c 1,21,-1
 207 302 l 2,22,23
 207 213 207 213 213.5 170 c 128,-1,24
 220 127 220 127 226 98 c 128,-1,25
 232 69 232 69 232 49.5 c 0,26,27
 232 0 232 0 206 0 c 128,-1,28
 180 0 180 0 163 16 c 128,-1,29
 146 32 146 32 142.5 71.5 c 128,-1,30
 139 111 139 111 133.5 173 c 128,-1,31
 128 235 128 235 123 292 c 1,32,-1
 119 292 l 2,33,34
 105 292 105 292 94 285 c 128,-1,35
 83 278 83 278 68 278 c 2,36,-1
 47 279 l 1,37,38
 43 284 43 284 38 287 c 128,-1,39
 33 290 33 290 24.5 295.95 c 0,40,41
 16 301.9 16 301.9 16 316.45 c 128,-1,42
 16 331 16 331 28 340.5 c 128,-1,43
 40 350 40 350 56 357 c 128,-1,44
 72 364 72 364 88.5 370 c 128,-1,45
 105 376 105 376 115 384 c 1,46,-1
 115 428 l 2,47,48
 115 502 115 502 108 576.5 c 128,-1,49
 101 651 101 651 101 724 c 0,50,51
 101 744 101 744 111 750 c 128,-1,52
 121 756 121 756 138 756 c 0,0,1
EndSplineSet
EndChar

StartChar: u
Encoding: 117 117 88
Width: 350
Flags: HW
LayerCount: 2
Fore
SplineSet
127 398 m 1,0,1
 89.6971132606 336.958912608 89.6971132606 336.958912608 89.6971132606 199.689288817 c 0,2,3
 89.6971132606 143.15114727 89.6971132606 143.15114727 100.84855663 114.575573635 c 128,-1,4
 112 86 112 86 125 82 c 1,5,6
 155.62745098 82 155.62745098 82 188 145.5 c 0,7,8
 229.544718544 226.991563297 229.544718544 226.991563297 229.544718544 414.635471496 c 0,9,10
 229.544718544 436.121821168 229.544718544 436.121821168 229 459 c 1,11,12
 233 470 233 470 240.5 471 c 128,-1,13
 248 472 248 472 256.5 472 c 128,-1,14
 265 472 265 472 271 471.5 c 128,-1,15
 277 471 277 471 283 465 c 128,-1,16
 289 459 289 459 295 449 c 128,-1,17
 301 439 301 439 301 438 c 2,18,-1
 318 -5 l 2,19,20
 318 -20 318 -20 310 -30 c 128,-1,21
 302 -40 302 -40 292 -40 c 0,22,23
 272.666666667 -40 272.666666667 -40 258.217948718 -33.8076923077 c 128,-1,24
 243.769230769 -27.6153846154 243.769230769 -27.6153846154 242 -17 c 2,25,-1
 225 83 l 1,26,-1
 221 95 l 1,27,28
 214 80 214 80 207 62.5 c 0,29,30
 181.2 -2 181.2 -2 135.392857143 -2 c 0,31,32
 74.1509433962 -2 74.1509433962 -2 40.5 59.5 c 0,33,34
 14 107.931034483 14 107.931034483 14 175 c 1,35,-1
 22 417 l 1,36,37
 20.0847457627 430.406779661 20.0847457627 430.406779661 37.1577574967 445.203389831 c 128,-1,38
 54.2307692308 460 54.2307692308 460 74.6153846154 460 c 128,-1,39
 95 460 95 460 111 445.5 c 128,-1,40
 127 431 127 431 127 408 c 2,41,-1
 127 398 l 1,0,1
EndSplineSet
EndChar

StartChar: v
Encoding: 118 118 89
Width: 388
Flags: HW
LayerCount: 2
Fore
SplineSet
35 443 m 1,0,-1
 51 444 l 1,1,2
 70 444 70 444 78.5 438 c 128,-1,3
 87 432 87 432 101 422 c 1,4,5
 105 407 105 407 111.5 391 c 128,-1,6
 118 375 118 375 127.5 350.5 c 128,-1,7
 137 326 137 326 152 289 c 128,-1,8
 167 252 167 252 190 195 c 1,9,-1
 195 190 l 1,10,11
 198 195 198 195 200.5 203 c 128,-1,12
 203 211 203 211 209.5 231 c 128,-1,13
 216 251 216 251 228 289 c 128,-1,14
 240 327 240 327 262 392 c 1,15,16
 270 405 270 405 273 422 c 128,-1,17
 276 439 276 439 280 454 c 0,18,19
 289.333333333 489 289.333333333 489 319 489 c 0,20,21
 336 489 336 489 352 475.5 c 128,-1,22
 368 462 368 462 368 444.5 c 0,23,24
 368 427 368 427 350 406 c 1,25,-1
 228 0 l 1,26,-1
 222 0 l 2,27,28
 201 0 201 0 188 6.5 c 128,-1,29
 175 13 175 13 174 17 c 2,30,-1
 127 139 l 1,31,-1
 127 143 l 1,32,-1
 17 410 l 2,33,34
 16 411 16 411 16 412 c 2,35,-1
 16 416 l 2,36,37
 16 431.125 16 431.125 35 443 c 1,0,-1
EndSplineSet
EndChar

StartChar: w
Encoding: 119 119 90
Width: 507
Flags: HW
LayerCount: 2
Fore
SplineSet
399 454 m 1,0,-1
 400 468 l 1,1,2
 415 484.875 415 484.875 439.34375 484.875 c 0,3,4
 454.318181818 484.875 454.318181818 484.875 468.659090909 471.729166667 c 128,-1,5
 483 458.583333333 483 458.583333333 483 448 c 1,6,-1
 426 38 l 2,7,8
 424.470588235 28.8235294118 424.470588235 28.8235294118 409.735294118 23.9117647059 c 128,-1,9
 395 19 395 19 379 19 c 1,10,11
 324.529085873 39.4265927978 324.529085873 39.4265927978 282.5 145.5 c 0,12,13
 272 172 272 172 260 193 c 1,14,-1
 256 194 l 1,15,16
 241.333333333 179.333333333 241.333333333 179.333333333 229 37.5 c 0,17,18
 228 26 228 26 213.15 18.8 c 128,-1,19
 198.3 11.6 198.3 11.6 191.25 11.6 c 0,20,21
 160.854545455 11.6 160.854545455 11.6 141 48 c 1,22,23
 135 71 135 71 106 165.5 c 128,-1,24
 77 260 77 260 25 439 c 1,25,-1
 22 456 l 1,26,27
 25.5108695652 477.065217391 25.5108695652 477.065217391 71 471 c 0,28,29
 100.302325581 467.093023256 100.302325581 467.093023256 114 426 c 1,30,-1
 172 235 l 1,31,-1
 176 230 l 1,32,33
 188 250 188 250 190 276 c 128,-1,34
 192 302 192 302 195.5 326.5 c 128,-1,35
 199 351 199 351 209 371 c 128,-1,36
 219 391 219 391 247 399 c 1,37,38
 267.272727273 399 267.272727273 399 285 379.5 c 0,39,40
 290 374 290 374 292 368 c 2,41,-1
 346 195 l 1,42,-1
 357 180 l 1,43,44
 365 216 365 216 399 454 c 1,0,-1
EndSplineSet
EndChar

StartChar: x
Encoding: 120 120 91
Width: 431
Flags: HW
LayerCount: 2
Fore
SplineSet
159 197 m 1,0,-1
 158 208 l 1,1,2
 120.492146597 230.921465969 120.492146597 230.921465969 50 318 c 0,3,4
 33 339 33 339 18 355 c 1,5,-1
 18 359 l 2,6,7
 18 375 18 375 29.5 384 c 128,-1,8
 41 393 41 393 60 393 c 128,-1,9
 79 393 79 393 98.5 376.5 c 128,-1,10
 118 360 118 360 133.5 340.5 c 128,-1,11
 149 321 149 321 161.5 304.5 c 128,-1,12
 174 288 174 288 183 288 c 2,13,-1
 187 288 l 1,14,15
 188 293 188 293 191.5 303.5 c 128,-1,16
 195 314 195 314 202 336 c 128,-1,17
 209 358 209 358 221 394 c 128,-1,18
 233 430 233 430 251 486 c 1,19,20
 254.111111111 500 254.111111111 500 276.055555556 500 c 128,-1,21
 298 500 298 500 310.5 490 c 128,-1,22
 323 480 323 480 323 463 c 2,23,-1
 323 457 l 1,24,-1
 253 217 l 1,25,-1
 416 77 l 1,26,-1
 420 65 l 1,27,-1
 420 63 l 2,28,29
 420 46 420 46 407.5 38 c 128,-1,30
 395 30 395 30 380.5 30 c 128,-1,31
 366 30 366 30 344.5 46 c 128,-1,32
 323 62 323 62 301 81 c 128,-1,33
 279 100 279 100 260.5 116 c 128,-1,34
 242 132 242 132 233 132 c 2,35,-1
 229 132 l 1,36,37
 206.761904762 111.350340136 206.761904762 111.350340136 190 45.5 c 0,38,39
 183 18 183 18 176 -11 c 0,40,41
 150.055045872 -118.486238532 150.055045872 -118.486238532 104 -130 c 1,42,43
 91 -130 91 -130 75.5 -121 c 128,-1,44
 60 -112 60 -112 59.2058823529 -98.9411764706 c 128,-1,45
 58.4117647059 -85.8823529412 58.4117647059 -85.8823529412 75.7058823529 -38.9411764706 c 128,-1,46
 93 8 93 8 105 41 c 128,-1,47
 117 74 117 74 136.491525424 125.694915254 c 128,-1,48
 155.983050847 177.389830508 155.983050847 177.389830508 159 197 c 1,0,-1
EndSplineSet
EndChar

StartChar: y
Encoding: 121 121 92
Width: 342
Flags: HW
LayerCount: 2
Fore
SplineSet
312.53125 94.779296875 m 2,0,-1
 312 -36.5 l 2,1,2
 312 -64 312 -64 312.5 -99 c 128,-1,3
 313 -134 313 -134 313.5 -172 c 0,4,5
 315.376623377 -314.623376623 315.376623377 -314.623376623 317 -313 c 1,6,7
 317 -342 317 -342 282.394736842 -342 c 128,-1,8
 247.789473684 -342 247.789473684 -342 237 -321.5 c 0,9,10
 232 -312 232 -312 230 -300 c 128,-1,11
 228 -288 228 -288 223 -275 c 1,12,13
 220 -243.5 220 -243.5 220 -158.75 c 128,-1,14
 220 -74 220 -74 223 -32 c 1,15,-1
 223 4 l 1,16,17
 218 11 218 11 211 18.5 c 0,18,19
 173.109677419 59.0967741935 173.109677419 59.0967741935 51 240 c 1,20,21
 19.3984952659 273.106338293 19.3984952659 273.106338293 19.3984952659 295.053169146 c 128,-1,22
 19.3984952659 317 19.3984952659 317 43.199247633 317 c 128,-1,23
 67 317 67 317 83 308 c 128,-1,24
 99 299 99 299 112 285 c 128,-1,25
 125 271 125 271 135.5 254.5 c 128,-1,26
 146 238 146 238 154 226 c 128,-1,27
 162 214 162 214 171 200 c 128,-1,28
 180 186 180 186 189 172.5 c 128,-1,29
 198 159 198 159 204.5 149 c 2,30,-1
 211 139 l 1,31,-1
 223 126 l 1,32,-1
 223 231 l 1,33,-1
 219 425 l 2,34,35
 219 439 219 439 228.285714286 447.357142857 c 128,-1,36
 237.571428571 455.714285714 237.571428571 455.714285714 244.928571429 455.714285714 c 128,-1,37
 252.285714286 455.714285714 252.285714286 455.714285714 261.142857143 454.857142857 c 128,-1,38
 270 454 270 454 278.5 450 c 128,-1,39
 287 446 287 446 295.5 434.5 c 128,-1,40
 304 423 304 423 303.708333333 414.25 c 128,-1,41
 303.416666667 405.5 303.416666667 405.5 303.416666667 394.708333333 c 128,-1,42
 303.416666667 383.916666667 303.416666667 383.916666667 307.973958333 284.567708333 c 128,-1,43
 312.53125 185.21875 312.53125 185.21875 312.53125 94.779296875 c 2,0,-1
EndSplineSet
EndChar

StartChar: z
Encoding: 122 122 93
Width: 752
Flags: HW
LayerCount: 2
Fore
SplineSet
680 241 m 2,0,1
 739 241 739 241 739 206 c 1,2,3
 741 193 741 193 723 183 c 128,-1,4
 705 173 705 173 672 163.5 c 128,-1,5
 639 154 639 154 593.5 143.5 c 0,6,7
 400.539748954 98.9707112971 400.539748954 98.9707112971 266 26 c 1,8,9
 261.451612903 27.5161290323 261.451612903 27.5161290323 223.862170088 13.2580645161 c 128,-1,10
 186.272727273 -1 186.272727273 -1 173.636363636 -1 c 128,-1,11
 161 -1 161 -1 143 10.5 c 128,-1,12
 125 22 125 22 125 35.5 c 128,-1,13
 125 49 125 49 127 51 c 2,14,-1
 270 322 l 1,15,16
 279.666666667 344.555555556 279.666666667 344.555555556 287.833333333 371.777777778 c 128,-1,17
 296 399 296 399 296 401 c 2,18,-1
 296 412 l 1,19,20
 263 412 263 412 224 396.5 c 0,21,22
 138.870967742 362.666666667 138.870967742 362.666666667 98.5555555556 362.666666667 c 0,23,24
 87 362.666666667 87 362.666666667 76 364.5 c 0,25,26
 43 370 43 370 22 412 c 1,27,28
 22 424 22 424 36 431.5 c 128,-1,29
 50 439 50 439 59 439 c 1,30,-1
 84 435 l 1,31,32
 113 438 113 438 142 447 c 128,-1,33
 171 456 171 456 217.439857433 470.665218137 c 128,-1,34
 263.879714865 485.330436273 263.879714865 485.330436273 303.342807513 485.330436273 c 0,35,36
 308.373892175 485.330436273 308.373892175 485.330436273 329.401231802 485.165218137 c 0,37,38
 397 484.634074268 397 484.634074268 397 443 c 0,39,40
 397 411.375 397 411.375 380 388 c 1,41,-1
 262 114 l 1,42,-1
 262 105 l 1,43,-1
 334 139 l 1,44,-1
 338 139 l 1,45,-1
 664 241 l 1,46,-1
 680 241 l 2,0,1
EndSplineSet
EndChar

StartChar: braceleft
Encoding: 123 123 94
Width: 391
Flags: HW
LayerCount: 2
Fore
SplineSet
247.618490282 180.374190715 m 2,0,-1
 242.772495756 16.9130580161 l 2,1,2
 242.772495756 10.3225806452 242.772495756 10.3225806452 243 6 c 1,3,4
 255.789473684 6 255.789473684 6 271.894736842 23 c 128,-1,5
 288 40 288 40 297.5 47.5 c 128,-1,6
 307 55 307 55 318 55 c 2,7,-1
 321 55 l 1,8,9
 334 44 334 44 336 41 c 128,-1,10
 338 38 338 38 338 22 c 0,11,12
 338 -12.7586206897 338 -12.7586206897 304.677419355 -48.3793103448 c 128,-1,13
 271.35483871 -84 271.35483871 -84 241.177419355 -84 c 128,-1,14
 211 -84 211 -84 195.5 -71 c 0,15,16
 156 -37.8709677419 156 -37.8709677419 156 44 c 1,17,18
 159 84 159 84 163.5 124 c 0,19,20
 169.210629904 174.761154701 169.210629904 174.761154701 169.210629904 240.506758475 c 128,-1,21
 169.210629904 306.25236225 169.210629904 306.25236225 147 364 c 1,22,23
 136 360 136 360 125.5 353.5 c 128,-1,24
 115 347 115 347 96.625 336.5 c 128,-1,25
 78.25 326 78.25 326 60.625 326 c 128,-1,26
 43 326 43 326 27.5 337 c 128,-1,27
 12 348 12 348 12 362.5 c 128,-1,28
 12 377 12 377 22.5 386 c 128,-1,29
 33 395 33 395 47 404 c 128,-1,30
 61 413 61 413 74 421 c 128,-1,31
 87 429 87 429 96 440.4 c 128,-1,32
 105 451.8 105 451.8 105 498 c 1,33,34
 93.2171396041 553.96858688 93.2171396041 553.96858688 93.2171396041 619.135308911 c 128,-1,35
 93.2171396041 684.302030941 93.2171396041 684.302030941 119.590873467 764.365151596 c 128,-1,36
 145.96460733 844.428272251 145.96460733 844.428272251 215.5 888.5 c 0,37,38
 251 911 251 911 299 916 c 1,39,-1
 318.5 916 l 2,40,41
 346.714285714 916 346.714285714 916 358.857142857 906 c 128,-1,42
 371 896 371 896 371 883 c 0,43,44
 371.776767778 879.634006296 371.776767778 879.634006296 371.776767778 876.604025853 c 0,45,46
 371.776767778 860.017494978 371.776767778 860.017494978 348.5 853.5 c 0,47,48
 336 850 336 850 318.5 847.5 c 0,49,50
 246.272727273 837.181818182 246.272727273 837.181818182 219 794 c 1,51,52
 172.89254386 728.813596491 172.89254386 728.813596491 172.89254386 629.198270141 c 0,53,54
 172.89254386 583.363038278 172.89254386 583.363038278 178.94627193 532.181519139 c 128,-1,55
 185 481 185 481 185 435 c 1,56,57
 243.293640054 417.258457375 243.293640054 417.258457375 247 237.5 c 0,58,59
 247.618490282 207.503221304 247.618490282 207.503221304 247.618490282 180.374190715 c 2,0,-1
EndSplineSet
EndChar

StartChar: bar
Encoding: 124 124 95
Width: 165
Flags: HW
LayerCount: 2
Fore
SplineSet
127.842667729 265.379957487 m 1,0,-1
 127.344827586 204.871581451 l 2,1,2
 127.344827586 132.931034483 127.344827586 132.931034483 139 63 c 1,3,4
 144 58 144 58 144 52.5 c 2,5,-1
 144 42 l 2,6,7
 144 22 144 22 130 11 c 128,-1,8
 116 0 116 0 102 0 c 0,9,10
 78.5555555556 0 78.5555555556 0 63.9722222222 18.75 c 128,-1,11
 49.3888888889 37.5 49.3888888889 37.5 48.1944444444 49.75 c 128,-1,12
 47 62 47 62 47 73.5 c 2,13,-1
 47 135 l 1,14,15
 45 260 45 260 44 382.5 c 128,-1,16
 43 505 43 505 39.5 602.5 c 128,-1,17
 36 700 36 700 29 770 c 128,-1,18
 22 840 22 840 22 910 c 0,19,20
 22 930 22 930 29.5 934 c 128,-1,21
 37 938 37 938 57 938 c 128,-1,22
 77 938 77 938 87 928.5 c 128,-1,23
 97 919 97 919 105 899 c 1,24,25
 127.842667729 629.041199563 127.842667729 629.041199563 127.842667729 265.379957487 c 1,0,-1
EndSplineSet
EndChar

StartChar: braceright
Encoding: 125 125 96
Width: 296
Flags: HW
LayerCount: 2
Fore
SplineSet
15.4761904762 806.492063492 m 0,0,1
 15.4761904762 831.638972147 15.4761904762 831.638972147 68.7431325964 831.638972147 c 0,2,3
 91.7540329499 831.638972147 91.7540329499 831.638972147 125 827 c 1,4,5
 144 827 144 827 166 814 c 128,-1,6
 188 801 188 801 206.120660303 770.987656372 c 128,-1,7
 224.241320607 740.975312745 224.241320607 740.975312745 224.241320607 698.619747333 c 128,-1,8
 224.241320607 656.264181922 224.241320607 656.264181922 209 608 c 1,9,10
 201 570 201 570 193 532 c 128,-1,11
 185 494 185 494 172 470 c 128,-1,12
 159 446 159 446 150 430.5 c 128,-1,13
 141 415 141 415 141 397 c 2,14,-1
 141 393 l 1,15,16
 148.822169016 397.266637645 148.822169016 397.266637645 159.277765685 397.266637645 c 128,-1,17
 169.733362355 397.266637645 169.733362355 397.266637645 185.366681178 381.633318822 c 128,-1,18
 201 366 201 366 201 342 c 1,19,20
 199 328 199 328 187 320.5 c 128,-1,21
 175 313 175 313 161.5 305.5 c 128,-1,22
 148 298 148 298 136.5 287.5 c 128,-1,23
 125 277 125 277 125 261.5 c 128,-1,24
 125 246 125 246 132 238.5 c 128,-1,25
 139 231 139 231 149 225.5 c 128,-1,26
 159 220 159 220 169.5 215.5 c 128,-1,27
 180 211 180 211 191 205 c 128,-1,28
 202 199 202 199 217.5 190.5 c 128,-1,29
 233 182 233 182 245 169 c 0,30,31
 272 139.75 272 139.75 272 100.875 c 128,-1,32
 272 62 272 62 254.5 25.5 c 128,-1,33
 237 -11 237 -11 209 -42.5 c 128,-1,34
 181 -74 181 -74 146 -94.5 c 128,-1,35
 111 -115 111 -115 76.9285714286 -115 c 128,-1,36
 42.8571428571 -115 42.8571428571 -115 24 -93 c 0,37,38
 18 -86 18 -86 18 -75 c 128,-1,39
 18 -64 18 -64 30.5 -57 c 128,-1,40
 43 -50 43 -50 59.5 -45 c 128,-1,41
 76 -40 76 -40 92.5 -36 c 128,-1,42
 109 -32 109 -32 117 -26 c 0,43,44
 146 -3 146 -3 169.5 30 c 128,-1,45
 193 63 193 63 193 97.09375 c 128,-1,46
 193 131.1875 193 131.1875 156 152 c 0,47,48
 140 161 140 161 121.5 170 c 128,-1,49
 103 179 103 179 86.5 191 c 0,50,51
 47.3219178082 219.493150685 47.3219178082 219.493150685 44 266 c 1,52,53
 44 282.6 44 282.6 53 298.8 c 128,-1,54
 62 315 62 315 66 322 c 128,-1,55
 70 329 70 329 70 332 c 2,56,-1
 70 334 l 1,57,58
 56.75 347.25 56.75 347.25 56.75 362.625 c 128,-1,59
 56.75 378 56.75 378 57.875 397.5 c 128,-1,60
 59 417 59 417 74 453 c 0,61,62
 118.285714286 559.285714286 118.285714286 559.285714286 126.767857143 591.517857143 c 128,-1,63
 135.25 623.75 135.25 623.75 135.25 643.6875 c 128,-1,64
 135.25 663.625 135.25 663.625 133 679 c 1,65,66
 133 706.533333333 133 706.533333333 124.5 721.266666667 c 0,67,68
 104.461538462 756 104.461538462 756 52 756 c 1,69,70
 34 765 34 765 24.7380952381 780.436507937 c 128,-1,71
 15.4761904762 795.873015873 15.4761904762 795.873015873 15.4761904762 806.492063492 c 0,0,1
EndSplineSet
EndChar

StartChar: asciitilde
Encoding: 126 126 97
Width: 408
Flags: HW
LayerCount: 2
Fore
SplineSet
329 615.5 m 0,0,1
 329 565.130434783 329 565.130434783 302.934210526 522.065217391 c 128,-1,2
 276.868421053 479 276.868421053 479 249 479 c 0,3,4
 247.52652974 478.918140541 247.52652974 478.918140541 246.041944561 478.918140541 c 0,5,6
 217.347182382 478.918140541 217.347182382 478.918140541 184.5 509.5 c 0,7,8
 170 523 170 523 156 538 c 128,-1,9
 142 553 142 553 129 564 c 1,10,11
 119 564 119 564 110.5 550 c 128,-1,12
 102 536 102 536 88.3636363636 506 c 128,-1,13
 74.7272727273 476 74.7272727273 476 65 476 c 256,14,15
 58 476 58 476 48.5 483 c 128,-1,16
 39 490 39 490 39 499.5 c 128,-1,17
 39 509 39 509 43.5 524.5 c 0,18,19
 57.2547169811 571.877358491 57.2547169811 571.877358491 77.2773584906 607.155345912 c 128,-1,20
 97.3 642.433333333 97.3 642.433333333 129 653 c 1,21,22
 145.75 653 145.75 653 154 642 c 2,23,-1
 211 570 l 1,24,25
 219 565 219 565 224.5 558 c 128,-1,26
 230 551 230 551 238.5 551 c 128,-1,27
 247 551 247 551 253 562 c 128,-1,28
 259 573 259 573 263.5 580 c 128,-1,29
 268 587 268 587 272.5 598 c 0,30,31
 290.5 642 290.5 642 312.075 642 c 0,32,33
 329 642 329 642 329 615.5 c 0,0,1
EndSplineSet
EndChar

StartChar: exclamdown
Encoding: 161 161 98
Width: 121
Flags: HW
LayerCount: 2
Fore
SplineSet
65.384765625 553.221679688 m 2,0,-1
 48.98828125 553.221679688 l 1,1,2
 26.4453125 569.798828125 26.4453125 569.798828125 26.4453125 581.729492188 c 128,-1,3
 26.4453125 593.66015625 26.4453125 593.66015625 38.7412109375 602.451171875 c 128,-1,4
 51.0380859375 611.2421875 51.0380859375 611.2421875 58.0615234375 612.2421875 c 128,-1,5
 65.0849609375 613.243164062 65.0849609375 613.243164062 71.7744140625 613.243164062 c 128,-1,6
 78.4638671875 613.243164062 78.4638671875 613.243164062 92.4189453125 603.11328125 c 128,-1,7
 106.373046875 592.983398438 106.373046875 592.983398438 106.373046875 582.231445312 c 0,8,9
 106.373046875 553.221679688 106.373046875 553.221679688 65.384765625 553.221679688 c 2,0,-1
109.447265625 186.641601562 m 1,10,-1
 105.348632812 85.546875 l 1,11,-1
 104.323242188 27.9658203125 l 1,12,-1
 105.348632812 -29.6142578125 l 1,13,14
 100.224609375 -41.04296875 100.224609375 -41.04296875 91.5146484375 -51.591796875 c 128,-1,15
 82.8046875 -62.140625 82.8046875 -62.140625 65.384765625 -62.140625 c 0,16,17
 63.3349609375 -62.140625 63.3349609375 -62.140625 57.69921875 -60.3828125 c 0,18,19
 31.568359375 -52.23046875 31.568359375 -52.23046875 31.568359375 -44.55859375 c 2,20,-1
 31.568359375 256.08984375 l 1,21,22
 26.4453125 268.176757812 26.4453125 268.176757812 26.4453125 288.9453125 c 128,-1,23
 26.4453125 309.713867188 26.4453125 309.713867188 34.642578125 320.263671875 c 128,-1,24
 42.8408203125 330.8125 42.8408203125 330.8125 64.8720703125 330.8125 c 128,-1,25
 86.9033203125 330.8125 86.9033203125 330.8125 95.1015625 318.504882812 c 128,-1,26
 103.298828125 306.198242188 103.298828125 306.198242188 105.348632812 290.374023438 c 1,27,-1
 109.447265625 186.641601562 l 1,10,-1
EndSplineSet
EndChar

StartChar: cent
Encoding: 162 162 99
Width: 354
Flags: HW
LayerCount: 2
Fore
SplineSet
289 173 m 0,0,1
 332 173 332 173 332 135 c 0,2,3
 332 112 332 112 304 82 c 128,-1,4
 276 52 276 52 239 30 c 1,5,6
 244 -15 244 -15 244 -26 c 0,7,8
 244 -60 244 -60 198 -60 c 0,9,10
 175.869565217 -60 175.869565217 -60 155 0 c 1,11,12
 152 -1 152 -1 136.5 -1 c 128,-1,13
 121 -1 121 -1 98.5 8.5 c 128,-1,14
 76 18 76 18 59.5 34 c 0,15,16
 23 69.3939393939 23 69.3939393939 23 120 c 1,17,18
 18.5104775987 136.835709005 18.5104775987 136.835709005 18.5104775987 155.551822198 c 0,19,20
 18.5104775987 200.583148773 18.5104775987 200.583148773 48.1714475906 264.399175119 c 128,-1,21
 77.8324175824 328.215201465 77.8324175824 328.215201465 137 383 c 1,22,23
 139 439 139 439 140 470 c 0,24,25
 141.906724512 529.10845987 141.906724512 529.10845987 156.5 533 c 0,26,27
 159.5 533.8 159.5 533.8 164.55 533.8 c 128,-1,28
 169.6 533.8 169.6 533.8 183.3 532.4 c 128,-1,29
 197 531 197 531 204.5 526 c 0,30,31
 216.5 518 216.5 518 213.5 480 c 0,32,33
 212.857142857 471.857142857 212.857142857 471.857142857 212.857142857 460.214285714 c 128,-1,34
 212.857142857 448.571428571 212.857142857 448.571428571 214 432 c 1,35,36
 230.614683205 437.538227735 230.614683205 437.538227735 244.984741089 437.538227735 c 0,37,38
 291.503721086 437.538227735 291.503721086 437.538227735 314.5 379.5 c 0,39,40
 325 353 325 353 328 311 c 1,41,42
 335.444444444 296.111111111 335.444444444 296.111111111 325.722222222 290.555555556 c 0,43,44
 305.5 279 305.5 279 270 279 c 1,45,46
 270 287.142857143 270 287.142857143 264 302.571428571 c 0,47,48
 248.914285714 341.363265306 248.914285714 341.363265306 233 342.5 c 0,49,50
 226 343 226 343 217 344 c 1,51,52
 213.100489205 275.758561089 213.100489205 275.758561089 213.100489205 215.784154655 c 128,-1,53
 213.100489205 155.809748222 213.100489205 155.809748222 220 117 c 1,54,55
 237.297297297 120.459459459 237.297297297 120.459459459 248 149 c 0,56,57
 253.744680851 164.319148936 253.744680851 164.319148936 263.872340426 168.659574468 c 128,-1,58
 274 173 274 173 289 173 c 0,0,1
138 287 m 1,59,60
 110.280063839 218.960156695 110.280063839 218.960156695 110.280063839 163.33145676 c 128,-1,61
 110.280063839 107.702756825 110.280063839 107.702756825 133 72 c 1,62,-1
 139 72 l 1,63,-1
 139 89 l 1,64,-1
 140 125.5 l 1,65,-1
 140 135 l 2,66,67
 140 195 140 195 138 287 c 1,59,60
EndSplineSet
EndChar

StartChar: sterling
Encoding: 163 163 100
Width: 521
Flags: HW
LayerCount: 2
Fore
SplineSet
120 300.375 m 2,0,-1
 116.389639897 212.120685499 l 1,1,2
 116.389639897 147.034533676 116.389639897 147.034533676 129 105 c 1,3,4
 225.693438974 160.479842034 225.693438974 160.479842034 295.583837006 160.479842034 c 0,5,6
 336.997402373 160.479842034 336.997402373 160.479842034 364.498701186 143.739921017 c 128,-1,7
 392 127 392 127 408.5 111.5 c 128,-1,8
 425 96 425 96 437.5 84 c 128,-1,9
 450 72 450 72 459 72 c 0,10,11
 476.083333333 72 476.083333333 72 495.541666667 58.2647058824 c 128,-1,12
 515 44.5294117647 515 44.5294117647 515 25.2647058824 c 128,-1,13
 515 6 515 6 490 -11 c 1,14,15
 485.316764133 -12.873294347 485.316764133 -12.873294347 474.031676413 -12.873294347 c 128,-1,16
 462.746588694 -12.873294347 462.746588694 -12.873294347 430.873294347 3.06335282651 c 128,-1,17
 399 19 399 19 375 32 c 0,18,19
 304.672318307 70.094160917 304.672318307 70.094160917 271.794865948 70.094160917 c 0,20,21
 260.603441703 70.094160917 260.603441703 70.094160917 253 66 c 1,22,23
 205.7 54.175 205.7 54.175 163.85 32.0875 c 128,-1,24
 122 10 122 10 100 0 c 1,25,-1
 91 0 l 2,26,27
 30.7412346887 0 30.7412346887 0 30.7412346887 98.207163157 c 1,28,-1
 32 166 l 1,29,30
 32 233 32 233 34 311 c 1,31,-1
 -12 306 l 1,32,33
 -25 306 -25 306 -37.5 314.5 c 128,-1,34
 -50 323 -50 323 -50 338.5 c 0,35,36
 -50 363.857142857 -50 363.857142857 -12 372 c 1,37,-1
 36 377 l 1,38,-1
 37 462 l 2,39,40
 37 507 37 507 32.5 552 c 128,-1,41
 28 597 28 597 28 642 c 0,42,43
 28 702.04313052 28 702.04313052 140.383832858 702.04313052 c 0,44,45
 202.566513515 702.04313052 202.566513515 702.04313052 288.518516873 678.982836936 c 128,-1,46
 374.470520231 655.922543353 374.470520231 655.922543353 396 629.5 c 0,47,48
 407 616 407 616 392 606 c 128,-1,49
 377 596 377 596 325 592 c 0,50,51
 312.183609641 590.028247637 312.183609641 590.028247637 297.177032815 590.028247637 c 0,52,53
 248.236035917 590.028247637 248.236035917 590.028247637 196.618017958 605.014123819 c 128,-1,54
 145 620 145 620 125.5 624 c 128,-1,55
 106 628 106 628 106 613 c 1,56,-1
 121 461 l 1,57,-1
 121 385 l 1,58,-1
 239 397 l 1,59,60
 286 397 286 397 286 365 c 0,61,62
 286 356.125 286 356.125 266.94603427 344.216271418 c 128,-1,63
 247.892068539 332.307542837 247.892068539 332.307542837 242.138491433 332.307542837 c 128,-1,64
 236.384914326 332.307542837 236.384914326 332.307542837 235 333 c 2,65,-1
 119 320 l 1,66,67
 120 311 120 311 120 300.375 c 2,0,-1
EndSplineSet
EndChar

StartChar: currency
Encoding: 164 164 101
Width: 498
Flags: HW
LayerCount: 2
Fore
SplineSet
238 93 m 0,0,1
 201.2 93 201.2 93 176 114 c 1,2,3
 156 79 156 79 132.927272727 52.9818181818 c 128,-1,4
 109.854545455 26.9636363636 109.854545455 26.9636363636 82.1018181818 26.9636363636 c 0,5,6
 81.0545454545 26.9636363636 81.0545454545 26.9636363636 80 27 c 0,7,8
 57.8461538462 30.6923076923 57.8461538462 30.6923076923 47 56 c 0,9,10
 45.4954153932 59.5106974159 45.4954153932 59.5106974159 45.4954153932 65.9513753821 c 128,-1,11
 45.4954153932 72.3920533482 45.4954153932 72.3920533482 53.7477076966 86.6960266741 c 128,-1,12
 62 101 62 101 73.5 118 c 128,-1,13
 85 135 85 135 100 156 c 128,-1,14
 115 177 115 177 130 199 c 1,15,16
 126 219 126 219 126 244 c 2,17,-1
 126 247 l 1,18,-1
 155 449 l 1,19,-1
 123 517 l 1,20,-1
 124 519 l 1,21,-1
 124 521 l 1,22,23
 129 536 129 536 142.5 542 c 128,-1,24
 156 548 156 548 171 543.5 c 128,-1,25
 186 539 186 539 196 529 c 1,26,27
 209.247104247 474.53968254 209.247104247 474.53968254 229.734693878 474.53968254 c 0,28,29
 239.73015873 474.53968254 239.73015873 474.53968254 253 486 c 1,30,-1
 254 486 l 2,31,32
 266 486 266 486 275.5 490.5 c 128,-1,33
 285 495 285 495 297.5 495 c 128,-1,34
 310 495 310 495 322 491 c 1,35,36
 348.829268293 534.902439024 348.829268293 534.902439024 382 583 c 0,37,38
 387.097849213 591.156558741 387.097849213 591.156558741 395.392860905 591.156558741 c 0,39,40
 425.274753007 591.156558741 425.274753007 591.156558741 441 571.5 c 0,41,42
 447.666666667 563.166666667 447.666666667 563.166666667 447.666666667 555.416666667 c 0,43,44
 447.666666667 537 447.666666667 537 444 537 c 1,45,-1
 384 438 l 1,46,47
 417 379.764705882 417 379.764705882 417 307 c 0,48,49
 417 262.714285714 417 262.714285714 388 213 c 1,50,-1
 435 145 l 1,51,-1
 435 140 l 1,52,-1
 436 133 l 1,53,-1
 436 131 l 1,54,55
 431 115 431 115 417 110 c 128,-1,56
 403 105 403 105 387.493670886 109.341772152 c 128,-1,57
 371.987341772 113.683544304 371.987341772 113.683544304 344 151 c 1,58,59
 292.692307692 93 292.692307692 93 238 93 c 0,0,1
200 239 m 1,60,61
 202 229 202 229 204 216 c 128,-1,62
 206 203 206 203 211.546331669 188.440879369 c 128,-1,63
 217.092663338 173.881758738 217.092663338 173.881758738 232.030401629 173.881758738 c 0,64,65
 237.068924466 173.881758738 237.068924466 173.881758738 243 176 c 1,66,67
 303.417266187 231.769784173 303.417266187 231.769784173 322 271 c 0,68,69
 331 290 331 290 331.615384615 305.730769231 c 128,-1,70
 332.230769231 321.461538462 332.230769231 321.461538462 332.230769231 337.615384615 c 128,-1,71
 332.230769231 353.769230769 332.230769231 353.769230769 324.615384615 377.884615385 c 128,-1,72
 317 402 317 402 304.0625 411.801136364 c 128,-1,73
 291.125 421.602272727 291.125 421.602272727 281.596590909 421.602272727 c 0,74,75
 248.601102941 421.602272727 248.601102941 421.602272727 224.300551471 371.528409091 c 128,-1,76
 200 321.454545455 200 321.454545455 200 242 c 2,77,-1
 200 239 l 1,60,61
EndSplineSet
EndChar

StartChar: yen
Encoding: 165 165 102
Width: 446
Flags: HW
LayerCount: 2
Fore
SplineSet
186 140 m 1,0,1
 160.014492754 132.913043478 160.014492754 132.913043478 141.746376812 132.913043478 c 128,-1,2
 123.47826087 132.913043478 123.47826087 132.913043478 106.739130435 142.956521739 c 128,-1,3
 90 153 90 153 90 172 c 1,4,5
 123.5 205.5 123.5 205.5 185 226 c 1,6,-1
 185 281 l 1,7,8
 138.5 269.375 138.5 269.375 106 258 c 1,9,10
 71.9230769231 258 71.9230769231 258 52 276.5 c 0,11,12
 45 283 45 283 43.5 297 c 128,-1,13
 42 311 42 311 53 318.5 c 0,14,15
 78.4985673352 335.885386819 78.4985673352 335.885386819 184 360 c 1,16,-1
 184 393 l 1,17,-1
 171 405 l 1,18,19
 153.25 422.75 153.25 422.75 120.625 469.875 c 128,-1,20
 88 517 88 517 82 525.5 c 128,-1,21
 76 534 76 534 67 549 c 128,-1,22
 58 564 58 564 37.1660079051 597.731225296 c 0,23,24
 6.42612752722 647.500555432 6.42612752722 647.500555432 6.42612752722 670.695672259 c 0,25,26
 6.42612752722 676.065318818 6.42612752722 676.065318818 8 680 c 0,27,28
 13 697 13 697 27.5 700 c 128,-1,29
 42 703 42 703 61.7297297297 697.245495495 c 128,-1,30
 81.4594594595 691.490990991 81.4594594595 691.490990991 91 674 c 1,31,32
 145.724973656 552.653319283 145.724973656 552.653319283 217 472 c 1,33,-1
 225 483 l 1,34,-1
 345 728 l 2,35,36
 349.583333333 738.083333333 349.583333333 738.083333333 359.208333333 738.083333333 c 0,37,38
 367.125 738.083333333 367.125 738.083333333 381 735 c 1,39,40
 418.878787879 723.636363636 418.878787879 723.636363636 418.878787879 691.037649219 c 0,41,42
 418.878787879 680.606060606 418.878787879 680.606060606 415 668 c 1,43,-1
 415 666 l 1,44,-1
 403.5 647.5 l 2,45,46
 392 629 392 629 374.5 601.5 c 128,-1,47
 357 574 357 574 337.5 542 c 128,-1,48
 318 510 318 510 289 464.428571429 c 128,-1,49
 260 418.857142857 260 418.857142857 260 417 c 1,50,51
 252 409 252 409 250 375 c 1,52,53
 303 386 303 386 377 403 c 1,54,-1
 382 403 l 2,55,56
 397 403 397 403 406.5 393.5 c 128,-1,57
 416 384 416 384 416 375.5 c 128,-1,58
 416 367 416 367 409 355.5 c 128,-1,59
 402 344 402 344 391 339 c 0,60,61
 342.75 321.078571429 342.75 321.078571429 253 298 c 1,62,63
 254 286 254 286 254.5 274 c 128,-1,64
 255 262 255 262 256 249 c 1,65,66
 300.31147541 262.032786885 300.31147541 262.032786885 319 272 c 1,67,68
 356.714285714 284 356.714285714 284 375.357142857 284 c 0,69,70
 424.666666667 284 424.666666667 284 428 259 c 1,71,72
 422.333333333 236.333333333 422.333333333 236.333333333 416 230 c 256,73,74
 409 223 409 223 395 216 c 1,75,76
 361 211 361 211 328 197 c 128,-1,77
 295 183 295 183 263 169 c 1,78,79
 266.093708297 117.953813104 266.093708297 117.953813104 266.093708297 78.8604390368 c 0,80,81
 266.093708297 -49 266.093708297 -49 233 -49 c 1,82,83
 215 -44 215 -44 204 -30 c 128,-1,84
 193 -16 193 -16 192 3 c 2,85,-1
 186 140 l 1,0,1
EndSplineSet
EndChar

StartChar: brokenbar
Encoding: 166 166 103
Width: 141
Flags: HW
LayerCount: 2
Fore
SplineSet
79.0407379234 592.088792654 m 0,0,1
 107.970402449 592.088792654 107.970402449 592.088792654 121 553 c 1,2,3
 106.392156863 404 106.392156863 404 102 348 c 1,4,-1
 31 348 l 1,5,6
 44.0595346419 481.860230079 44.0595346419 481.860230079 44.0595346419 515.858329829 c 2,7,-1
 43.7464114833 533.575353128 l 1,8,9
 43.7464114833 592.088792654 43.7464114833 592.088792654 79.0407379234 592.088792654 c 0,0,1
99 52 m 1,10,11
 99 -1 99 -1 68 -1 c 0,12,13
 40 -1 40 -1 27 38 c 1,14,15
 25 61 25 61 24.5 81 c 128,-1,16
 24 101 24 101 23.5 120.5 c 128,-1,17
 23 140 23 140 23 159.5 c 2,18,-1
 23 202 l 2,19,20
 23 232.2 23 232.2 28.1363636364 255.827272727 c 128,-1,21
 33.2727272727 279.454545455 33.2727272727 279.454545455 37 313 c 1,22,-1
 94 313 l 1,23,24
 92 288 92 288 92 268.5 c 2,25,-1
 94 148 l 1,26,-1
 99 52 l 1,10,11
EndSplineSet
EndChar

StartChar: section
Encoding: 167 167 104
Width: 495
Flags: HW
LayerCount: 2
Fore
SplineSet
390.5 499 m 0,0,1
 467 499 467 499 467 456 c 1,2,3
 470.694830287 443.068093995 470.694830287 443.068093995 470.694830287 430.346011903 c 0,4,5
 470.694830287 369.796553525 470.694830287 369.796553525 387 314 c 0,6,7
 357 294 357 294 322 275 c 1,8,-1
 323 275 l 2,9,10
 368.058823529 275 368.058823529 275 384.5 253.5 c 0,11,12
 391 245 391 245 391 232 c 1,13,14
 394.697260197 219.367694328 394.697260197 219.367694328 394.697260197 206.837882493 c 0,15,16
 394.697260197 122.177045501 394.697260197 122.177045501 215.5 35 c 0,17,18
 160 8 160 8 106 -19 c 1,19,20
 102.666666667 -24 102.666666667 -24 86.3333333333 -24 c 128,-1,21
 70 -24 70 -24 55.5 -12 c 128,-1,22
 41 0 41 0 41 13.5 c 128,-1,23
 41 27 41 27 46 32 c 1,24,25
 124.5 54.4285714286 124.5 54.4285714286 179.25 85.7142857143 c 128,-1,26
 234 117 234 117 257.771186441 139.838983051 c 128,-1,27
 281.542372881 162.677966102 281.542372881 162.677966102 281.542372881 183.482332663 c 0,28,29
 281.542372881 186.745762712 281.542372881 186.745762712 281 190 c 2,30,-1
 281 196 l 1,31,-1
 150 169 l 1,32,-1
 135 169 l 2,33,34
 60.125 169 60.125 169 27.5 198 c 0,35,36
 12.9285714286 210.952380952 12.9285714286 210.952380952 12.9285714286 232.404761905 c 0,37,38
 12.9285714286 276.013289037 12.9285714286 276.013289037 60.5174024834 329.135705098 c 128,-1,39
 108.106233538 382.258121159 108.106233538 382.258121159 167 396 c 1,40,41
 90 407 90 407 90 454 c 1,42,43
 92.7476415094 517.195754717 92.7476415094 517.195754717 281 646 c 1,44,45
 328.25 673 328.25 673 381.125 673 c 128,-1,46
 434 673 434 673 434 636 c 0,47,48
 434 627 434 627 432.5 619 c 128,-1,49
 431 611 431 611 420 608 c 1,50,51
 411.467957919 608.799878945 411.467957919 608.799878945 403.02643348 608.799878945 c 0,52,53
 327.931577404 608.799878945 327.931577404 608.799878945 260 545.5 c 0,54,55
 219.403314917 507.671270718 219.403314917 507.671270718 206.201657459 489.335635359 c 128,-1,56
 193 471 193 471 193 469 c 2,57,-1
 193 468 l 1,58,59
 223.636363636 468 223.636363636 468 272.318181818 478.5 c 0,60,61
 367.363636364 499 367.363636364 499 390.5 499 c 0,0,1
344 384 m 1,62,63
 318.334453443 392.380586631 318.334453443 392.380586631 293.984992494 392.380586631 c 0,64,65
 238.586257027 392.380586631 238.586257027 392.380586631 190 349 c 0,66,67
 162 324 162 324 145.5 296.5 c 128,-1,68
 129 269 129 269 124 256 c 1,69,70
 132.421052632 250.736842105 132.421052632 250.736842105 145.289473684 250.736842105 c 128,-1,71
 158.157894737 250.736842105 158.157894737 250.736842105 183.578947368 257.368421053 c 128,-1,72
 209 264 209 264 245 284.5 c 128,-1,73
 281 305 281 305 310 331.5 c 128,-1,74
 339 358 339 358 344 384 c 1,62,63
EndSplineSet
EndChar

StartChar: dieresis
Encoding: 168 168 105
Width: 302
Flags: HW
LayerCount: 2
Fore
SplineSet
40 710 m 256,0,1
 40 724 40 724 50.5 736 c 128,-1,2
 61 748 61 748 76.5 748 c 0,3,4
 92 748 92 748 102.5 739 c 128,-1,5
 113 730 113 730 123 719 c 1,6,-1
 123 716 l 2,7,8
 123 699 123 699 111.5 685.5 c 128,-1,9
 100 672 100 672 84 672 c 0,10,11
 68 672 68 672 54 684 c 128,-1,12
 40 696 40 696 40 710 c 256,0,1
169 710 m 256,13,14
 169 724 169 724 179.5 736 c 128,-1,15
 190 748 190 748 205.5 748 c 0,16,17
 221 748 221 748 231.5 739 c 128,-1,18
 242 730 242 730 252 719 c 1,19,-1
 252 716 l 2,20,21
 252 699 252 699 240.5 685.5 c 128,-1,22
 229 672 229 672 213 672 c 0,23,24
 197 672 197 672 183 684 c 128,-1,25
 169 696 169 696 169 710 c 256,13,14
EndSplineSet
EndChar

StartChar: copyright
Encoding: 169 169 106
Width: 716
Flags: HW
LayerCount: 2
Fore
SplineSet
288.867670159 257.851204271 m 0,0,1
 288.867670159 206.94578396 288.867670159 206.94578396 311 172 c 1,2,3
 330.6 172 330.6 172 357 205 c 1,4,5
 418.513157895 277.368421053 418.513157895 277.368421053 427.128919373 300.343784994 c 128,-1,6
 435.744680851 323.319148936 435.744680851 323.319148936 445.872340426 327.659574468 c 128,-1,7
 456 332 456 332 471 332 c 128,-1,8
 486 332 486 332 500 324.5 c 128,-1,9
 514 317 514 317 514 297 c 128,-1,10
 514 277 514 277 493.5 242.5 c 128,-1,11
 473 208 473 208 443.5 176 c 128,-1,12
 414 144 414 144 381 121.5 c 128,-1,13
 348 99 348 99 323.5 99 c 0,14,15
 273.59375 99 273.59375 99 237.296875 134.196969697 c 128,-1,16
 201 169.393939394 201 169.393939394 201 220 c 1,17,18
 197.457347917 235.182794639 197.457347917 235.182794639 197.457347917 252.958033682 c 0,19,20
 197.457347917 302.968481126 197.457347917 302.968481126 229.873550284 384.500141623 c 128,-1,21
 262.28975265 466.03180212 262.28975265 466.03180212 318.5 511 c 0,22,23
 349.625002315 535.900001852 349.625002315 535.900001852 377.287500298 535.900001852 c 128,-1,24
 404.949998281 535.900001852 404.949998281 535.900001852 429 510 c 0,25,26
 429 509 429 509 430 505 c 0,27,28
 434 489 434 489 434 392 c 1,29,30
 438 384 438 384 438 379 c 1,31,32
 435 368 435 368 426.5 358.5 c 128,-1,33
 418 349 418 349 403 349 c 128,-1,34
 388 349 388 349 377.5 354.5 c 128,-1,35
 367 360 367 360 362 381 c 1,36,37
 365.492063492 386.238095238 365.492063492 386.238095238 359.246031746 416.219047619 c 128,-1,38
 353 446.2 353 446.2 353 458 c 1,39,40
 352 458 352 458 348 454 c 1,41,42
 288.867670159 349.648829692 288.867670159 349.648829692 288.867670159 257.851204271 c 0,0,1
342.744897959 -3.57142857143 m 0,43,44
 110.75 -3.57142857143 110.75 -3.57142857143 66 201 c 0,45,46
 63.4739918025 212.367036889 63.4739918025 212.367036889 63.4739918025 232.570816255 c 128,-1,47
 63.4739918025 252.774595622 63.4739918025 252.774595622 68.7369959013 298.387297811 c 128,-1,48
 74 344 74 344 84.5 389.5 c 128,-1,49
 95 435 95 435 113.5 480 c 0,50,51
 194.062594952 675.963068801 194.062594952 675.963068801 372.527715345 675.963068801 c 0,52,53
 406.042173287 675.963068801 406.042173287 675.963068801 443 669 c 1,54,55
 529.538354254 665.909344491 529.538354254 665.909344491 601 497 c 1,56,57
 622.557692308 435.406593407 622.557692308 435.406593407 636.5 292 c 0,58,59
 640 256 640 256 640 230.5 c 128,-1,60
 640 205 640 205 622.5 164.5 c 128,-1,61
 605 124 605 124 576.5 88 c 128,-1,62
 548 52 548 52 510.5 27 c 128,-1,63
 473 2 473 2 434 2 c 0,64,65
 424 2 424 2 398.464285714 -0.785714285714 c 128,-1,66
 372.928571429 -3.57142857143 372.928571429 -3.57142857143 342.744897959 -3.57142857143 c 0,43,44
163 134 m 1,67,68
 178.570717131 101.128486056 178.570717131 101.128486056 249.5 85.5 c 0,69,70
 292.615384615 76 292.615384615 76 343.807692308 76 c 128,-1,71
 395 76 395 76 412 77 c 2,72,-1
 428 78 l 1,73,-1
 436 78 l 1,74,75
 498.128301887 134.211320755 498.128301887 134.211320755 519.064150943 160.105660377 c 0,76,77
 564 215.684210526 564 215.684210526 564 263.717105263 c 128,-1,78
 564 311.75 564 311.75 530.958823529 419.133823529 c 0,79,80
 478.605263158 589.282894737 478.605263158 589.282894737 446 592 c 1,81,82
 423.856405885 598.512821798 423.856405885 598.512821798 400.331909612 598.512821798 c 0,83,84
 346.968787158 598.512821798 346.968787158 598.512821798 295.984393579 570.256410899 c 0,85,86
 192.012352611 512.633352049 192.012352611 512.633352049 154 410 c 0,87,88
 133.247904192 353.969341317 133.247904192 353.969341317 133.247904192 285.63760479 c 128,-1,89
 133.247904192 217.305868263 133.247904192 217.305868263 163 134 c 1,67,68
EndSplineSet
EndChar

StartChar: guillemotleft
Encoding: 171 171 108
Width: 840
Flags: HW
LayerCount: 2
Fore
SplineSet
205 307 m 1,0,1
 306.02739726 259.054794521 306.02739726 259.054794521 428 185 c 1,2,3
 428 178 428 178 432.5 172.5 c 128,-1,4
 437 167 437 167 443.862068966 157.564655172 c 128,-1,5
 450.724137931 148.129310345 450.724137931 148.129310345 443.362068966 132.064655172 c 128,-1,6
 436 116 436 116 421.5 111.5 c 128,-1,7
 407 107 407 107 392.5 114 c 128,-1,8
 378 121 378 121 372.5 129 c 128,-1,9
 367 137 367 137 356 144 c 1,10,11
 308.636363636 181.890909091 308.636363636 181.890909091 224 223 c 0,12,13
 222 224 222 224 212 228 c 128,-1,14
 202 232 202 232 190 237 c 128,-1,15
 178 242 178 242 168 246 c 128,-1,16
 158 250 158 250 156 251 c 256,17,18
 148 255 148 255 133 262 c 0,19,20
 99.9 277.446666667 99.9 277.446666667 88.7055209291 290.133742947 c 128,-1,21
 77.5110418582 302.820819227 77.5110418582 302.820819227 77.5110418582 314.421451472 c 128,-1,22
 77.5110418582 326.022083716 77.5110418582 326.022083716 83.2555209291 338.011041858 c 128,-1,23
 89 350 89 350 100 353.5 c 128,-1,24
 111 357 111 357 120 361.5 c 128,-1,25
 129 366 129 366 141.5 372 c 0,26,27
 192.333333333 396.4 192.333333333 396.4 210 407 c 1,28,29
 218 415 218 415 227 417.5 c 128,-1,30
 236 420 236 420 244 427 c 1,31,-1
 410 531 l 2,32,33
 420 537 420 537 428 545.5 c 128,-1,34
 436 554 436 554 446.064615622 562.806538669 c 128,-1,35
 456.129231244 571.613077338 456.129231244 571.613077338 465.951538284 571.613077338 c 128,-1,36
 475.773845323 571.613077338 475.773845323 571.613077338 483.136363636 567.931818182 c 0,37,38
 511.571428571 553.714285714 511.571428571 553.714285714 511.571428571 521.040816327 c 0,39,40
 511.571428571 500.918367347 511.571428571 500.918367347 505.785714286 495.959183673 c 128,-1,41
 500 491 500 491 498 489 c 2,42,-1
 299 365 l 1,43,44
 290 357 290 357 276 351 c 128,-1,45
 262 345 262 345 237.255813953 333.511627907 c 128,-1,46
 212.511627907 322.023255814 212.511627907 322.023255814 205 307 c 1,0,1
448 297 m 1,47,48
 570.682539683 236.698412698 570.682539683 236.698412698 671 174 c 1,49,50
 671 167 671 167 675.5 161.5 c 128,-1,51
 680 156 680 156 686.862068966 146.564655172 c 128,-1,52
 693.724137931 137.129310345 693.724137931 137.129310345 686.362068966 121.064655172 c 0,53,54
 676.130784755 98.7391304348 676.130784755 98.7391304348 653.152173913 98.7391304348 c 1,55,-1
 635.5 103 l 1,56,57
 621 110 621 110 615.5 118.5 c 128,-1,58
 610 127 610 127 599 133 c 1,59,60
 551.636363636 170.890909091 551.636363636 170.890909091 467 212 c 0,61,62
 465 213 465 213 455 217 c 128,-1,63
 445 221 445 221 433 226 c 128,-1,64
 421 231 421 231 411 235 c 128,-1,65
 401 239 401 239 399 240 c 256,66,67
 391 244 391 244 376 251 c 0,68,69
 342.9 266.446666667 342.9 266.446666667 331.705520929 279.133742947 c 128,-1,70
 320.511041858 291.820819227 320.511041858 291.820819227 320.511041858 303.421451472 c 128,-1,71
 320.511041858 315.022083716 320.511041858 315.022083716 326.255520929 327.011041858 c 128,-1,72
 332 339 332 339 343 342.5 c 128,-1,73
 354 346 354 346 363 350.5 c 128,-1,74
 372 355 372 355 384.5 361 c 128,-1,75
 397 367 397 367 410.5 374 c 128,-1,76
 424 381 424 381 436 387 c 128,-1,77
 448 393 448 393 453 396 c 1,78,79
 461 404 461 404 470 406.5 c 128,-1,80
 479 409 479 409 487 416 c 1,81,-1
 653 520 l 2,82,83
 663 526 663 526 671 534.5 c 128,-1,84
 679 543 679 543 689.028364307 551.774818768 c 128,-1,85
 699.056728613 560.549637537 699.056728613 560.549637537 709.182923642 560.549637537 c 128,-1,86
 719.309118671 560.549637537 719.309118671 560.549637537 727 557 c 0,87,88
 754.740740741 543.12962963 754.740740741 543.12962963 754.740740741 510.869684499 c 0,89,90
 754.740740741 490.063492063 754.740740741 490.063492063 748.87037037 485.031746032 c 128,-1,91
 743 480 743 480 741 478 c 2,92,-1
 542 354 l 1,93,94
 533 346 533 346 519 340 c 128,-1,95
 505 334 505 334 480.5 323.5 c 128,-1,96
 456 313 456 313 448 297 c 1,47,48
EndSplineSet
EndChar

StartChar: logicalnot
Encoding: 172 172 109
Width: 558
Flags: HW
LayerCount: 2
Fore
SplineSet
513 408 m 1,0,-1
 510.354268682 369.129112618 l 1,1,2
 510.354268682 326.277922078 510.354268682 326.277922078 518 233 c 1,3,4
 518 186 518 186 486 186 c 0,5,6
 470.941176471 186 470.941176471 186 455.5 223.5 c 0,7,8
 452 232 452 232 454 237 c 1,9,-1
 445 374 l 1,10,-1
 98 340 l 1,11,12
 85 340 85 340 72.5 348.5 c 128,-1,13
 60 357 60 357 60 372.5 c 0,14,15
 60 397.857142857 60 397.857142857 98 406 c 1,16,-1
 466 440 l 1,17,18
 513 440 513 440 513 408 c 1,0,-1
EndSplineSet
EndChar

StartChar: hyphen_
Encoding: 173 173 110
Width: 409
Flags: HW
LayerCount: 2
Fore
SplineSet
343 313 m 1,0,1
 390 313 390 313 390 281 c 0,2,3
 390 272.125 390 272.125 370.94603427 260.216271418 c 0,4,5
 351.892068539 248.307542837 351.892068539 248.307542837 346.138491433 248.307542837 c 0,6,7
 340.384914326 248.307542837 340.384914326 248.307542837 339 249 c 2,8,-1
 92 222 l 1,9,10
 79 222 79 222 66.5 230.5 c 128,-1,11
 54 239 54 239 54 254.5 c 0,12,13
 54 279.857142857 54 279.857142857 92 288 c 1,14,-1
 343 313 l 1,0,1
EndSplineSet
EndChar

StartChar: registered
Encoding: 174 174 111
Width: 647
Flags: HW
LayerCount: 2
Fore
SplineSet
319.734693878 25.4285714286 m 0,0,1
 87.75 25.4285714286 87.75 25.4285714286 43 230 c 0,2,3
 40.4739918025 241.367036889 40.4739918025 241.367036889 40.4739918025 261.570816255 c 128,-1,4
 40.4739918025 281.774595622 40.4739918025 281.774595622 45.7369959013 327.387297811 c 128,-1,5
 51 373 51 373 61.5 418.5 c 128,-1,6
 72 464 72 464 90.5 509 c 0,7,8
 171.062594952 704.963068801 171.062594952 704.963068801 349.527715345 704.963068801 c 0,9,10
 383.042173287 704.963068801 383.042173287 704.963068801 420 698 c 1,11,12
 506.538354254 694.909344491 506.538354254 694.909344491 578 526 c 1,13,14
 599.557692308 464.406593407 599.557692308 464.406593407 613.5 321 c 0,15,16
 617 285 617 285 617 259.5 c 128,-1,17
 617 234 617 234 599.5 193.5 c 128,-1,18
 582 153 582 153 553.5 117 c 128,-1,19
 525 81 525 81 487.5 56 c 128,-1,20
 450 31 450 31 411 31 c 0,21,22
 400 31 400 31 374.928571429 28.2142857143 c 128,-1,23
 349.857142857 25.4285714286 349.857142857 25.4285714286 319.734693878 25.4285714286 c 0,0,1
370.819214876 537.068181818 m 0,24,25
 414.940656566 537.068181818 414.940656566 537.068181818 419 464 c 1,26,27
 419 403.454545455 419 403.454545455 372.670658683 363.44284159 c 128,-1,28
 326.341317365 323.431137725 326.341317365 323.431137725 261 315 c 1,29,-1
 512 302 l 2,30,31
 517 301 517 301 524.5 301.5 c 128,-1,32
 532 302 532 302 540 300 c 1,33,34
 536.632653061 353.87755102 536.632653061 353.87755102 503.974554379 458.951433738 c 128,-1,35
 471.316455696 564.025316456 471.316455696 564.025316456 452.658227848 592.012658228 c 128,-1,36
 434 620 434 620 423 621 c 1,37,38
 400.856405885 627.512821798 400.856405885 627.512821798 377.331909612 627.512821798 c 0,39,40
 323.968787158 627.512821798 323.968787158 627.512821798 272.984393579 599.256410899 c 0,41,42
 169.012352611 541.633352049 169.012352611 541.633352049 131 439 c 0,43,44
 110.247904192 382.969341317 110.247904192 382.969341317 110.247904192 314.63760479 c 128,-1,45
 110.247904192 246.305868263 110.247904192 246.305868263 140 163 c 1,46,47
 155.570717131 130.128486056 155.570717131 130.128486056 226.5 114.5 c 0,48,49
 269.615384615 105 269.615384615 105 320.807692308 105 c 128,-1,50
 372 105 372 105 389 106 c 2,51,-1
 405 107 l 1,52,-1
 413 107 l 1,53,54
 429 122 429 122 447 138.5 c 0,55,56
 513.87804878 199.804878049 513.87804878 199.804878049 533 250 c 1,57,58
 513.189838827 245.047459707 513.189838827 245.047459707 483.96060962 245.047459707 c 0,59,60
 404.119694942 245.047459707 404.119694942 245.047459707 254 282 c 1,61,62
 252 280 252 280 252 278 c 2,63,-1
 259 184 l 1,64,65
 259 163 259 163 242 163 c 0,66,67
 201.333333333 163 201.333333333 163 198 173 c 1,68,-1
 191 292 l 1,69,70
 184 302.5 184 302.5 184 310 c 1,71,-1
 186 324 l 1,72,73
 186 340 186 340 184 360 c 1,74,75
 182 363 182 363 173 365 c 128,-1,76
 164 367 164 367 164 375 c 0,77,78
 164 385 164 385 173 394 c 128,-1,79
 182 403 182 403 181 411.5 c 128,-1,80
 180 420 180 420 180 451 c 2,81,-1
 180 453 l 1,82,83
 187.5 468 187.5 468 206.25 468 c 128,-1,84
 225 468 225 468 230 464.5 c 128,-1,85
 235 461 235 461 237.5 456.5 c 128,-1,86
 240 452 240 452 240.5 448 c 128,-1,87
 241 444 241 444 243 443 c 1,88,89
 264.118811881 478.198019802 264.118811881 478.198019802 293.059405941 500.099009901 c 0,90,91
 341.911525974 537.068181818 341.911525974 537.068181818 370.819214876 537.068181818 c 0,24,25
362 460 m 2,92,93
 320.5 460 320.5 460 243 398 c 1,94,-1
 243 391 l 2,95,96
 243 371 243 371 245 349 c 1,97,-1
 246 349 l 2,98,99
 249.3 349 249.3 349 275.65 364.5 c 128,-1,100
 302 380 302 380 321 390.5 c 128,-1,101
 340 401 340 401 347 408.5 c 0,102,103
 375 438.5 375 438.5 375 455 c 256,104,105
 375 460 375 460 370 460 c 2,106,-1
 362 460 l 2,92,93
EndSplineSet
EndChar

StartChar: macron
Encoding: 175 175 112
Width: 406
Flags: HW
LayerCount: 2
Fore
SplineSet
313 774 m 1,0,1
 360 774 360 774 360 742 c 0,2,3
 360 733.125 360 733.125 340.94603427 721.216271418 c 0,4,5
 321.892068539 709.307542837 321.892068539 709.307542837 316.138491433 709.307542837 c 0,6,7
 310.384914326 709.307542837 310.384914326 709.307542837 309 710 c 2,8,-1
 62 683 l 1,9,10
 49 683 49 683 36.5 691.5 c 128,-1,11
 24 700 24 700 24 715.5 c 0,12,13
 24 740.857142857 24 740.857142857 62 749 c 1,14,-1
 313 774 l 1,0,1
EndSplineSet
EndChar

StartChar: degree
Encoding: 176 176 113
Width: 279
Flags: HW
LayerCount: 2
Fore
SplineSet
33 494.642857143 m 0,0,1
 33 545.275862069 33 545.275862069 121 609 c 1,2,-1
 122 609 l 1,3,-1
 152 613 l 1,4,5
 189.32 613 189.32 613 209.66 586.236842105 c 128,-1,6
 230 559.473684211 230 559.473684211 230 538.236842105 c 0,7,8
 230 501.818181818 230 501.818181818 191.504658385 469.155467721 c 128,-1,9
 153.00931677 436.492753623 153.00931677 436.492753623 121.14968344 436.492753623 c 0,10,11
 89.0144927536 436.492753623 89.0144927536 436.492753623 65.5072463768 448.246376812 c 0,12,13
 33 464.5 33 464.5 33 494.642857143 c 0,0,1
91 512 m 1,14,15
 97.6770833333 491.96875 97.6770833333 491.96875 121.408203125 491.96875 c 0,16,17
 143.633928571 491.96875 143.633928571 491.96875 157.858630952 505.546875 c 128,-1,18
 172.083333333 519.125 172.083333333 519.125 172.083333333 537.780833333 c 128,-1,19
 172.083333333 556.436666667 172.083333333 556.436666667 162.041666667 561.658333333 c 128,-1,20
 152 566.88 152 566.88 145.1 566.88 c 128,-1,21
 138.2 566.88 138.2 566.88 127.1 562.44 c 128,-1,22
 116 558 116 558 104 543.5 c 128,-1,23
 92 529 92 529 91 512 c 1,14,15
EndSplineSet
EndChar

StartChar: plusminus
Encoding: 177 177 114
Width: 437
Flags: HW
LayerCount: 2
Fore
SplineSet
331 135 m 1,0,1
 378 135 378 135 378 103 c 0,2,3
 378 94.125 378 94.125 358.94603427 82.2162714185 c 128,-1,4
 339.892068539 70.307542837 339.892068539 70.307542837 334.138491433 70.307542837 c 128,-1,5
 328.384914326 70.307542837 328.384914326 70.307542837 327 71 c 2,6,-1
 80 44 l 1,7,8
 67 44 67 44 54.5 52.5 c 128,-1,9
 42 61 42 61 42 76.5 c 0,10,11
 42 101.857142857 42 101.857142857 80 110 c 1,12,-1
 180 120 l 1,13,14
 180.364334975 129.108374384 180.364334975 129.108374384 180.364334975 156.045155993 c 128,-1,15
 180.364334975 182.981937603 180.364334975 182.981937603 171 222 c 1,16,-1
 167 222 l 2,17,18
 147.4 222 147.4 222 124 215.5 c 128,-1,19
 100.6 209 100.6 209 79 209 c 0,20,21
 45 209 45 209 45 244 c 0,22,23
 45 265 45 265 61 272 c 128,-1,24
 77 279 77 279 98.5 281.5 c 128,-1,25
 120 284 120 284 141 285 c 128,-1,26
 162 286 162 286 171 294 c 1,27,-1
 187 475 l 2,28,29
 189 492 189 492 195 495 c 128,-1,30
 201 498 201 498 215 498 c 2,31,-1
 230 497 l 1,32,33
 238 491 238 491 244 480 c 1,34,-1
 244 444 l 1,35,-1
 240 310 l 1,36,-1
 244 310 l 1,37,-1
 354 325 l 1,38,39
 362 323 362 323 368.5 322 c 128,-1,40
 375 321 375 321 383 317 c 128,-1,41
 391 313 391 313 391 294 c 2,42,-1
 391 291 l 1,43,44
 382 282 382 282 371 278.5 c 0,45,46
 355.085106383 273.436170213 355.085106383 273.436170213 297.042553191 260.134751773 c 128,-1,47
 239 246.833333333 239 246.833333333 239 238.5 c 2,48,-1
 239 231 l 2,49,50
 239 205 239 205 243 179 c 128,-1,51
 247 153 247 153 248 127 c 1,52,-1
 331 135 l 1,0,1
EndSplineSet
EndChar

StartChar: acute
Encoding: 180 180 117
Width: 250
Flags: HW
LayerCount: 2
Fore
SplineSet
87 629 m 1,0,1
 86.1428571429 636.428571429 86.1428571429 636.428571429 86.1428571429 647.857142857 c 128,-1,2
 86.1428571429 659.285714286 86.1428571429 659.285714286 92.5714285714 672.142857143 c 128,-1,3
 99 685 99 685 111.5 697 c 128,-1,4
 124 709 124 709 139 722 c 128,-1,5
 154 735 154 735 168 758 c 1,6,7
 179.19379845 766.95503876 179.19379845 766.95503876 192.49379845 766.95503876 c 128,-1,8
 205.79379845 766.95503876 205.79379845 766.95503876 220 745 c 0,9,10
 225.270375062 737.094437406 225.270375062 737.094437406 225.270375062 726.058332374 c 128,-1,11
 225.270375062 715.022227341 225.270375062 715.022227341 215.635187531 704.51111367 c 128,-1,12
 206 694 206 694 200 686 c 0,13,14
 173.272727273 650.363636364 173.272727273 650.363636364 149.432072592 631.431351764 c 128,-1,15
 125.59141791 612.499067164 125.59141791 612.499067164 110.638059701 612.499067164 c 128,-1,16
 95.6847014925 612.499067164 95.6847014925 612.499067164 87 629 c 1,0,1
EndSplineSet
EndChar

StartChar: mu
Encoding: 181 181 118
Width: 449
Flags: HW
LayerCount: 2
Fore
SplineSet
397.292591681 -20.2982591568 m 0,0,1
 384.368444269 -20.2982591568 384.368444269 -20.2982591568 365 -9 c 0,2,3
 357 -5 357 -5 355 11 c 128,-1,4
 353 27 353 27 352 42.5 c 128,-1,5
 351 58 351 58 350.5 67.5 c 128,-1,6
 350 77 350 77 345 69 c 0,7,8
 304.461538462 7 304.461538462 7 233 7 c 0,9,10
 192.3 7 192.3 7 168.5 41 c 0,11,12
 158 56 158 56 150 73.5 c 128,-1,13
 142 91 142 91 133 107 c 1,14,-1
 129 95 l 1,15,-1
 103 -72 l 1,16,17
 98.1290322581 -91.4838709677 98.1290322581 -91.4838709677 78 -94 c 0,18,19
 70 -95 70 -95 62.5 -95 c 2,20,-1
 42.9557823129 -95.5238095238 l 2,21,22
 32.5476190476 -95.5238095238 32.5476190476 -95.5238095238 23.2738095238 -85.7619047619 c 128,-1,23
 14 -76 14 -76 14 -60 c 2,24,-1
 39 462 l 2,25,26
 39 463 39 463 46.5 473.5 c 128,-1,27
 54 484 54 484 60.5 490 c 128,-1,28
 67 496 67 496 74 496.5 c 128,-1,29
 81 497 81 497 91.5 497 c 128,-1,30
 102 497 102 497 110.5 496 c 128,-1,31
 119 495 119 495 124 484 c 1,32,33
 123.046949328 456.361530507 123.046949328 456.361530507 123.046949328 430.60846529 c 0,34,35
 123.046949328 196.953050672 123.046949328 196.953050672 201.5 118.5 c 0,36,37
 226 94 226 94 246 94 c 1,38,39
 288.568408699 108.189469566 288.568408699 108.189469566 288.568408699 223.585423913 c 0,40,41
 288.568408699 303.182309828 288.568408699 303.182309828 273.78420435 349.091154914 c 128,-1,42
 259 395 259 395 246 413 c 1,43,-1
 246 424 l 2,44,45
 246 448 246 448 265 462.5 c 128,-1,46
 284 477 284 477 307.5 477 c 128,-1,47
 331 477 331 477 340 462.5 c 128,-1,48
 349 448 349 448 346 434 c 1,49,-1
 388 207 l 1,50,51
 394 184 394 184 402 155 c 0,52,53
 423.615384615 76.6442307692 423.615384615 76.6442307692 423.615384615 28.1729858062 c 128,-1,54
 423.615384615 -20.2982591568 423.615384615 -20.2982591568 397.292591681 -20.2982591568 c 0,0,1
EndSplineSet
EndChar

